<?xml version="1.0" encoding="utf-8" standalone="no"?>
<!DOCTYPE svg PUBLIC "-//W3C//DTD SVG 1.1//EN"
  "http://www.w3.org/Graphics/SVG/1.1/DTD/svg11.dtd">
<svg xmlns:xlink="http://www.w3.org/1999/xlink" width="720pt" height="504pt" viewBox="0 0 720 504" xmlns="http://www.w3.org/2000/svg" version="1.1">
 <metadata>
  <rdf:RDF xmlns:dc="http://purl.org/dc/elements/1.1/" xmlns:cc="http://creativecommons.org/ns#" xmlns:rdf="http://www.w3.org/1999/02/22-rdf-syntax-ns#">
   <cc:Work>
    <dc:type rdf:resource="http://purl.org/dc/dcmitype/StillImage"/>
    <dc:date>2022-07-05T09:57:42.217422</dc:date>
    <dc:format>image/svg+xml</dc:format>
    <dc:creator>
     <cc:Agent>
      <dc:title>Matplotlib v3.5.1, https://matplotlib.org/</dc:title>
     </cc:Agent>
    </dc:creator>
   </cc:Work>
  </rdf:RDF>
 </metadata>
 <defs>
  <style type="text/css">*{stroke-linejoin: round; stroke-linecap: butt}</style>
 </defs>
 <g id="figure_1">
  <g id="patch_1">
   <path d="M 0 504 
L 720 504 
L 720 0 
L 0 0 
L 0 504 
z
" style="fill: none"/>
  </g>
  <g id="axes_1">
   <g id="patch_2">
    <path d="M 90 441 
L 648 441 
L 648 60.48 
L 90 60.48 
z
" style="fill: #ffffff"/>
   </g>
   <g id="matplotlib.axis_1">
    <g id="xtick_1">
     <g id="line2d_1">
      <defs>
       <path id="md2a6b54dd0" d="M 0 0 
L 0 3.5 
" style="stroke: #000000; stroke-width: 0.8"/>
      </defs>
      <g>
       <use xlink:href="#md2a6b54dd0" x="115.363636" y="441" style="stroke: #000000; stroke-width: 0.8"/>
      </g>
     </g>
     <g id="text_1">
      <text style="font: 10px 'sans-serif'; text-anchor: middle" x="115.363636" y="455.598437" transform="rotate(-0, 115.363636, 455.598437)">2</text>
     </g>
    </g>
    <g id="xtick_2">
     <g id="line2d_2">
      <g>
       <use xlink:href="#md2a6b54dd0" x="193.405594" y="441" style="stroke: #000000; stroke-width: 0.8"/>
      </g>
     </g>
     <g id="text_2">
      <text style="font: 10px 'sans-serif'; text-anchor: middle" x="193.405594" y="455.598437" transform="rotate(-0, 193.405594, 455.598437)">4</text>
     </g>
    </g>
    <g id="xtick_3">
     <g id="line2d_3">
      <g>
       <use xlink:href="#md2a6b54dd0" x="271.447552" y="441" style="stroke: #000000; stroke-width: 0.8"/>
      </g>
     </g>
     <g id="text_3">
      <text style="font: 10px 'sans-serif'; text-anchor: middle" x="271.447552" y="455.598437" transform="rotate(-0, 271.447552, 455.598437)">6</text>
     </g>
    </g>
    <g id="xtick_4">
     <g id="line2d_4">
      <g>
       <use xlink:href="#md2a6b54dd0" x="349.48951" y="441" style="stroke: #000000; stroke-width: 0.8"/>
      </g>
     </g>
     <g id="text_4">
      <text style="font: 10px 'sans-serif'; text-anchor: middle" x="349.48951" y="455.598437" transform="rotate(-0, 349.48951, 455.598437)">8</text>
     </g>
    </g>
    <g id="xtick_5">
     <g id="line2d_5">
      <g>
       <use xlink:href="#md2a6b54dd0" x="427.531469" y="441" style="stroke: #000000; stroke-width: 0.8"/>
      </g>
     </g>
     <g id="text_5">
      <text style="font: 10px 'sans-serif'; text-anchor: middle" x="427.531469" y="455.598437" transform="rotate(-0, 427.531469, 455.598437)">10</text>
     </g>
    </g>
    <g id="xtick_6">
     <g id="line2d_6">
      <g>
       <use xlink:href="#md2a6b54dd0" x="505.573427" y="441" style="stroke: #000000; stroke-width: 0.8"/>
      </g>
     </g>
     <g id="text_6">
      <text style="font: 10px 'sans-serif'; text-anchor: middle" x="505.573427" y="455.598437" transform="rotate(-0, 505.573427, 455.598437)">12</text>
     </g>
    </g>
    <g id="xtick_7">
     <g id="line2d_7">
      <g>
       <use xlink:href="#md2a6b54dd0" x="583.615385" y="441" style="stroke: #000000; stroke-width: 0.8"/>
      </g>
     </g>
     <g id="text_7">
      <text style="font: 10px 'sans-serif'; text-anchor: middle" x="583.615385" y="455.598437" transform="rotate(-0, 583.615385, 455.598437)">14</text>
     </g>
    </g>
    <g id="text_8">
     <text style="font: 10px 'sans-serif'; text-anchor: middle" x="369" y="469.276563" transform="rotate(-0, 369, 469.276563)">k</text>
    </g>
   </g>
   <g id="matplotlib.axis_2">
    <g id="ytick_1">
     <g id="line2d_8">
      <defs>
       <path id="mb8a08a47e6" d="M 0 0 
L -3.5 0 
" style="stroke: #000000; stroke-width: 0.8"/>
      </defs>
      <g>
       <use xlink:href="#mb8a08a47e6" x="90" y="414.903997" style="stroke: #000000; stroke-width: 0.8"/>
      </g>
     </g>
     <g id="text_9">
      <text style="font: 10px 'sans-serif'; text-anchor: end" x="83" y="418.703215" transform="rotate(-0, 83, 418.703215)">0.56</text>
     </g>
    </g>
    <g id="ytick_2">
     <g id="line2d_9">
      <g>
       <use xlink:href="#mb8a08a47e6" x="90" y="360.07758" style="stroke: #000000; stroke-width: 0.8"/>
      </g>
     </g>
     <g id="text_10">
      <text style="font: 10px 'sans-serif'; text-anchor: end" x="83" y="363.876799" transform="rotate(-0, 83, 363.876799)">0.58</text>
     </g>
    </g>
    <g id="ytick_3">
     <g id="line2d_10">
      <g>
       <use xlink:href="#mb8a08a47e6" x="90" y="305.251164" style="stroke: #000000; stroke-width: 0.8"/>
      </g>
     </g>
     <g id="text_11">
      <text style="font: 10px 'sans-serif'; text-anchor: end" x="83" y="309.050383" transform="rotate(-0, 83, 309.050383)">0.60</text>
     </g>
    </g>
    <g id="ytick_4">
     <g id="line2d_11">
      <g>
       <use xlink:href="#mb8a08a47e6" x="90" y="250.424748" style="stroke: #000000; stroke-width: 0.8"/>
      </g>
     </g>
     <g id="text_12">
      <text style="font: 10px 'sans-serif'; text-anchor: end" x="83" y="254.223967" transform="rotate(-0, 83, 254.223967)">0.62</text>
     </g>
    </g>
    <g id="ytick_5">
     <g id="line2d_12">
      <g>
       <use xlink:href="#mb8a08a47e6" x="90" y="195.598332" style="stroke: #000000; stroke-width: 0.8"/>
      </g>
     </g>
     <g id="text_13">
      <text style="font: 10px 'sans-serif'; text-anchor: end" x="83" y="199.397551" transform="rotate(-0, 83, 199.397551)">0.64</text>
     </g>
    </g>
    <g id="ytick_6">
     <g id="line2d_13">
      <g>
       <use xlink:href="#mb8a08a47e6" x="90" y="140.771916" style="stroke: #000000; stroke-width: 0.8"/>
      </g>
     </g>
     <g id="text_14">
      <text style="font: 10px 'sans-serif'; text-anchor: end" x="83" y="144.571135" transform="rotate(-0, 83, 144.571135)">0.66</text>
     </g>
    </g>
    <g id="ytick_7">
     <g id="line2d_14">
      <g>
       <use xlink:href="#mb8a08a47e6" x="90" y="85.9455" style="stroke: #000000; stroke-width: 0.8"/>
      </g>
     </g>
     <g id="text_15">
      <text style="font: 10px 'sans-serif'; text-anchor: end" x="83" y="89.744718" transform="rotate(-0, 83, 89.744718)">0.68</text>
     </g>
    </g>
   </g>
   <g id="line2d_15">
    <path d="M 115.363636 423.703636 
L 154.384615 407.008993 
L 193.405594 382.282279 
L 232.426573 365.066784 
L 271.447552 348.53662 
L 310.468531 335.076735 
L 349.48951 320.438082 
L 388.51049 250.589227 
L 427.531469 259.388867 
L 505.573427 180.932266 
L 622.636364 77.776364 
" clip-path="url(#p9a1594f29e)" style="fill: none; stroke: #1f77b4; stroke-width: 1.5; stroke-linecap: square"/>
   </g>
   <g id="line2d_16">
    <path d="M 115.363636 235.923161 
L 154.384615 247.18999 
L 193.405594 238.609655 
L 232.426573 238.006565 
L 271.447552 211.552819 
L 310.468531 211.552819 
L 349.48951 211.635059 
L 388.51049 188.306419 
L 427.531469 127.915121 
L 505.573427 126.051023 
L 622.636364 90.90729 
" clip-path="url(#p9a1594f29e)" style="fill: none; stroke: #ff7f0e; stroke-width: 1.5; stroke-linecap: square"/>
   </g>
   <g id="line2d_17">
    <path d="M 115.363636 341.025401 
L 154.384615 351.277941 
L 193.405594 356.376797 
L 232.426573 358.323135 
L 271.447552 362.873728 
L 310.468531 364.51852 
L 349.48951 365.258677 
L 388.51049 363.394579 
L 427.531469 368.822394 
L 505.573427 363.860603 
L 622.636364 367.150188 
" clip-path="url(#p9a1594f29e)" style="fill: none; stroke: #2ca02c; stroke-width: 1.5; stroke-linecap: square"/>
   </g>
   <g id="patch_3">
    <path d="M 90 441 
L 90 60.48 
" style="fill: none; stroke: #000000; stroke-width: 0.8; stroke-linejoin: miter; stroke-linecap: square"/>
   </g>
   <g id="patch_4">
    <path d="M 648 441 
L 648 60.48 
" style="fill: none; stroke: #000000; stroke-width: 0.8; stroke-linejoin: miter; stroke-linecap: square"/>
   </g>
   <g id="patch_5">
    <path d="M 90 441 
L 648 441 
" style="fill: none; stroke: #000000; stroke-width: 0.8; stroke-linejoin: miter; stroke-linecap: square"/>
   </g>
   <g id="patch_6">
    <path d="M 90 60.48 
L 648 60.48 
" style="fill: none; stroke: #000000; stroke-width: 0.8; stroke-linejoin: miter; stroke-linecap: square"/>
   </g>
   <g id="legend_1">
    <g id="patch_7">
     <path d="M 97 112.514375 
L 210.61875 112.514375 
Q 212.61875 112.514375 212.61875 110.514375 
L 212.61875 67.48 
Q 212.61875 65.48 210.61875 65.48 
L 97 65.48 
Q 95 65.48 95 67.48 
L 95 110.514375 
Q 95 112.514375 97 112.514375 
z
" style="fill: #ffffff; opacity: 0.8; stroke: #cccccc; stroke-linejoin: miter"/>
    </g>
    <g id="line2d_18">
     <path d="M 99 73.578438 
L 109 73.578438 
L 119 73.578438 
" style="fill: none; stroke: #1f77b4; stroke-width: 1.5; stroke-linecap: square"/>
    </g>
    <g id="text_16">
     <text style="font: 10px 'sans-serif'; text-anchor: start" x="127" y="77.078438" transform="rotate(-0, 127, 77.078438)">radius: 1000 km</text>
    </g>
    <g id="line2d_19">
     <path d="M 99 88.256563 
L 109 88.256563 
L 119 88.256563 
" style="fill: none; stroke: #ff7f0e; stroke-width: 1.5; stroke-linecap: square"/>
    </g>
    <g id="text_17">
     <text style="font: 10px 'sans-serif'; text-anchor: start" x="127" y="91.756563" transform="rotate(-0, 127, 91.756563)">radius: 2000 km</text>
    </g>
    <g id="line2d_20">
     <path d="M 99 102.934687 
L 109 102.934687 
L 119 102.934687 
" style="fill: none; stroke: #2ca02c; stroke-width: 1.5; stroke-linecap: square"/>
    </g>
    <g id="text_18">
     <text style="font: 10px 'sans-serif'; text-anchor: start" x="127" y="106.434687" transform="rotate(-0, 127, 106.434687)">radius: 3000 km</text>
    </g>
   </g>
  </g>
  <g id="text_19">
   <text style="font: 12px 'sans-serif'; text-anchor: middle" x="360" y="19.198125" transform="rotate(-0, 360, 19.198125)">Cross validation for increasing regional contexts</text>
  </g>
 </g>
 <defs>
  <clipPath id="p9a1594f29e">
   <rect x="90" y="60.48" width="558" height="380.52"/>
  </clipPath>
 </defs>
</svg>
