<?xml version="1.0" encoding="utf-8" standalone="no"?>
<!DOCTYPE svg PUBLIC "-//W3C//DTD SVG 1.1//EN"
  "http://www.w3.org/Graphics/SVG/1.1/DTD/svg11.dtd">
<svg xmlns:xlink="http://www.w3.org/1999/xlink" width="1080pt" height="1440pt" viewBox="0 0 1080 1440" xmlns="http://www.w3.org/2000/svg" version="1.1">
 <metadata>
  <rdf:RDF xmlns:dc="http://purl.org/dc/elements/1.1/" xmlns:cc="http://creativecommons.org/ns#" xmlns:rdf="http://www.w3.org/1999/02/22-rdf-syntax-ns#">
   <cc:Work>
    <dc:type rdf:resource="http://purl.org/dc/dcmitype/StillImage"/>
    <dc:date>2022-07-03T18:21:14.455502</dc:date>
    <dc:format>image/svg+xml</dc:format>
    <dc:creator>
     <cc:Agent>
      <dc:title>Matplotlib v3.5.1, https://matplotlib.org/</dc:title>
     </cc:Agent>
    </dc:creator>
   </cc:Work>
  </rdf:RDF>
 </metadata>
 <defs>
  <style type="text/css">*{stroke-linejoin: round; stroke-linecap: butt}</style>
 </defs>
 <g id="figure_1">
  <g id="patch_1">
   <path d="M 0 1440 
L 1080 1440 
L 1080 0 
L 0 0 
L 0 1440 
z
" style="fill: none"/>
  </g>
  <g id="axes_1">
   <g id="patch_2">
    <path d="M 135 1260 
L 972 1260 
L 972 172.8 
L 135 172.8 
z
" style="fill: #ffffff"/>
   </g>
   <g id="patch_3">
    <path d="M 173.045455 1196.544051 
L 188.469287 1196.544051 
L 188.469287 1185.145912 
L 173.045455 1185.145912 
z
" clip-path="url(#pae798456fd)" style="fill: #1f77b4"/>
   </g>
   <g id="patch_4">
    <path d="M 198.751843 1196.544051 
L 214.175676 1196.544051 
L 214.175676 1191.132811 
L 198.751843 1191.132811 
z
" clip-path="url(#pae798456fd)" style="fill: #1f77b4"/>
   </g>
   <g id="patch_5">
    <path d="M 224.458231 1196.544051 
L 239.882064 1196.544051 
L 239.882064 355.838355 
L 224.458231 355.838355 
z
" clip-path="url(#pae798456fd)" style="fill: #1f77b4"/>
   </g>
   <g id="patch_6">
    <path d="M 250.164619 1196.544051 
L 265.588452 1196.544051 
L 265.588452 1195.190488 
L 250.164619 1195.190488 
z
" clip-path="url(#pae798456fd)" style="fill: #1f77b4"/>
   </g>
   <g id="patch_7">
    <path d="M 275.871007 1196.544051 
L 291.29484 1196.544051 
L 291.29484 1074.279832 
L 275.871007 1074.279832 
z
" clip-path="url(#pae798456fd)" style="fill: #1f77b4"/>
   </g>
   <g id="patch_8">
    <path d="M 301.577396 1196.544051 
L 317.001229 1196.544051 
L 317.001229 857.992383 
L 301.577396 857.992383 
z
" clip-path="url(#pae798456fd)" style="fill: #1f77b4"/>
   </g>
   <g id="patch_9">
    <path d="M 327.283784 1196.544051 
L 342.707617 1196.544051 
L 342.707617 817.494079 
L 327.283784 817.494079 
z
" clip-path="url(#pae798456fd)" style="fill: #1f77b4"/>
   </g>
   <g id="patch_10">
    <path d="M 352.990172 1196.544051 
L 368.414005 1196.544051 
L 368.414005 1196.281746 
L 352.990172 1196.281746 
z
" clip-path="url(#pae798456fd)" style="fill: #1f77b4"/>
   </g>
   <g id="patch_11">
    <path d="M 378.69656 1196.544051 
L 394.120393 1196.544051 
L 394.120393 1154.380933 
L 378.69656 1154.380933 
z
" clip-path="url(#pae798456fd)" style="fill: #1f77b4"/>
   </g>
   <g id="patch_12">
    <path d="M 404.402948 1196.544051 
L 419.826781 1196.544051 
L 419.826781 1182.316897 
L 404.402948 1182.316897 
z
" clip-path="url(#pae798456fd)" style="fill: #1f77b4"/>
   </g>
   <g id="patch_13">
    <path d="M 430.109337 1196.544051 
L 445.53317 1196.544051 
L 445.53317 1195.804674 
L 430.109337 1195.804674 
z
" clip-path="url(#pae798456fd)" style="fill: #1f77b4"/>
   </g>
   <g id="patch_14">
    <path d="M 455.815725 1196.544051 
L 471.239558 1196.544051 
L 471.239558 1153.236058 
L 455.815725 1153.236058 
z
" clip-path="url(#pae798456fd)" style="fill: #1f77b4"/>
   </g>
   <g id="patch_15">
    <path d="M 481.522113 1196.544051 
L 496.945946 1196.544051 
L 496.945946 1142.960042 
L 481.522113 1142.960042 
z
" clip-path="url(#pae798456fd)" style="fill: #1f77b4"/>
   </g>
   <g id="patch_16">
    <path d="M 507.228501 1196.544051 
L 522.652334 1196.544051 
L 522.652334 434.391635 
L 507.228501 434.391635 
z
" clip-path="url(#pae798456fd)" style="fill: #1f77b4"/>
   </g>
   <g id="patch_17">
    <path d="M 532.934889 1196.544051 
L 548.358722 1196.544051 
L 548.358722 1174.311745 
L 532.934889 1174.311745 
z
" clip-path="url(#pae798456fd)" style="fill: #1f77b4"/>
   </g>
   <g id="patch_18">
    <path d="M 558.641278 1196.544051 
L 574.065111 1196.544051 
L 574.065111 1169.315677 
L 558.641278 1169.315677 
z
" clip-path="url(#pae798456fd)" style="fill: #1f77b4"/>
   </g>
   <g id="patch_19">
    <path d="M 584.347666 1196.544051 
L 599.771499 1196.544051 
L 599.771499 1196.392977 
L 584.347666 1196.392977 
z
" clip-path="url(#pae798456fd)" style="fill: #1f77b4"/>
   </g>
   <g id="patch_20">
    <path d="M 610.054054 1196.544051 
L 625.477887 1196.544051 
L 625.477887 1155.513955 
L 610.054054 1155.513955 
z
" clip-path="url(#pae798456fd)" style="fill: #1f77b4"/>
   </g>
   <g id="patch_21">
    <path d="M 635.760442 1196.544051 
L 651.184275 1196.544051 
L 651.184275 897.602883 
L 635.760442 897.602883 
z
" clip-path="url(#pae798456fd)" style="fill: #1f77b4"/>
   </g>
   <g id="patch_22">
    <path d="M 661.46683 1196.544051 
L 676.890663 1196.544051 
L 676.890663 1145.983105 
L 661.46683 1145.983105 
z
" clip-path="url(#pae798456fd)" style="fill: #1f77b4"/>
   </g>
   <g id="patch_23">
    <path d="M 687.173219 1196.544051 
L 702.597052 1196.544051 
L 702.597052 556.35764 
L 687.173219 556.35764 
z
" clip-path="url(#pae798456fd)" style="fill: #1f77b4"/>
   </g>
   <g id="patch_24">
    <path d="M 712.879607 1196.544051 
L 728.30344 1196.544051 
L 728.30344 1192.193017 
L 712.879607 1192.193017 
z
" clip-path="url(#pae798456fd)" style="fill: #1f77b4"/>
   </g>
   <g id="patch_25">
    <path d="M 738.585995 1196.544051 
L 754.009828 1196.544051 
L 754.009828 1109.939136 
L 738.585995 1109.939136 
z
" clip-path="url(#pae798456fd)" style="fill: #1f77b4"/>
   </g>
   <g id="patch_26">
    <path d="M 764.292383 1196.544051 
L 779.716216 1196.544051 
L 779.716216 1124.551744 
L 764.292383 1124.551744 
z
" clip-path="url(#pae798456fd)" style="fill: #1f77b4"/>
   </g>
   <g id="patch_27">
    <path d="M 789.998771 1196.544051 
L 805.422604 1196.544051 
L 805.422604 1113.358193 
L 789.998771 1113.358193 
z
" clip-path="url(#pae798456fd)" style="fill: #1f77b4"/>
   </g>
   <g id="patch_28">
    <path d="M 815.70516 1196.544051 
L 831.128993 1196.544051 
L 831.128993 1131.976189 
L 815.70516 1131.976189 
z
" clip-path="url(#pae798456fd)" style="fill: #1f77b4"/>
   </g>
   <g id="patch_29">
    <path d="M 841.411548 1196.544051 
L 856.835381 1196.544051 
L 856.835381 1060.86202 
L 841.411548 1060.86202 
z
" clip-path="url(#pae798456fd)" style="fill: #1f77b4"/>
   </g>
   <g id="patch_30">
    <path d="M 867.117936 1196.544051 
L 882.541769 1196.544051 
L 882.541769 1058.490353 
L 867.117936 1058.490353 
z
" clip-path="url(#pae798456fd)" style="fill: #1f77b4"/>
   </g>
   <g id="patch_31">
    <path d="M 892.824324 1196.544051 
L 908.248157 1196.544051 
L 908.248157 1127.263719 
L 892.824324 1127.263719 
z
" clip-path="url(#pae798456fd)" style="fill: #1f77b4"/>
   </g>
   <g id="patch_32">
    <path d="M 918.530713 1196.544051 
L 933.954545 1196.544051 
L 933.954545 1111.599589 
L 918.530713 1111.599589 
z
" clip-path="url(#pae798456fd)" style="fill: #1f77b4"/>
   </g>
   <g id="patch_33">
    <path d="M 173.045455 1185.145912 
L 188.469287 1185.145912 
L 188.469287 778.734853 
L 173.045455 778.734853 
z
" clip-path="url(#pae798456fd)" style="fill: #ff7f0e"/>
   </g>
   <g id="patch_34">
    <path d="M 198.751843 1191.132811 
L 214.175676 1191.132811 
L 214.175676 854.55642 
L 198.751843 854.55642 
z
" clip-path="url(#pae798456fd)" style="fill: #ff7f0e"/>
   </g>
   <g id="patch_35">
    <path d="M 224.458231 355.838355 
L 239.882064 355.838355 
L 239.882064 355.829948 
L 224.458231 355.829948 
z
" clip-path="url(#pae798456fd)" style="fill: #ff7f0e"/>
   </g>
   <g id="patch_36">
    <path d="M 250.164619 1195.190488 
L 265.588452 1195.190488 
L 265.588452 697.901862 
L 250.164619 697.901862 
z
" clip-path="url(#pae798456fd)" style="fill: #ff7f0e"/>
   </g>
   <g id="patch_37">
    <path d="M 275.871007 1074.279832 
L 291.29484 1074.279832 
L 291.29484 543.51144 
L 275.871007 543.51144 
z
" clip-path="url(#pae798456fd)" style="fill: #ff7f0e"/>
   </g>
   <g id="patch_38">
    <path d="M 301.577396 857.992383 
L 317.001229 857.992383 
L 317.001229 370.744926 
L 301.577396 370.744926 
z
" clip-path="url(#pae798456fd)" style="fill: #ff7f0e"/>
   </g>
   <g id="patch_39">
    <path d="M 327.283784 817.494079 
L 342.707617 817.494079 
L 342.707617 364.950176 
L 327.283784 364.950176 
z
" clip-path="url(#pae798456fd)" style="fill: #ff7f0e"/>
   </g>
   <g id="patch_40">
    <path d="M 352.990172 1196.281746 
L 368.414005 1196.281746 
L 368.414005 787.14507 
L 352.990172 787.14507 
z
" clip-path="url(#pae798456fd)" style="fill: #ff7f0e"/>
   </g>
   <g id="patch_41">
    <path d="M 378.69656 1154.380933 
L 394.120393 1154.380933 
L 394.120393 1146.049151 
L 378.69656 1146.049151 
z
" clip-path="url(#pae798456fd)" style="fill: #ff7f0e"/>
   </g>
   <g id="patch_42">
    <path d="M 404.402948 1182.316897 
L 419.826781 1182.316897 
L 419.826781 861.035896 
L 404.402948 861.035896 
z
" clip-path="url(#pae798456fd)" style="fill: #ff7f0e"/>
   </g>
   <g id="patch_43">
    <path d="M 430.109337 1195.804674 
L 445.53317 1195.804674 
L 445.53317 728.762148 
L 430.109337 728.762148 
z
" clip-path="url(#pae798456fd)" style="fill: #ff7f0e"/>
   </g>
   <g id="patch_44">
    <path d="M 455.815725 1153.236058 
L 471.239558 1153.236058 
L 471.239558 587.974431 
L 455.815725 587.974431 
z
" clip-path="url(#pae798456fd)" style="fill: #ff7f0e"/>
   </g>
   <g id="patch_45">
    <path d="M 481.522113 1142.960042 
L 496.945946 1142.960042 
L 496.945946 645.954599 
L 481.522113 645.954599 
z
" clip-path="url(#pae798456fd)" style="fill: #ff7f0e"/>
   </g>
   <g id="patch_46">
    <path d="M 507.228501 434.391635 
L 522.652334 434.391635 
L 522.652334 357.538467 
L 507.228501 357.538467 
z
" clip-path="url(#pae798456fd)" style="fill: #ff7f0e"/>
   </g>
   <g id="patch_47">
    <path d="M 532.934889 1174.311745 
L 548.358722 1174.311745 
L 548.358722 687.432044 
L 532.934889 687.432044 
z
" clip-path="url(#pae798456fd)" style="fill: #ff7f0e"/>
   </g>
   <g id="patch_48">
    <path d="M 558.641278 1169.315677 
L 574.065111 1169.315677 
L 574.065111 1105.319633 
L 558.641278 1105.319633 
z
" clip-path="url(#pae798456fd)" style="fill: #ff7f0e"/>
   </g>
   <g id="patch_49">
    <path d="M 584.347666 1196.392977 
L 599.771499 1196.392977 
L 599.771499 938.558973 
L 584.347666 938.558973 
z
" clip-path="url(#pae798456fd)" style="fill: #ff7f0e"/>
   </g>
   <g id="patch_50">
    <path d="M 610.054054 1155.513955 
L 625.477887 1155.513955 
L 625.477887 498.510331 
L 610.054054 498.510331 
z
" clip-path="url(#pae798456fd)" style="fill: #ff7f0e"/>
   </g>
   <g id="patch_51">
    <path d="M 635.760442 897.602883 
L 651.184275 897.602883 
L 651.184275 501.751001 
L 635.760442 501.751001 
z
" clip-path="url(#pae798456fd)" style="fill: #ff7f0e"/>
   </g>
   <g id="patch_52">
    <path d="M 661.46683 1145.983105 
L 676.890663 1145.983105 
L 676.890663 676.112541 
L 661.46683 676.112541 
z
" clip-path="url(#pae798456fd)" style="fill: #ff7f0e"/>
   </g>
   <g id="patch_53">
    <path d="M 687.173219 556.35764 
L 702.597052 556.35764 
L 702.597052 379.303641 
L 687.173219 379.303641 
z
" clip-path="url(#pae798456fd)" style="fill: #ff7f0e"/>
   </g>
   <g id="patch_54">
    <path d="M 712.879607 1192.193017 
L 728.30344 1192.193017 
L 728.30344 816.024164 
L 712.879607 816.024164 
z
" clip-path="url(#pae798456fd)" style="fill: #ff7f0e"/>
   </g>
   <g id="patch_55">
    <path d="M 738.585995 1109.939136 
L 754.009828 1109.939136 
L 754.009828 477.568385 
L 738.585995 477.568385 
z
" clip-path="url(#pae798456fd)" style="fill: #ff7f0e"/>
   </g>
   <g id="patch_56">
    <path d="M 764.292383 1124.551744 
L 779.716216 1124.551744 
L 779.716216 493.579057 
L 764.292383 493.579057 
z
" clip-path="url(#pae798456fd)" style="fill: #ff7f0e"/>
   </g>
   <g id="patch_57">
    <path d="M 789.998771 1113.358193 
L 805.422604 1113.358193 
L 805.422604 457.834159 
L 789.998771 457.834159 
z
" clip-path="url(#pae798456fd)" style="fill: #ff7f0e"/>
   </g>
   <g id="patch_58">
    <path d="M 815.70516 1131.976189 
L 831.128993 1131.976189 
L 831.128993 482.251634 
L 815.70516 482.251634 
z
" clip-path="url(#pae798456fd)" style="fill: #ff7f0e"/>
   </g>
   <g id="patch_59">
    <path d="M 841.411548 1060.86202 
L 856.835381 1060.86202 
L 856.835381 495.575365 
L 841.411548 495.575365 
z
" clip-path="url(#pae798456fd)" style="fill: #ff7f0e"/>
   </g>
   <g id="patch_60">
    <path d="M 867.117936 1058.490353 
L 882.541769 1058.490353 
L 882.541769 457.287051 
L 867.117936 457.287051 
z
" clip-path="url(#pae798456fd)" style="fill: #ff7f0e"/>
   </g>
   <g id="patch_61">
    <path d="M 892.824324 1127.263719 
L 908.248157 1127.263719 
L 908.248157 454.903804 
L 892.824324 454.903804 
z
" clip-path="url(#pae798456fd)" style="fill: #ff7f0e"/>
   </g>
   <g id="patch_62">
    <path d="M 918.530713 1111.599589 
L 933.954545 1111.599589 
L 933.954545 442.423067 
L 918.530713 442.423067 
z
" clip-path="url(#pae798456fd)" style="fill: #ff7f0e"/>
   </g>
   <g id="patch_63">
    <path d="M 173.045455 778.734853 
L 188.469287 778.734853 
L 188.469287 355.821511 
L 173.045455 355.821511 
z
" clip-path="url(#pae798456fd)" style="fill: #2ca02c"/>
   </g>
   <g id="patch_64">
    <path d="M 198.751843 854.55642 
L 214.175676 854.55642 
L 214.175676 355.82154 
L 198.751843 355.82154 
z
" clip-path="url(#pae798456fd)" style="fill: #2ca02c"/>
   </g>
   <g id="patch_65">
    <path d="M 224.458231 355.829948 
L 239.882064 355.829948 
L 239.882064 355.82154 
L 224.458231 355.82154 
z
" clip-path="url(#pae798456fd)" style="fill: #2ca02c"/>
   </g>
   <g id="patch_66">
    <path d="M 250.164619 697.901862 
L 265.588452 697.901862 
L 265.588452 355.82154 
L 250.164619 355.82154 
z
" clip-path="url(#pae798456fd)" style="fill: #2ca02c"/>
   </g>
   <g id="patch_67">
    <path d="M 275.871007 543.51144 
L 291.29484 543.51144 
L 291.29484 355.8214 
L 275.871007 355.8214 
z
" clip-path="url(#pae798456fd)" style="fill: #2ca02c"/>
   </g>
   <g id="patch_68">
    <path d="M 301.577396 370.744926 
L 317.001229 370.744926 
L 317.001229 355.82126 
L 301.577396 355.82126 
z
" clip-path="url(#pae798456fd)" style="fill: #2ca02c"/>
   </g>
   <g id="patch_69">
    <path d="M 327.283784 364.950176 
L 342.707617 364.950176 
L 342.707617 355.82133 
L 327.283784 355.82133 
z
" clip-path="url(#pae798456fd)" style="fill: #2ca02c"/>
   </g>
   <g id="patch_70">
    <path d="M 352.990172 787.14507 
L 368.414005 787.14507 
L 368.414005 355.82154 
L 352.990172 355.82154 
z
" clip-path="url(#pae798456fd)" style="fill: #2ca02c"/>
   </g>
   <g id="patch_71">
    <path d="M 378.69656 1146.049151 
L 394.120393 1146.049151 
L 394.120393 355.821496 
L 378.69656 355.821496 
z
" clip-path="url(#pae798456fd)" style="fill: #2ca02c"/>
   </g>
   <g id="patch_72">
    <path d="M 404.402948 861.035896 
L 419.826781 861.035896 
L 419.826781 355.821568 
L 404.402948 355.821568 
z
" clip-path="url(#pae798456fd)" style="fill: #2ca02c"/>
   </g>
   <g id="patch_73">
    <path d="M 430.109337 728.762148 
L 445.53317 728.762148 
L 445.53317 355.82154 
L 430.109337 355.82154 
z
" clip-path="url(#pae798456fd)" style="fill: #2ca02c"/>
   </g>
   <g id="patch_74">
    <path d="M 455.815725 587.974431 
L 471.239558 587.974431 
L 471.239558 355.821521 
L 455.815725 355.821521 
z
" clip-path="url(#pae798456fd)" style="fill: #2ca02c"/>
   </g>
   <g id="patch_75">
    <path d="M 481.522113 645.954599 
L 496.945946 645.954599 
L 496.945946 355.82147 
L 481.522113 355.82147 
z
" clip-path="url(#pae798456fd)" style="fill: #2ca02c"/>
   </g>
   <g id="patch_76">
    <path d="M 507.228501 357.538467 
L 522.652334 357.538467 
L 522.652334 355.821566 
L 507.228501 355.821566 
z
" clip-path="url(#pae798456fd)" style="fill: #2ca02c"/>
   </g>
   <g id="patch_77">
    <path d="M 532.934889 687.432044 
L 548.358722 687.432044 
L 548.358722 355.82151 
L 532.934889 355.82151 
z
" clip-path="url(#pae798456fd)" style="fill: #2ca02c"/>
   </g>
   <g id="patch_78">
    <path d="M 558.641278 1105.319633 
L 574.065111 1105.319633 
L 574.065111 355.821525 
L 558.641278 355.821525 
z
" clip-path="url(#pae798456fd)" style="fill: #2ca02c"/>
   </g>
   <g id="patch_79">
    <path d="M 584.347666 938.558973 
L 599.771499 938.558973 
L 599.771499 355.82154 
L 584.347666 355.82154 
z
" clip-path="url(#pae798456fd)" style="fill: #2ca02c"/>
   </g>
   <g id="patch_80">
    <path d="M 610.054054 498.510331 
L 625.477887 498.510331 
L 625.477887 355.82154 
L 610.054054 355.82154 
z
" clip-path="url(#pae798456fd)" style="fill: #2ca02c"/>
   </g>
   <g id="patch_81">
    <path d="M 635.760442 501.751001 
L 651.184275 501.751001 
L 651.184275 355.82133 
L 635.760442 355.82133 
z
" clip-path="url(#pae798456fd)" style="fill: #2ca02c"/>
   </g>
   <g id="patch_82">
    <path d="M 661.46683 676.112541 
L 676.890663 676.112541 
L 676.890663 355.821435 
L 661.46683 355.821435 
z
" clip-path="url(#pae798456fd)" style="fill: #2ca02c"/>
   </g>
   <g id="patch_83">
    <path d="M 687.173219 379.303641 
L 702.597052 379.303641 
L 702.597052 355.82154 
L 687.173219 355.82154 
z
" clip-path="url(#pae798456fd)" style="fill: #2ca02c"/>
   </g>
   <g id="patch_84">
    <path d="M 712.879607 816.024164 
L 728.30344 816.024164 
L 728.30344 355.821526 
L 712.879607 355.821526 
z
" clip-path="url(#pae798456fd)" style="fill: #2ca02c"/>
   </g>
   <g id="patch_85">
    <path d="M 738.585995 477.568385 
L 754.009828 477.568385 
L 754.009828 355.821532 
L 738.585995 355.821532 
z
" clip-path="url(#pae798456fd)" style="fill: #2ca02c"/>
   </g>
   <g id="patch_86">
    <path d="M 764.292383 493.579057 
L 779.716216 493.579057 
L 779.716216 355.821629 
L 764.292383 355.821629 
z
" clip-path="url(#pae798456fd)" style="fill: #2ca02c"/>
   </g>
   <g id="patch_87">
    <path d="M 789.998771 457.834159 
L 805.422604 457.834159 
L 805.422604 355.821513 
L 789.998771 355.821513 
z
" clip-path="url(#pae798456fd)" style="fill: #2ca02c"/>
   </g>
   <g id="patch_88">
    <path d="M 815.70516 482.251634 
L 831.128993 482.251634 
L 831.128993 355.821447 
L 815.70516 355.821447 
z
" clip-path="url(#pae798456fd)" style="fill: #2ca02c"/>
   </g>
   <g id="patch_89">
    <path d="M 841.411548 495.575365 
L 856.835381 495.575365 
L 856.835381 355.821511 
L 841.411548 355.821511 
z
" clip-path="url(#pae798456fd)" style="fill: #2ca02c"/>
   </g>
   <g id="patch_90">
    <path d="M 867.117936 457.287051 
L 882.541769 457.287051 
L 882.541769 355.821428 
L 867.117936 355.821428 
z
" clip-path="url(#pae798456fd)" style="fill: #2ca02c"/>
   </g>
   <g id="patch_91">
    <path d="M 892.824324 454.903804 
L 908.248157 454.903804 
L 908.248157 355.821491 
L 892.824324 355.821491 
z
" clip-path="url(#pae798456fd)" style="fill: #2ca02c"/>
   </g>
   <g id="patch_92">
    <path d="M 918.530713 442.423067 
L 933.954545 442.423067 
L 933.954545 355.821464 
L 918.530713 355.821464 
z
" clip-path="url(#pae798456fd)" style="fill: #2ca02c"/>
   </g>
   <g id="matplotlib.axis_1">
    <g id="xtick_1">
     <g id="line2d_1">
      <defs>
       <path id="ma226da0007" d="M 0 0 
L 0 3.5 
" style="stroke: #000000; stroke-width: 0.8"/>
      </defs>
      <g>
       <use xlink:href="#ma226da0007" x="180.757371" y="1260" style="stroke: #000000; stroke-width: 0.8"/>
      </g>
     </g>
     <g id="text_1">
      <text style="font: 10px 'sans-serif'" transform="translate(183.516746 1308.914062)rotate(-90)">Armenia</text>
     </g>
    </g>
    <g id="xtick_2">
     <g id="line2d_2">
      <g>
       <use xlink:href="#ma226da0007" x="206.463759" y="1260" style="stroke: #000000; stroke-width: 0.8"/>
      </g>
     </g>
     <g id="text_2">
      <text style="font: 10px 'sans-serif'" transform="translate(209.223134 1319.851562)rotate(-90)">Azerbaijan</text>
     </g>
    </g>
    <g id="xtick_3">
     <g id="line2d_3">
      <g>
       <use xlink:href="#ma226da0007" x="232.170147" y="1260" style="stroke: #000000; stroke-width: 0.8"/>
      </g>
     </g>
     <g id="text_3">
      <text style="font: 10px 'sans-serif'" transform="translate(234.929522 1298.90625)rotate(-90)">Congo</text>
     </g>
    </g>
    <g id="xtick_4">
     <g id="line2d_4">
      <g>
       <use xlink:href="#ma226da0007" x="257.876536" y="1260" style="stroke: #000000; stroke-width: 0.8"/>
      </g>
     </g>
     <g id="text_4">
      <text style="font: 10px 'sans-serif'" transform="translate(260.635911 1301.907813)rotate(-90)">Cyprus</text>
     </g>
    </g>
    <g id="xtick_5">
     <g id="line2d_5">
      <g>
       <use xlink:href="#ma226da0007" x="283.582924" y="1260" style="stroke: #000000; stroke-width: 0.8"/>
      </g>
     </g>
     <g id="text_5">
      <text style="font: 10px 'sans-serif'" transform="translate(286.342299 1295.854687)rotate(-90)">Egypt</text>
     </g>
    </g>
    <g id="xtick_6">
     <g id="line2d_6">
      <g>
       <use xlink:href="#ma226da0007" x="309.289312" y="1260" style="stroke: #000000; stroke-width: 0.8"/>
      </g>
     </g>
     <g id="text_6">
      <text style="font: 10px 'sans-serif'" transform="translate(312.048687 1300.295312)rotate(-90)">Eritrea</text>
     </g>
    </g>
    <g id="xtick_7">
     <g id="line2d_7">
      <g>
       <use xlink:href="#ma226da0007" x="334.9957" y="1260" style="stroke: #000000; stroke-width: 0.8"/>
      </g>
     </g>
     <g id="text_7">
      <text style="font: 10px 'sans-serif'" transform="translate(337.755075 1307.728125)rotate(-90)">Ethiopia</text>
     </g>
    </g>
    <g id="xtick_8">
     <g id="line2d_8">
      <g>
       <use xlink:href="#ma226da0007" x="360.702088" y="1260" style="stroke: #000000; stroke-width: 0.8"/>
      </g>
     </g>
     <g id="text_8">
      <text style="font: 10px 'sans-serif'" transform="translate(363.461463 1306.210938)rotate(-90)">Georgia</text>
     </g>
    </g>
    <g id="xtick_9">
     <g id="line2d_9">
      <g>
       <use xlink:href="#ma226da0007" x="386.408477" y="1260" style="stroke: #000000; stroke-width: 0.8"/>
      </g>
     </g>
     <g id="text_9">
      <text style="font: 10px 'sans-serif'" transform="translate(389.167852 1291.542187)rotate(-90)">India</text>
     </g>
    </g>
    <g id="xtick_10">
     <g id="line2d_10">
      <g>
       <use xlink:href="#ma226da0007" x="412.114865" y="1260" style="stroke: #000000; stroke-width: 0.8"/>
      </g>
     </g>
     <g id="text_10">
      <text style="font: 10px 'sans-serif'" transform="translate(414.87424 1286.526562)rotate(-90)">Iran</text>
     </g>
    </g>
    <g id="xtick_11">
     <g id="line2d_11">
      <g>
       <use xlink:href="#ma226da0007" x="437.821253" y="1260" style="stroke: #000000; stroke-width: 0.8"/>
      </g>
     </g>
     <g id="text_11">
      <text style="font: 10px 'sans-serif'" transform="translate(440.580628 1286.5375)rotate(-90)">Iraq</text>
     </g>
    </g>
    <g id="xtick_12">
     <g id="line2d_12">
      <g>
       <use xlink:href="#ma226da0007" x="463.527641" y="1260" style="stroke: #000000; stroke-width: 0.8"/>
      </g>
     </g>
     <g id="text_12">
      <text style="font: 10px 'sans-serif'" transform="translate(466.287016 1294.329688)rotate(-90)">Israel</text>
     </g>
    </g>
    <g id="xtick_13">
     <g id="line2d_13">
      <g>
       <use xlink:href="#ma226da0007" x="489.234029" y="1260" style="stroke: #000000; stroke-width: 0.8"/>
      </g>
     </g>
     <g id="text_13">
      <text style="font: 10px 'sans-serif'" transform="translate(491.993404 1298.81875)rotate(-90)">Jordan</text>
     </g>
    </g>
    <g id="xtick_14">
     <g id="line2d_14">
      <g>
       <use xlink:href="#ma226da0007" x="514.940418" y="1260" style="stroke: #000000; stroke-width: 0.8"/>
      </g>
     </g>
     <g id="text_14">
      <text style="font: 10px 'sans-serif'" transform="translate(517.699793 1297.595313)rotate(-90)">Kenya</text>
     </g>
    </g>
    <g id="xtick_15">
     <g id="line2d_15">
      <g>
       <use xlink:href="#ma226da0007" x="540.646806" y="1260" style="stroke: #000000; stroke-width: 0.8"/>
      </g>
     </g>
     <g id="text_15">
      <text style="font: 10px 'sans-serif'" transform="translate(543.406181 1309.820312)rotate(-90)">Lebanon</text>
     </g>
    </g>
    <g id="xtick_16">
     <g id="line2d_16">
      <g>
       <use xlink:href="#ma226da0007" x="566.353194" y="1260" style="stroke: #000000; stroke-width: 0.8"/>
      </g>
     </g>
     <g id="text_16">
      <text style="font: 10px 'sans-serif'" transform="translate(569.112569 1308.871875)rotate(-90)">Pakistan</text>
     </g>
    </g>
    <g id="xtick_17">
     <g id="line2d_17">
      <g>
       <use xlink:href="#ma226da0007" x="592.059582" y="1260" style="stroke: #000000; stroke-width: 0.8"/>
      </g>
     </g>
     <g id="text_17">
      <text style="font: 10px 'sans-serif'" transform="translate(594.818957 1299.160938)rotate(-90)">Russia</text>
     </g>
    </g>
    <g id="xtick_18">
     <g id="line2d_18">
      <g>
       <use xlink:href="#ma226da0007" x="617.765971" y="1260" style="stroke: #000000; stroke-width: 0.8"/>
      </g>
     </g>
     <g id="text_18">
      <text style="font: 10px 'sans-serif'" transform="translate(620.525346 1330.453125)rotate(-90)">Saudi Arabia</text>
     </g>
    </g>
    <g id="xtick_19">
     <g id="line2d_19">
      <g>
       <use xlink:href="#ma226da0007" x="643.472359" y="1260" style="stroke: #000000; stroke-width: 0.8"/>
      </g>
     </g>
     <g id="text_19">
      <text style="font: 10px 'sans-serif'" transform="translate(646.231734 1298.5)rotate(-90)">Sudan</text>
     </g>
    </g>
    <g id="xtick_20">
     <g id="line2d_20">
      <g>
       <use xlink:href="#ma226da0007" x="669.178747" y="1260" style="stroke: #000000; stroke-width: 0.8"/>
      </g>
     </g>
     <g id="text_20">
      <text style="font: 10px 'sans-serif'" transform="translate(671.938122 1292.284375)rotate(-90)">Syria</text>
     </g>
    </g>
    <g id="xtick_21">
     <g id="line2d_21">
      <g>
       <use xlink:href="#ma226da0007" x="694.885135" y="1260" style="stroke: #000000; stroke-width: 0.8"/>
      </g>
     </g>
     <g id="text_21">
      <text style="font: 10px 'sans-serif'" transform="translate(697.64451 1310.54375)rotate(-90)">Tanzania</text>
     </g>
    </g>
    <g id="xtick_22">
     <g id="line2d_22">
      <g>
       <use xlink:href="#ma226da0007" x="720.591523" y="1260" style="stroke: #000000; stroke-width: 0.8"/>
      </g>
     </g>
     <g id="text_22">
      <text style="font: 10px 'sans-serif'" transform="translate(723.350898 1299.54375)rotate(-90)">Turkey</text>
     </g>
    </g>
    <g id="xtick_23">
     <g id="line2d_23">
      <g>
       <use xlink:href="#ma226da0007" x="746.297912" y="1260" style="stroke: #000000; stroke-width: 0.8"/>
      </g>
     </g>
     <g id="text_23">
      <text style="font: 10px 'sans-serif'" transform="translate(749.057287 1300.167187)rotate(-90)">Yemen</text>
     </g>
    </g>
    <g id="xtick_24">
     <g id="line2d_24">
      <g>
       <use xlink:href="#ma226da0007" x="772.0043" y="1260" style="stroke: #000000; stroke-width: 0.8"/>
      </g>
     </g>
     <g id="text_24">
      <text style="font: 10px 'sans-serif'" transform="translate(774.763675 1329.040625)rotate(-90)">Yemen/Aden</text>
     </g>
    </g>
    <g id="xtick_25">
     <g id="line2d_25">
      <g>
       <use xlink:href="#ma226da0007" x="797.710688" y="1260" style="stroke: #000000; stroke-width: 0.8"/>
      </g>
     </g>
     <g id="text_25">
      <text style="font: 10px 'sans-serif'" transform="translate(800.470063 1340.875)rotate(-90)">Yemen/Aljanad</text>
     </g>
    </g>
    <g id="xtick_26">
     <g id="line2d_26">
      <g>
       <use xlink:href="#ma226da0007" x="823.417076" y="1260" style="stroke: #000000; stroke-width: 0.8"/>
      </g>
     </g>
     <g id="text_26">
      <text style="font: 10px 'sans-serif'" transform="translate(826.176451 1324.53125)rotate(-90)">Yemen/Azal</text>
     </g>
    </g>
    <g id="xtick_27">
     <g id="line2d_27">
      <g>
       <use xlink:href="#ma226da0007" x="849.123464" y="1260" style="stroke: #000000; stroke-width: 0.8"/>
      </g>
     </g>
     <g id="text_27">
      <text style="font: 10px 'sans-serif'" transform="translate(851.882839 1359.898438)rotate(-90)">Yemen/Hadramaut</text>
     </g>
    </g>
    <g id="xtick_28">
     <g id="line2d_28">
      <g>
       <use xlink:href="#ma226da0007" x="874.829853" y="1260" style="stroke: #000000; stroke-width: 0.8"/>
      </g>
     </g>
     <g id="text_28">
      <text style="font: 10px 'sans-serif'" transform="translate(877.589228 1354.603125)rotate(-90)">Yemen/Hudaydah</text>
     </g>
    </g>
    <g id="xtick_29">
     <g id="line2d_29">
      <g>
       <use xlink:href="#ma226da0007" x="900.536241" y="1260" style="stroke: #000000; stroke-width: 0.8"/>
      </g>
     </g>
     <g id="text_29">
      <text style="font: 10px 'sans-serif'" transform="translate(903.295616 1334.851562)rotate(-90)">Yemen/Sheba</text>
     </g>
    </g>
    <g id="xtick_30">
     <g id="line2d_30">
      <g>
       <use xlink:href="#ma226da0007" x="926.242629" y="1260" style="stroke: #000000; stroke-width: 0.8"/>
      </g>
     </g>
     <g id="text_30">
      <text style="font: 10px 'sans-serif'" transform="translate(929.002004 1342.665625)rotate(-90)">Yemen/Tahamh</text>
     </g>
    </g>
   </g>
   <g id="matplotlib.axis_2">
    <g id="ytick_1">
     <g id="line2d_31">
      <defs>
       <path id="m7c61952e53" d="M 0 0 
L -3.5 0 
" style="stroke: #000000; stroke-width: 0.8"/>
      </defs>
      <g>
       <use xlink:href="#m7c61952e53" x="135" y="1196.544051" style="stroke: #000000; stroke-width: 0.8"/>
      </g>
     </g>
     <g id="text_31">
      <text style="font: 10px 'sans-serif'; text-anchor: end" x="128" y="1200.34327" transform="rotate(-0, 128, 1200.34327)">0.0</text>
     </g>
    </g>
    <g id="ytick_2">
     <g id="line2d_32">
      <g>
       <use xlink:href="#m7c61952e53" x="135" y="1028.399549" style="stroke: #000000; stroke-width: 0.8"/>
      </g>
     </g>
     <g id="text_32">
      <text style="font: 10px 'sans-serif'; text-anchor: end" x="128" y="1032.198768" transform="rotate(-0, 128, 1032.198768)">0.2</text>
     </g>
    </g>
    <g id="ytick_3">
     <g id="line2d_33">
      <g>
       <use xlink:href="#m7c61952e53" x="135" y="860.255047" style="stroke: #000000; stroke-width: 0.8"/>
      </g>
     </g>
     <g id="text_33">
      <text style="font: 10px 'sans-serif'; text-anchor: end" x="128" y="864.054266" transform="rotate(-0, 128, 864.054266)">0.4</text>
     </g>
    </g>
    <g id="ytick_4">
     <g id="line2d_34">
      <g>
       <use xlink:href="#m7c61952e53" x="135" y="692.110545" style="stroke: #000000; stroke-width: 0.8"/>
      </g>
     </g>
     <g id="text_34">
      <text style="font: 10px 'sans-serif'; text-anchor: end" x="128" y="695.909764" transform="rotate(-0, 128, 695.909764)">0.6</text>
     </g>
    </g>
    <g id="ytick_5">
     <g id="line2d_35">
      <g>
       <use xlink:href="#m7c61952e53" x="135" y="523.966043" style="stroke: #000000; stroke-width: 0.8"/>
      </g>
     </g>
     <g id="text_35">
      <text style="font: 10px 'sans-serif'; text-anchor: end" x="128" y="527.765261" transform="rotate(-0, 128, 527.765261)">0.8</text>
     </g>
    </g>
    <g id="ytick_6">
     <g id="line2d_36">
      <g>
       <use xlink:href="#m7c61952e53" x="135" y="355.82154" style="stroke: #000000; stroke-width: 0.8"/>
      </g>
     </g>
     <g id="text_36">
      <text style="font: 10px 'sans-serif'; text-anchor: end" x="128" y="359.620759" transform="rotate(-0, 128, 359.620759)">1.0</text>
     </g>
    </g>
    <g id="ytick_7">
     <g id="line2d_37">
      <g>
       <use xlink:href="#m7c61952e53" x="135" y="187.677038" style="stroke: #000000; stroke-width: 0.8"/>
      </g>
     </g>
     <g id="text_37">
      <text style="font: 10px 'sans-serif'; text-anchor: end" x="128" y="191.476257" transform="rotate(-0, 128, 191.476257)">1.2</text>
     </g>
    </g>
   </g>
   <g id="LineCollection_1">
    <path d="M 180.757371 1185.145912 
L 180.757371 1185.145912 
" clip-path="url(#pae798456fd)" style="fill: none; stroke: #333333; stroke-width: 1.5"/>
    <path d="M 206.463759 1191.132811 
L 206.463759 1191.132811 
" clip-path="url(#pae798456fd)" style="fill: none; stroke: #333333; stroke-width: 1.5"/>
    <path d="M 232.170147 355.838355 
L 232.170147 355.838355 
" clip-path="url(#pae798456fd)" style="fill: none; stroke: #333333; stroke-width: 1.5"/>
    <path d="M 257.876536 1195.190488 
L 257.876536 1195.190488 
" clip-path="url(#pae798456fd)" style="fill: none; stroke: #333333; stroke-width: 1.5"/>
    <path d="M 283.582924 1074.279832 
L 283.582924 1074.279832 
" clip-path="url(#pae798456fd)" style="fill: none; stroke: #333333; stroke-width: 1.5"/>
    <path d="M 309.289312 857.992383 
L 309.289312 857.992383 
" clip-path="url(#pae798456fd)" style="fill: none; stroke: #333333; stroke-width: 1.5"/>
    <path d="M 334.9957 817.494079 
L 334.9957 817.494079 
" clip-path="url(#pae798456fd)" style="fill: none; stroke: #333333; stroke-width: 1.5"/>
    <path d="M 360.702088 1196.281746 
L 360.702088 1196.281746 
" clip-path="url(#pae798456fd)" style="fill: none; stroke: #333333; stroke-width: 1.5"/>
    <path d="M 386.408477 1154.380933 
L 386.408477 1154.380933 
" clip-path="url(#pae798456fd)" style="fill: none; stroke: #333333; stroke-width: 1.5"/>
    <path d="M 412.114865 1182.316897 
L 412.114865 1182.316897 
" clip-path="url(#pae798456fd)" style="fill: none; stroke: #333333; stroke-width: 1.5"/>
    <path d="M 437.821253 1195.804674 
L 437.821253 1195.804674 
" clip-path="url(#pae798456fd)" style="fill: none; stroke: #333333; stroke-width: 1.5"/>
    <path d="M 463.527641 1153.236058 
L 463.527641 1153.236058 
" clip-path="url(#pae798456fd)" style="fill: none; stroke: #333333; stroke-width: 1.5"/>
    <path d="M 489.234029 1142.960042 
L 489.234029 1142.960042 
" clip-path="url(#pae798456fd)" style="fill: none; stroke: #333333; stroke-width: 1.5"/>
    <path d="M 514.940418 539.821153 
L 514.940418 328.962117 
" clip-path="url(#pae798456fd)" style="fill: none; stroke: #333333; stroke-width: 1.5"/>
    <path d="M 540.646806 1174.311745 
L 540.646806 1174.311745 
" clip-path="url(#pae798456fd)" style="fill: none; stroke: #333333; stroke-width: 1.5"/>
    <path d="M 566.353194 1169.315677 
L 566.353194 1169.315677 
" clip-path="url(#pae798456fd)" style="fill: none; stroke: #333333; stroke-width: 1.5"/>
    <path d="M 592.059582 1196.392977 
L 592.059582 1196.392977 
" clip-path="url(#pae798456fd)" style="fill: none; stroke: #333333; stroke-width: 1.5"/>
    <path d="M 617.765971 1155.513955 
L 617.765971 1155.513955 
" clip-path="url(#pae798456fd)" style="fill: none; stroke: #333333; stroke-width: 1.5"/>
    <path d="M 643.472359 1210.581818 
L 643.472359 584.623949 
" clip-path="url(#pae798456fd)" style="fill: none; stroke: #333333; stroke-width: 1.5"/>
    <path d="M 669.178747 1145.983105 
L 669.178747 1145.983105 
" clip-path="url(#pae798456fd)" style="fill: none; stroke: #333333; stroke-width: 1.5"/>
    <path d="M 694.885135 634.443672 
L 694.885135 478.271607 
" clip-path="url(#pae798456fd)" style="fill: none; stroke: #333333; stroke-width: 1.5"/>
    <path d="M 720.591523 1192.193017 
L 720.591523 1192.193017 
" clip-path="url(#pae798456fd)" style="fill: none; stroke: #333333; stroke-width: 1.5"/>
    <path d="M 746.297912 1180.692407 
L 746.297912 1039.185864 
" clip-path="url(#pae798456fd)" style="fill: none; stroke: #333333; stroke-width: 1.5"/>
    <path d="M 772.0043 1124.551744 
L 772.0043 1124.551744 
" clip-path="url(#pae798456fd)" style="fill: none; stroke: #333333; stroke-width: 1.5"/>
    <path d="M 797.710688 1113.358193 
L 797.710688 1113.358193 
" clip-path="url(#pae798456fd)" style="fill: none; stroke: #333333; stroke-width: 1.5"/>
    <path d="M 823.417076 1131.976189 
L 823.417076 1131.976189 
" clip-path="url(#pae798456fd)" style="fill: none; stroke: #333333; stroke-width: 1.5"/>
    <path d="M 849.123464 1162.969853 
L 849.123464 958.754186 
" clip-path="url(#pae798456fd)" style="fill: none; stroke: #333333; stroke-width: 1.5"/>
    <path d="M 874.829853 1106.663405 
L 874.829853 1010.317301 
" clip-path="url(#pae798456fd)" style="fill: none; stroke: #333333; stroke-width: 1.5"/>
    <path d="M 900.536241 1173.444694 
L 900.536241 1081.082745 
" clip-path="url(#pae798456fd)" style="fill: none; stroke: #333333; stroke-width: 1.5"/>
    <path d="M 926.242629 1111.599589 
L 926.242629 1111.599589 
" clip-path="url(#pae798456fd)" style="fill: none; stroke: #333333; stroke-width: 1.5"/>
   </g>
   <g id="LineCollection_2">
    <path d="M 180.757371 829.552193 
L 180.757371 727.917512 
" clip-path="url(#pae798456fd)" style="fill: none; stroke: #000000; stroke-width: 1.5"/>
    <path d="M 206.463759 854.55642 
L 206.463759 854.55642 
" clip-path="url(#pae798456fd)" style="fill: none; stroke: #000000; stroke-width: 1.5"/>
    <path d="M 232.170147 355.829948 
L 232.170147 355.829948 
" clip-path="url(#pae798456fd)" style="fill: none; stroke: #000000; stroke-width: 1.5"/>
    <path d="M 257.876536 697.901862 
L 257.876536 697.901862 
" clip-path="url(#pae798456fd)" style="fill: none; stroke: #000000; stroke-width: 1.5"/>
    <path d="M 283.582924 543.51144 
L 283.582924 543.51144 
" clip-path="url(#pae798456fd)" style="fill: none; stroke: #000000; stroke-width: 1.5"/>
    <path d="M 309.289312 370.744926 
L 309.289312 370.744926 
" clip-path="url(#pae798456fd)" style="fill: none; stroke: #000000; stroke-width: 1.5"/>
    <path d="M 334.9957 364.950176 
L 334.9957 364.950176 
" clip-path="url(#pae798456fd)" style="fill: none; stroke: #000000; stroke-width: 1.5"/>
    <path d="M 360.702088 787.14507 
L 360.702088 787.14507 
" clip-path="url(#pae798456fd)" style="fill: none; stroke: #000000; stroke-width: 1.5"/>
    <path d="M 386.408477 1146.049151 
L 386.408477 1146.049151 
" clip-path="url(#pae798456fd)" style="fill: none; stroke: #000000; stroke-width: 1.5"/>
    <path d="M 412.114865 936.170784 
L 412.114865 785.901009 
" clip-path="url(#pae798456fd)" style="fill: none; stroke: #000000; stroke-width: 1.5"/>
    <path d="M 437.821253 728.762148 
L 437.821253 728.762148 
" clip-path="url(#pae798456fd)" style="fill: none; stroke: #000000; stroke-width: 1.5"/>
    <path d="M 463.527641 687.134154 
L 463.527641 488.814708 
" clip-path="url(#pae798456fd)" style="fill: none; stroke: #000000; stroke-width: 1.5"/>
    <path d="M 489.234029 645.954599 
L 489.234029 645.954599 
" clip-path="url(#pae798456fd)" style="fill: none; stroke: #000000; stroke-width: 1.5"/>
    <path d="M 514.940418 462.832122 
L 514.940418 252.244812 
" clip-path="url(#pae798456fd)" style="fill: none; stroke: #000000; stroke-width: 1.5"/>
    <path d="M 540.646806 687.432044 
L 540.646806 687.432044 
" clip-path="url(#pae798456fd)" style="fill: none; stroke: #000000; stroke-width: 1.5"/>
    <path d="M 566.353194 1105.319633 
L 566.353194 1105.319633 
" clip-path="url(#pae798456fd)" style="fill: none; stroke: #000000; stroke-width: 1.5"/>
    <path d="M 592.059582 992.417464 
L 592.059582 884.700483 
" clip-path="url(#pae798456fd)" style="fill: none; stroke: #000000; stroke-width: 1.5"/>
    <path d="M 617.765971 602.048487 
L 617.765971 394.972176 
" clip-path="url(#pae798456fd)" style="fill: none; stroke: #000000; stroke-width: 1.5"/>
    <path d="M 643.472359 719.833312 
L 643.472359 283.66869 
" clip-path="url(#pae798456fd)" style="fill: none; stroke: #000000; stroke-width: 1.5"/>
    <path d="M 669.178747 676.112541 
L 669.178747 676.112541 
" clip-path="url(#pae798456fd)" style="fill: none; stroke: #000000; stroke-width: 1.5"/>
    <path d="M 694.885135 479.15171 
L 694.885135 279.455571 
" clip-path="url(#pae798456fd)" style="fill: none; stroke: #000000; stroke-width: 1.5"/>
    <path d="M 720.591523 816.024164 
L 720.591523 816.024164 
" clip-path="url(#pae798456fd)" style="fill: none; stroke: #000000; stroke-width: 1.5"/>
    <path d="M 746.297912 572.417606 
L 746.297912 382.719164 
" clip-path="url(#pae798456fd)" style="fill: none; stroke: #000000; stroke-width: 1.5"/>
    <path d="M 772.0043 605.744266 
L 772.0043 381.413847 
" clip-path="url(#pae798456fd)" style="fill: none; stroke: #000000; stroke-width: 1.5"/>
    <path d="M 797.710688 457.834159 
L 797.710688 457.834159 
" clip-path="url(#pae798456fd)" style="fill: none; stroke: #000000; stroke-width: 1.5"/>
    <path d="M 823.417076 482.251634 
L 823.417076 482.251634 
" clip-path="url(#pae798456fd)" style="fill: none; stroke: #000000; stroke-width: 1.5"/>
    <path d="M 849.123464 619.124023 
L 849.123464 372.026707 
" clip-path="url(#pae798456fd)" style="fill: none; stroke: #000000; stroke-width: 1.5"/>
    <path d="M 874.829853 515.57282 
L 874.829853 399.001282 
" clip-path="url(#pae798456fd)" style="fill: none; stroke: #000000; stroke-width: 1.5"/>
    <path d="M 900.536241 528.890159 
L 900.536241 380.917449 
" clip-path="url(#pae798456fd)" style="fill: none; stroke: #000000; stroke-width: 1.5"/>
    <path d="M 926.242629 442.423067 
L 926.242629 442.423067 
" clip-path="url(#pae798456fd)" style="fill: none; stroke: #000000; stroke-width: 1.5"/>
   </g>
   <g id="LineCollection_3">
    <path d="M 180.757371 431.657383 
L 180.757371 279.985639 
" clip-path="url(#pae798456fd)" style="fill: none; stroke: #333333; stroke-width: 1.5"/>
    <path d="M 206.463759 355.82154 
L 206.463759 355.82154 
" clip-path="url(#pae798456fd)" style="fill: none; stroke: #333333; stroke-width: 1.5"/>
    <path d="M 232.170147 355.82154 
L 232.170147 355.82154 
" clip-path="url(#pae798456fd)" style="fill: none; stroke: #333333; stroke-width: 1.5"/>
    <path d="M 257.876536 355.82154 
L 257.876536 355.82154 
" clip-path="url(#pae798456fd)" style="fill: none; stroke: #333333; stroke-width: 1.5"/>
    <path d="M 283.582924 355.8214 
L 283.582924 355.8214 
" clip-path="url(#pae798456fd)" style="fill: none; stroke: #333333; stroke-width: 1.5"/>
    <path d="M 309.289312 355.82126 
L 309.289312 355.82126 
" clip-path="url(#pae798456fd)" style="fill: none; stroke: #333333; stroke-width: 1.5"/>
    <path d="M 334.9957 355.82133 
L 334.9957 355.82133 
" clip-path="url(#pae798456fd)" style="fill: none; stroke: #333333; stroke-width: 1.5"/>
    <path d="M 360.702088 355.82154 
L 360.702088 355.82154 
" clip-path="url(#pae798456fd)" style="fill: none; stroke: #333333; stroke-width: 1.5"/>
    <path d="M 386.408477 355.821496 
L 386.408477 355.821496 
" clip-path="url(#pae798456fd)" style="fill: none; stroke: #333333; stroke-width: 1.5"/>
    <path d="M 412.114865 420.130474 
L 412.114865 291.512663 
" clip-path="url(#pae798456fd)" style="fill: none; stroke: #333333; stroke-width: 1.5"/>
    <path d="M 437.821253 355.82154 
L 437.821253 355.82154 
" clip-path="url(#pae798456fd)" style="fill: none; stroke: #333333; stroke-width: 1.5"/>
    <path d="M 463.527641 462.349017 
L 463.527641 249.294024 
" clip-path="url(#pae798456fd)" style="fill: none; stroke: #333333; stroke-width: 1.5"/>
    <path d="M 489.234029 355.82147 
L 489.234029 355.82147 
" clip-path="url(#pae798456fd)" style="fill: none; stroke: #333333; stroke-width: 1.5"/>
    <path d="M 514.940418 355.821566 
L 514.940418 355.821566 
" clip-path="url(#pae798456fd)" style="fill: none; stroke: #333333; stroke-width: 1.5"/>
    <path d="M 540.646806 355.82151 
L 540.646806 355.82151 
" clip-path="url(#pae798456fd)" style="fill: none; stroke: #333333; stroke-width: 1.5"/>
    <path d="M 566.353194 403.999475 
L 566.353194 307.643576 
" clip-path="url(#pae798456fd)" style="fill: none; stroke: #333333; stroke-width: 1.5"/>
    <path d="M 592.059582 409.803036 
L 592.059582 301.840045 
" clip-path="url(#pae798456fd)" style="fill: none; stroke: #333333; stroke-width: 1.5"/>
    <path d="M 617.765971 464.424065 
L 617.765971 247.219016 
" clip-path="url(#pae798456fd)" style="fill: none; stroke: #333333; stroke-width: 1.5"/>
    <path d="M 643.472359 451.109071 
L 643.472359 260.53359 
" clip-path="url(#pae798456fd)" style="fill: none; stroke: #333333; stroke-width: 1.5"/>
    <path d="M 669.178747 355.821435 
L 669.178747 355.821435 
" clip-path="url(#pae798456fd)" style="fill: none; stroke: #333333; stroke-width: 1.5"/>
    <path d="M 694.885135 355.82154 
L 694.885135 355.82154 
" clip-path="url(#pae798456fd)" style="fill: none; stroke: #333333; stroke-width: 1.5"/>
    <path d="M 720.591523 355.821526 
L 720.591523 355.821526 
" clip-path="url(#pae798456fd)" style="fill: none; stroke: #333333; stroke-width: 1.5"/>
    <path d="M 746.297912 403.197356 
L 746.297912 308.445709 
" clip-path="url(#pae798456fd)" style="fill: none; stroke: #333333; stroke-width: 1.5"/>
    <path d="M 772.0043 489.425076 
L 772.0043 222.218182 
" clip-path="url(#pae798456fd)" style="fill: none; stroke: #333333; stroke-width: 1.5"/>
    <path d="M 797.710688 355.821513 
L 797.710688 355.821513 
" clip-path="url(#pae798456fd)" style="fill: none; stroke: #333333; stroke-width: 1.5"/>
    <path d="M 823.417076 355.821447 
L 823.417076 355.821447 
" clip-path="url(#pae798456fd)" style="fill: none; stroke: #333333; stroke-width: 1.5"/>
    <path d="M 849.123464 409.791225 
L 849.123464 301.851798 
" clip-path="url(#pae798456fd)" style="fill: none; stroke: #333333; stroke-width: 1.5"/>
    <path d="M 874.829853 355.821428 
L 874.829853 355.821428 
" clip-path="url(#pae798456fd)" style="fill: none; stroke: #333333; stroke-width: 1.5"/>
    <path d="M 900.536241 355.821491 
L 900.536241 355.821491 
" clip-path="url(#pae798456fd)" style="fill: none; stroke: #333333; stroke-width: 1.5"/>
    <path d="M 926.242629 355.821464 
L 926.242629 355.821464 
" clip-path="url(#pae798456fd)" style="fill: none; stroke: #333333; stroke-width: 1.5"/>
   </g>
   <g id="patch_93">
    <path d="M 135 1260 
L 135 172.8 
" style="fill: none; stroke: #000000; stroke-width: 0.8; stroke-linejoin: miter; stroke-linecap: square"/>
   </g>
   <g id="patch_94">
    <path d="M 972 1260 
L 972 172.8 
" style="fill: none; stroke: #000000; stroke-width: 0.8; stroke-linejoin: miter; stroke-linecap: square"/>
   </g>
   <g id="patch_95">
    <path d="M 135 1260 
L 972 1260 
" style="fill: none; stroke: #000000; stroke-width: 0.8; stroke-linejoin: miter; stroke-linecap: square"/>
   </g>
   <g id="patch_96">
    <path d="M 135 172.8 
L 972 172.8 
" style="fill: none; stroke: #000000; stroke-width: 0.8; stroke-linejoin: miter; stroke-linecap: square"/>
   </g>
  </g>
 </g>
 <defs>
  <clipPath id="pae798456fd">
   <rect x="135" y="172.8" width="837" height="1087.2"/>
  </clipPath>
 </defs>
</svg>
