<?xml version="1.0" encoding="utf-8" standalone="no"?>
<!DOCTYPE svg PUBLIC "-//W3C//DTD SVG 1.1//EN"
  "http://www.w3.org/Graphics/SVG/1.1/DTD/svg11.dtd">
<svg xmlns:xlink="http://www.w3.org/1999/xlink" width="1080pt" height="1440pt" viewBox="0 0 1080 1440" xmlns="http://www.w3.org/2000/svg" version="1.1">
 <metadata>
  <rdf:RDF xmlns:dc="http://purl.org/dc/elements/1.1/" xmlns:cc="http://creativecommons.org/ns#" xmlns:rdf="http://www.w3.org/1999/02/22-rdf-syntax-ns#">
   <cc:Work>
    <dc:type rdf:resource="http://purl.org/dc/dcmitype/StillImage"/>
    <dc:date>2022-07-03T18:20:16.646086</dc:date>
    <dc:format>image/svg+xml</dc:format>
    <dc:creator>
     <cc:Agent>
      <dc:title>Matplotlib v3.5.1, https://matplotlib.org/</dc:title>
     </cc:Agent>
    </dc:creator>
   </cc:Work>
  </rdf:RDF>
 </metadata>
 <defs>
  <style type="text/css">*{stroke-linejoin: round; stroke-linecap: butt}</style>
 </defs>
 <g id="figure_1">
  <g id="patch_1">
   <path d="M 0 1440 
L 1080 1440 
L 1080 0 
L 0 0 
L 0 1440 
z
" style="fill: none"/>
  </g>
  <g id="axes_1">
   <g id="patch_2">
    <path d="M 135 1260 
L 972 1260 
L 972 172.8 
L 135 172.8 
z
" style="fill: #ffffff"/>
   </g>
   <g id="patch_3">
    <path d="M 173.045455 1199.405797 
L 188.469287 1199.405797 
L 188.469287 1188.666187 
L 173.045455 1188.666187 
z
" clip-path="url(#p5a02dd14cf)" style="fill: #1f77b4"/>
   </g>
   <g id="patch_4">
    <path d="M 198.751843 1199.405797 
L 214.175676 1199.405797 
L 214.175676 1191.874339 
L 198.751843 1191.874339 
z
" clip-path="url(#p5a02dd14cf)" style="fill: #1f77b4"/>
   </g>
   <g id="patch_5">
    <path d="M 224.458231 1199.405797 
L 239.882064 1199.405797 
L 239.882064 488.87006 
L 224.458231 488.87006 
z
" clip-path="url(#p5a02dd14cf)" style="fill: #1f77b4"/>
   </g>
   <g id="patch_6">
    <path d="M 250.164619 1199.405797 
L 265.588452 1199.405797 
L 265.588452 1196.786825 
L 250.164619 1196.786825 
z
" clip-path="url(#p5a02dd14cf)" style="fill: #1f77b4"/>
   </g>
   <g id="patch_7">
    <path d="M 275.871007 1199.405797 
L 291.29484 1199.405797 
L 291.29484 1094.596228 
L 275.871007 1094.596228 
z
" clip-path="url(#p5a02dd14cf)" style="fill: #1f77b4"/>
   </g>
   <g id="patch_8">
    <path d="M 301.577396 1199.405797 
L 317.001229 1199.405797 
L 317.001229 910.438918 
L 301.577396 910.438918 
z
" clip-path="url(#p5a02dd14cf)" style="fill: #1f77b4"/>
   </g>
   <g id="patch_9">
    <path d="M 327.283784 1199.405797 
L 342.707617 1199.405797 
L 342.707617 876.034078 
L 327.283784 876.034078 
z
" clip-path="url(#p5a02dd14cf)" style="fill: #1f77b4"/>
   </g>
   <g id="patch_10">
    <path d="M 352.990172 1199.405797 
L 368.414005 1199.405797 
L 368.414005 1198.56641 
L 352.990172 1198.56641 
z
" clip-path="url(#p5a02dd14cf)" style="fill: #1f77b4"/>
   </g>
   <g id="patch_11">
    <path d="M 378.69656 1199.405797 
L 394.120393 1199.405797 
L 394.120393 1151.874595 
L 378.69656 1151.874595 
z
" clip-path="url(#p5a02dd14cf)" style="fill: #1f77b4"/>
   </g>
   <g id="patch_12">
    <path d="M 404.402948 1199.405797 
L 419.826781 1199.405797 
L 419.826781 1184.574767 
L 404.402948 1184.574767 
z
" clip-path="url(#p5a02dd14cf)" style="fill: #1f77b4"/>
   </g>
   <g id="patch_13">
    <path d="M 430.109337 1199.405797 
L 445.53317 1199.405797 
L 445.53317 1198.044333 
L 430.109337 1198.044333 
z
" clip-path="url(#p5a02dd14cf)" style="fill: #1f77b4"/>
   </g>
   <g id="patch_14">
    <path d="M 455.815725 1199.405797 
L 471.239558 1199.405797 
L 471.239558 1160.783243 
L 455.815725 1160.783243 
z
" clip-path="url(#p5a02dd14cf)" style="fill: #1f77b4"/>
   </g>
   <g id="patch_15">
    <path d="M 481.522113 1199.405797 
L 496.945946 1199.405797 
L 496.945946 1152.219772 
L 481.522113 1152.219772 
z
" clip-path="url(#p5a02dd14cf)" style="fill: #1f77b4"/>
   </g>
   <g id="patch_16">
    <path d="M 507.228501 1199.405797 
L 522.652334 1199.405797 
L 522.652334 549.266393 
L 507.228501 549.266393 
z
" clip-path="url(#p5a02dd14cf)" style="fill: #1f77b4"/>
   </g>
   <g id="patch_17">
    <path d="M 532.934889 1199.405797 
L 548.358722 1199.405797 
L 548.358722 1178.388854 
L 532.934889 1178.388854 
z
" clip-path="url(#p5a02dd14cf)" style="fill: #1f77b4"/>
   </g>
   <g id="patch_18">
    <path d="M 558.641278 1199.405797 
L 574.065111 1199.405797 
L 574.065111 1167.681838 
L 558.641278 1167.681838 
z
" clip-path="url(#p5a02dd14cf)" style="fill: #1f77b4"/>
   </g>
   <g id="patch_19">
    <path d="M 584.347666 1199.405797 
L 599.771499 1199.405797 
L 599.771499 1198.963201 
L 584.347666 1198.963201 
z
" clip-path="url(#p5a02dd14cf)" style="fill: #1f77b4"/>
   </g>
   <g id="patch_20">
    <path d="M 610.054054 1199.405797 
L 625.477887 1199.405797 
L 625.477887 1164.088621 
L 610.054054 1164.088621 
z
" clip-path="url(#p5a02dd14cf)" style="fill: #1f77b4"/>
   </g>
   <g id="patch_21">
    <path d="M 635.760442 1199.405797 
L 651.184275 1199.405797 
L 651.184275 943.937046 
L 635.760442 943.937046 
z
" clip-path="url(#p5a02dd14cf)" style="fill: #1f77b4"/>
   </g>
   <g id="patch_22">
    <path d="M 661.46683 1199.405797 
L 676.890663 1199.405797 
L 676.890663 1154.85787 
L 661.46683 1154.85787 
z
" clip-path="url(#p5a02dd14cf)" style="fill: #1f77b4"/>
   </g>
   <g id="patch_23">
    <path d="M 687.173219 1199.405797 
L 702.597052 1199.405797 
L 702.597052 652.951252 
L 687.173219 652.951252 
z
" clip-path="url(#p5a02dd14cf)" style="fill: #1f77b4"/>
   </g>
   <g id="patch_24">
    <path d="M 712.879607 1199.405797 
L 728.30344 1199.405797 
L 728.30344 1193.858664 
L 712.879607 1193.858664 
z
" clip-path="url(#p5a02dd14cf)" style="fill: #1f77b4"/>
   </g>
   <g id="patch_25">
    <path d="M 738.585995 1199.405797 
L 754.009828 1199.405797 
L 754.009828 1125.777744 
L 738.585995 1125.777744 
z
" clip-path="url(#p5a02dd14cf)" style="fill: #1f77b4"/>
   </g>
   <g id="patch_26">
    <path d="M 764.292383 1199.405797 
L 779.716216 1199.405797 
L 779.716216 1138.647167 
L 764.292383 1138.647167 
z
" clip-path="url(#p5a02dd14cf)" style="fill: #1f77b4"/>
   </g>
   <g id="patch_27">
    <path d="M 789.998771 1199.405797 
L 805.422604 1199.405797 
L 805.422604 1128.808301 
L 789.998771 1128.808301 
z
" clip-path="url(#p5a02dd14cf)" style="fill: #1f77b4"/>
   </g>
   <g id="patch_28">
    <path d="M 815.70516 1199.405797 
L 831.128993 1199.405797 
L 831.128993 1144.588654 
L 815.70516 1144.588654 
z
" clip-path="url(#p5a02dd14cf)" style="fill: #1f77b4"/>
   </g>
   <g id="patch_29">
    <path d="M 841.411548 1199.405797 
L 856.835381 1199.405797 
L 856.835381 1083.569869 
L 841.411548 1083.569869 
z
" clip-path="url(#p5a02dd14cf)" style="fill: #1f77b4"/>
   </g>
   <g id="patch_30">
    <path d="M 867.117936 1199.405797 
L 882.541769 1199.405797 
L 882.541769 1082.061613 
L 867.117936 1082.061613 
z
" clip-path="url(#p5a02dd14cf)" style="fill: #1f77b4"/>
   </g>
   <g id="patch_31">
    <path d="M 892.824324 1199.405797 
L 908.248157 1199.405797 
L 908.248157 1140.898613 
L 892.824324 1140.898613 
z
" clip-path="url(#p5a02dd14cf)" style="fill: #1f77b4"/>
   </g>
   <g id="patch_32">
    <path d="M 918.530713 1199.405797 
L 933.954545 1199.405797 
L 933.954545 1127.553961 
L 918.530713 1127.553961 
z
" clip-path="url(#p5a02dd14cf)" style="fill: #1f77b4"/>
   </g>
   <g id="patch_33">
    <path d="M 173.045455 1188.666187 
L 188.469287 1188.666187 
L 188.469287 488.862954 
L 173.045455 488.862954 
z
" clip-path="url(#p5a02dd14cf)" style="fill: #ff7f0e"/>
   </g>
   <g id="patch_34">
    <path d="M 198.751843 1191.874339 
L 214.175676 1191.874339 
L 214.175676 488.862954 
L 198.751843 488.862954 
z
" clip-path="url(#p5a02dd14cf)" style="fill: #ff7f0e"/>
   </g>
   <g id="patch_35">
    <path d="M 224.458231 488.87006 
L 239.882064 488.87006 
L 239.882064 488.862954 
L 224.458231 488.862954 
z
" clip-path="url(#p5a02dd14cf)" style="fill: #ff7f0e"/>
   </g>
   <g id="patch_36">
    <path d="M 250.164619 1196.786825 
L 265.588452 1196.786825 
L 265.588452 488.862954 
L 250.164619 488.862954 
z
" clip-path="url(#p5a02dd14cf)" style="fill: #ff7f0e"/>
   </g>
   <g id="patch_37">
    <path d="M 275.871007 1094.596228 
L 291.29484 1094.596228 
L 291.29484 488.862954 
L 275.871007 488.862954 
z
" clip-path="url(#p5a02dd14cf)" style="fill: #ff7f0e"/>
   </g>
   <g id="patch_38">
    <path d="M 301.577396 910.438918 
L 317.001229 910.438918 
L 317.001229 488.862954 
L 301.577396 488.862954 
z
" clip-path="url(#p5a02dd14cf)" style="fill: #ff7f0e"/>
   </g>
   <g id="patch_39">
    <path d="M 327.283784 876.034078 
L 342.707617 876.034078 
L 342.707617 488.862954 
L 327.283784 488.862954 
z
" clip-path="url(#p5a02dd14cf)" style="fill: #ff7f0e"/>
   </g>
   <g id="patch_40">
    <path d="M 352.990172 1198.56641 
L 368.414005 1198.56641 
L 368.414005 488.862954 
L 352.990172 488.862954 
z
" clip-path="url(#p5a02dd14cf)" style="fill: #ff7f0e"/>
   </g>
   <g id="patch_41">
    <path d="M 378.69656 1151.874595 
L 394.120393 1151.874595 
L 394.120393 488.862954 
L 378.69656 488.862954 
z
" clip-path="url(#p5a02dd14cf)" style="fill: #ff7f0e"/>
   </g>
   <g id="patch_42">
    <path d="M 404.402948 1184.574767 
L 419.826781 1184.574767 
L 419.826781 488.862954 
L 404.402948 488.862954 
z
" clip-path="url(#p5a02dd14cf)" style="fill: #ff7f0e"/>
   </g>
   <g id="patch_43">
    <path d="M 430.109337 1198.044333 
L 445.53317 1198.044333 
L 445.53317 488.862954 
L 430.109337 488.862954 
z
" clip-path="url(#p5a02dd14cf)" style="fill: #ff7f0e"/>
   </g>
   <g id="patch_44">
    <path d="M 455.815725 1160.783243 
L 471.239558 1160.783243 
L 471.239558 488.862954 
L 455.815725 488.862954 
z
" clip-path="url(#p5a02dd14cf)" style="fill: #ff7f0e"/>
   </g>
   <g id="patch_45">
    <path d="M 481.522113 1152.219772 
L 496.945946 1152.219772 
L 496.945946 488.862954 
L 481.522113 488.862954 
z
" clip-path="url(#p5a02dd14cf)" style="fill: #ff7f0e"/>
   </g>
   <g id="patch_46">
    <path d="M 507.228501 549.266393 
L 522.652334 549.266393 
L 522.652334 488.862954 
L 507.228501 488.862954 
z
" clip-path="url(#p5a02dd14cf)" style="fill: #ff7f0e"/>
   </g>
   <g id="patch_47">
    <path d="M 532.934889 1178.388854 
L 548.358722 1178.388854 
L 548.358722 488.862954 
L 532.934889 488.862954 
z
" clip-path="url(#p5a02dd14cf)" style="fill: #ff7f0e"/>
   </g>
   <g id="patch_48">
    <path d="M 558.641278 1167.681838 
L 574.065111 1167.681838 
L 574.065111 488.862954 
L 558.641278 488.862954 
z
" clip-path="url(#p5a02dd14cf)" style="fill: #ff7f0e"/>
   </g>
   <g id="patch_49">
    <path d="M 584.347666 1198.963201 
L 599.771499 1198.963201 
L 599.771499 488.862954 
L 584.347666 488.862954 
z
" clip-path="url(#p5a02dd14cf)" style="fill: #ff7f0e"/>
   </g>
   <g id="patch_50">
    <path d="M 610.054054 1164.088621 
L 625.477887 1164.088621 
L 625.477887 488.862954 
L 610.054054 488.862954 
z
" clip-path="url(#p5a02dd14cf)" style="fill: #ff7f0e"/>
   </g>
   <g id="patch_51">
    <path d="M 635.760442 943.937046 
L 651.184275 943.937046 
L 651.184275 488.862954 
L 635.760442 488.862954 
z
" clip-path="url(#p5a02dd14cf)" style="fill: #ff7f0e"/>
   </g>
   <g id="patch_52">
    <path d="M 661.46683 1154.85787 
L 676.890663 1154.85787 
L 676.890663 488.862954 
L 661.46683 488.862954 
z
" clip-path="url(#p5a02dd14cf)" style="fill: #ff7f0e"/>
   </g>
   <g id="patch_53">
    <path d="M 687.173219 652.951252 
L 702.597052 652.951252 
L 702.597052 488.862954 
L 687.173219 488.862954 
z
" clip-path="url(#p5a02dd14cf)" style="fill: #ff7f0e"/>
   </g>
   <g id="patch_54">
    <path d="M 712.879607 1193.858664 
L 728.30344 1193.858664 
L 728.30344 488.862954 
L 712.879607 488.862954 
z
" clip-path="url(#p5a02dd14cf)" style="fill: #ff7f0e"/>
   </g>
   <g id="patch_55">
    <path d="M 738.585995 1125.777744 
L 754.009828 1125.777744 
L 754.009828 488.862954 
L 738.585995 488.862954 
z
" clip-path="url(#p5a02dd14cf)" style="fill: #ff7f0e"/>
   </g>
   <g id="patch_56">
    <path d="M 764.292383 1138.647167 
L 779.716216 1138.647167 
L 779.716216 488.862954 
L 764.292383 488.862954 
z
" clip-path="url(#p5a02dd14cf)" style="fill: #ff7f0e"/>
   </g>
   <g id="patch_57">
    <path d="M 789.998771 1128.808301 
L 805.422604 1128.808301 
L 805.422604 488.862954 
L 789.998771 488.862954 
z
" clip-path="url(#p5a02dd14cf)" style="fill: #ff7f0e"/>
   </g>
   <g id="patch_58">
    <path d="M 815.70516 1144.588654 
L 831.128993 1144.588654 
L 831.128993 488.862954 
L 815.70516 488.862954 
z
" clip-path="url(#p5a02dd14cf)" style="fill: #ff7f0e"/>
   </g>
   <g id="patch_59">
    <path d="M 841.411548 1083.569869 
L 856.835381 1083.569869 
L 856.835381 488.862954 
L 841.411548 488.862954 
z
" clip-path="url(#p5a02dd14cf)" style="fill: #ff7f0e"/>
   </g>
   <g id="patch_60">
    <path d="M 867.117936 1082.061613 
L 882.541769 1082.061613 
L 882.541769 488.862954 
L 867.117936 488.862954 
z
" clip-path="url(#p5a02dd14cf)" style="fill: #ff7f0e"/>
   </g>
   <g id="patch_61">
    <path d="M 892.824324 1140.898613 
L 908.248157 1140.898613 
L 908.248157 488.862954 
L 892.824324 488.862954 
z
" clip-path="url(#p5a02dd14cf)" style="fill: #ff7f0e"/>
   </g>
   <g id="patch_62">
    <path d="M 918.530713 1127.553961 
L 933.954545 1127.553961 
L 933.954545 488.862954 
L 918.530713 488.862954 
z
" clip-path="url(#p5a02dd14cf)" style="fill: #ff7f0e"/>
   </g>
   <g id="matplotlib.axis_1">
    <g id="xtick_1">
     <g id="line2d_1">
      <defs>
       <path id="mbbb7a02fa8" d="M 0 0 
L 0 3.5 
" style="stroke: #000000; stroke-width: 0.8"/>
      </defs>
      <g>
       <use xlink:href="#mbbb7a02fa8" x="180.757371" y="1260" style="stroke: #000000; stroke-width: 0.8"/>
      </g>
     </g>
     <g id="text_1">
      <text style="font: 10px 'sans-serif'" transform="translate(183.516746 1308.914062)rotate(-90)">Armenia</text>
     </g>
    </g>
    <g id="xtick_2">
     <g id="line2d_2">
      <g>
       <use xlink:href="#mbbb7a02fa8" x="206.463759" y="1260" style="stroke: #000000; stroke-width: 0.8"/>
      </g>
     </g>
     <g id="text_2">
      <text style="font: 10px 'sans-serif'" transform="translate(209.223134 1319.851562)rotate(-90)">Azerbaijan</text>
     </g>
    </g>
    <g id="xtick_3">
     <g id="line2d_3">
      <g>
       <use xlink:href="#mbbb7a02fa8" x="232.170147" y="1260" style="stroke: #000000; stroke-width: 0.8"/>
      </g>
     </g>
     <g id="text_3">
      <text style="font: 10px 'sans-serif'" transform="translate(234.929522 1298.90625)rotate(-90)">Congo</text>
     </g>
    </g>
    <g id="xtick_4">
     <g id="line2d_4">
      <g>
       <use xlink:href="#mbbb7a02fa8" x="257.876536" y="1260" style="stroke: #000000; stroke-width: 0.8"/>
      </g>
     </g>
     <g id="text_4">
      <text style="font: 10px 'sans-serif'" transform="translate(260.635911 1301.907813)rotate(-90)">Cyprus</text>
     </g>
    </g>
    <g id="xtick_5">
     <g id="line2d_5">
      <g>
       <use xlink:href="#mbbb7a02fa8" x="283.582924" y="1260" style="stroke: #000000; stroke-width: 0.8"/>
      </g>
     </g>
     <g id="text_5">
      <text style="font: 10px 'sans-serif'" transform="translate(286.342299 1295.854687)rotate(-90)">Egypt</text>
     </g>
    </g>
    <g id="xtick_6">
     <g id="line2d_6">
      <g>
       <use xlink:href="#mbbb7a02fa8" x="309.289312" y="1260" style="stroke: #000000; stroke-width: 0.8"/>
      </g>
     </g>
     <g id="text_6">
      <text style="font: 10px 'sans-serif'" transform="translate(312.048687 1300.295312)rotate(-90)">Eritrea</text>
     </g>
    </g>
    <g id="xtick_7">
     <g id="line2d_7">
      <g>
       <use xlink:href="#mbbb7a02fa8" x="334.9957" y="1260" style="stroke: #000000; stroke-width: 0.8"/>
      </g>
     </g>
     <g id="text_7">
      <text style="font: 10px 'sans-serif'" transform="translate(337.755075 1307.728125)rotate(-90)">Ethiopia</text>
     </g>
    </g>
    <g id="xtick_8">
     <g id="line2d_8">
      <g>
       <use xlink:href="#mbbb7a02fa8" x="360.702088" y="1260" style="stroke: #000000; stroke-width: 0.8"/>
      </g>
     </g>
     <g id="text_8">
      <text style="font: 10px 'sans-serif'" transform="translate(363.461463 1306.210938)rotate(-90)">Georgia</text>
     </g>
    </g>
    <g id="xtick_9">
     <g id="line2d_9">
      <g>
       <use xlink:href="#mbbb7a02fa8" x="386.408477" y="1260" style="stroke: #000000; stroke-width: 0.8"/>
      </g>
     </g>
     <g id="text_9">
      <text style="font: 10px 'sans-serif'" transform="translate(389.167852 1291.542187)rotate(-90)">India</text>
     </g>
    </g>
    <g id="xtick_10">
     <g id="line2d_10">
      <g>
       <use xlink:href="#mbbb7a02fa8" x="412.114865" y="1260" style="stroke: #000000; stroke-width: 0.8"/>
      </g>
     </g>
     <g id="text_10">
      <text style="font: 10px 'sans-serif'" transform="translate(414.87424 1286.526562)rotate(-90)">Iran</text>
     </g>
    </g>
    <g id="xtick_11">
     <g id="line2d_11">
      <g>
       <use xlink:href="#mbbb7a02fa8" x="437.821253" y="1260" style="stroke: #000000; stroke-width: 0.8"/>
      </g>
     </g>
     <g id="text_11">
      <text style="font: 10px 'sans-serif'" transform="translate(440.580628 1286.5375)rotate(-90)">Iraq</text>
     </g>
    </g>
    <g id="xtick_12">
     <g id="line2d_12">
      <g>
       <use xlink:href="#mbbb7a02fa8" x="463.527641" y="1260" style="stroke: #000000; stroke-width: 0.8"/>
      </g>
     </g>
     <g id="text_12">
      <text style="font: 10px 'sans-serif'" transform="translate(466.287016 1294.329688)rotate(-90)">Israel</text>
     </g>
    </g>
    <g id="xtick_13">
     <g id="line2d_13">
      <g>
       <use xlink:href="#mbbb7a02fa8" x="489.234029" y="1260" style="stroke: #000000; stroke-width: 0.8"/>
      </g>
     </g>
     <g id="text_13">
      <text style="font: 10px 'sans-serif'" transform="translate(491.993404 1298.81875)rotate(-90)">Jordan</text>
     </g>
    </g>
    <g id="xtick_14">
     <g id="line2d_14">
      <g>
       <use xlink:href="#mbbb7a02fa8" x="514.940418" y="1260" style="stroke: #000000; stroke-width: 0.8"/>
      </g>
     </g>
     <g id="text_14">
      <text style="font: 10px 'sans-serif'" transform="translate(517.699793 1297.595313)rotate(-90)">Kenya</text>
     </g>
    </g>
    <g id="xtick_15">
     <g id="line2d_15">
      <g>
       <use xlink:href="#mbbb7a02fa8" x="540.646806" y="1260" style="stroke: #000000; stroke-width: 0.8"/>
      </g>
     </g>
     <g id="text_15">
      <text style="font: 10px 'sans-serif'" transform="translate(543.406181 1309.820312)rotate(-90)">Lebanon</text>
     </g>
    </g>
    <g id="xtick_16">
     <g id="line2d_16">
      <g>
       <use xlink:href="#mbbb7a02fa8" x="566.353194" y="1260" style="stroke: #000000; stroke-width: 0.8"/>
      </g>
     </g>
     <g id="text_16">
      <text style="font: 10px 'sans-serif'" transform="translate(569.112569 1308.871875)rotate(-90)">Pakistan</text>
     </g>
    </g>
    <g id="xtick_17">
     <g id="line2d_17">
      <g>
       <use xlink:href="#mbbb7a02fa8" x="592.059582" y="1260" style="stroke: #000000; stroke-width: 0.8"/>
      </g>
     </g>
     <g id="text_17">
      <text style="font: 10px 'sans-serif'" transform="translate(594.818957 1299.160938)rotate(-90)">Russia</text>
     </g>
    </g>
    <g id="xtick_18">
     <g id="line2d_18">
      <g>
       <use xlink:href="#mbbb7a02fa8" x="617.765971" y="1260" style="stroke: #000000; stroke-width: 0.8"/>
      </g>
     </g>
     <g id="text_18">
      <text style="font: 10px 'sans-serif'" transform="translate(620.525346 1330.453125)rotate(-90)">Saudi Arabia</text>
     </g>
    </g>
    <g id="xtick_19">
     <g id="line2d_19">
      <g>
       <use xlink:href="#mbbb7a02fa8" x="643.472359" y="1260" style="stroke: #000000; stroke-width: 0.8"/>
      </g>
     </g>
     <g id="text_19">
      <text style="font: 10px 'sans-serif'" transform="translate(646.231734 1298.5)rotate(-90)">Sudan</text>
     </g>
    </g>
    <g id="xtick_20">
     <g id="line2d_20">
      <g>
       <use xlink:href="#mbbb7a02fa8" x="669.178747" y="1260" style="stroke: #000000; stroke-width: 0.8"/>
      </g>
     </g>
     <g id="text_20">
      <text style="font: 10px 'sans-serif'" transform="translate(671.938122 1292.284375)rotate(-90)">Syria</text>
     </g>
    </g>
    <g id="xtick_21">
     <g id="line2d_21">
      <g>
       <use xlink:href="#mbbb7a02fa8" x="694.885135" y="1260" style="stroke: #000000; stroke-width: 0.8"/>
      </g>
     </g>
     <g id="text_21">
      <text style="font: 10px 'sans-serif'" transform="translate(697.64451 1310.54375)rotate(-90)">Tanzania</text>
     </g>
    </g>
    <g id="xtick_22">
     <g id="line2d_22">
      <g>
       <use xlink:href="#mbbb7a02fa8" x="720.591523" y="1260" style="stroke: #000000; stroke-width: 0.8"/>
      </g>
     </g>
     <g id="text_22">
      <text style="font: 10px 'sans-serif'" transform="translate(723.350898 1299.54375)rotate(-90)">Turkey</text>
     </g>
    </g>
    <g id="xtick_23">
     <g id="line2d_23">
      <g>
       <use xlink:href="#mbbb7a02fa8" x="746.297912" y="1260" style="stroke: #000000; stroke-width: 0.8"/>
      </g>
     </g>
     <g id="text_23">
      <text style="font: 10px 'sans-serif'" transform="translate(749.057287 1300.167187)rotate(-90)">Yemen</text>
     </g>
    </g>
    <g id="xtick_24">
     <g id="line2d_24">
      <g>
       <use xlink:href="#mbbb7a02fa8" x="772.0043" y="1260" style="stroke: #000000; stroke-width: 0.8"/>
      </g>
     </g>
     <g id="text_24">
      <text style="font: 10px 'sans-serif'" transform="translate(774.763675 1329.040625)rotate(-90)">Yemen/Aden</text>
     </g>
    </g>
    <g id="xtick_25">
     <g id="line2d_25">
      <g>
       <use xlink:href="#mbbb7a02fa8" x="797.710688" y="1260" style="stroke: #000000; stroke-width: 0.8"/>
      </g>
     </g>
     <g id="text_25">
      <text style="font: 10px 'sans-serif'" transform="translate(800.470063 1340.875)rotate(-90)">Yemen/Aljanad</text>
     </g>
    </g>
    <g id="xtick_26">
     <g id="line2d_26">
      <g>
       <use xlink:href="#mbbb7a02fa8" x="823.417076" y="1260" style="stroke: #000000; stroke-width: 0.8"/>
      </g>
     </g>
     <g id="text_26">
      <text style="font: 10px 'sans-serif'" transform="translate(826.176451 1324.53125)rotate(-90)">Yemen/Azal</text>
     </g>
    </g>
    <g id="xtick_27">
     <g id="line2d_27">
      <g>
       <use xlink:href="#mbbb7a02fa8" x="849.123464" y="1260" style="stroke: #000000; stroke-width: 0.8"/>
      </g>
     </g>
     <g id="text_27">
      <text style="font: 10px 'sans-serif'" transform="translate(851.882839 1359.898438)rotate(-90)">Yemen/Hadramaut</text>
     </g>
    </g>
    <g id="xtick_28">
     <g id="line2d_28">
      <g>
       <use xlink:href="#mbbb7a02fa8" x="874.829853" y="1260" style="stroke: #000000; stroke-width: 0.8"/>
      </g>
     </g>
     <g id="text_28">
      <text style="font: 10px 'sans-serif'" transform="translate(877.589228 1354.603125)rotate(-90)">Yemen/Hudaydah</text>
     </g>
    </g>
    <g id="xtick_29">
     <g id="line2d_29">
      <g>
       <use xlink:href="#mbbb7a02fa8" x="900.536241" y="1260" style="stroke: #000000; stroke-width: 0.8"/>
      </g>
     </g>
     <g id="text_29">
      <text style="font: 10px 'sans-serif'" transform="translate(903.295616 1334.851562)rotate(-90)">Yemen/Sheba</text>
     </g>
    </g>
    <g id="xtick_30">
     <g id="line2d_30">
      <g>
       <use xlink:href="#mbbb7a02fa8" x="926.242629" y="1260" style="stroke: #000000; stroke-width: 0.8"/>
      </g>
     </g>
     <g id="text_30">
      <text style="font: 10px 'sans-serif'" transform="translate(929.002004 1342.665625)rotate(-90)">Yemen/Tahamh</text>
     </g>
    </g>
   </g>
   <g id="matplotlib.axis_2">
    <g id="ytick_1">
     <g id="line2d_31">
      <defs>
       <path id="m741acfdf6d" d="M 0 0 
L -3.5 0 
" style="stroke: #000000; stroke-width: 0.8"/>
      </defs>
      <g>
       <use xlink:href="#m741acfdf6d" x="135" y="1199.405797" style="stroke: #000000; stroke-width: 0.8"/>
      </g>
     </g>
     <g id="text_31">
      <text style="font: 10px 'sans-serif'; text-anchor: end" x="128" y="1203.205016" transform="rotate(-0, 128, 1203.205016)">0.0</text>
     </g>
    </g>
    <g id="ytick_2">
     <g id="line2d_32">
      <g>
       <use xlink:href="#m741acfdf6d" x="135" y="1057.297229" style="stroke: #000000; stroke-width: 0.8"/>
      </g>
     </g>
     <g id="text_32">
      <text style="font: 10px 'sans-serif'; text-anchor: end" x="128" y="1061.096448" transform="rotate(-0, 128, 1061.096448)">0.2</text>
     </g>
    </g>
    <g id="ytick_3">
     <g id="line2d_33">
      <g>
       <use xlink:href="#m741acfdf6d" x="135" y="915.18866" style="stroke: #000000; stroke-width: 0.8"/>
      </g>
     </g>
     <g id="text_33">
      <text style="font: 10px 'sans-serif'; text-anchor: end" x="128" y="918.987879" transform="rotate(-0, 128, 918.987879)">0.4</text>
     </g>
    </g>
    <g id="ytick_4">
     <g id="line2d_34">
      <g>
       <use xlink:href="#m741acfdf6d" x="135" y="773.080091" style="stroke: #000000; stroke-width: 0.8"/>
      </g>
     </g>
     <g id="text_34">
      <text style="font: 10px 'sans-serif'; text-anchor: end" x="128" y="776.87931" transform="rotate(-0, 128, 776.87931)">0.6</text>
     </g>
    </g>
    <g id="ytick_5">
     <g id="line2d_35">
      <g>
       <use xlink:href="#m741acfdf6d" x="135" y="630.971523" style="stroke: #000000; stroke-width: 0.8"/>
      </g>
     </g>
     <g id="text_35">
      <text style="font: 10px 'sans-serif'; text-anchor: end" x="128" y="634.770742" transform="rotate(-0, 128, 634.770742)">0.8</text>
     </g>
    </g>
    <g id="ytick_6">
     <g id="line2d_36">
      <g>
       <use xlink:href="#m741acfdf6d" x="135" y="488.862954" style="stroke: #000000; stroke-width: 0.8"/>
      </g>
     </g>
     <g id="text_36">
      <text style="font: 10px 'sans-serif'; text-anchor: end" x="128" y="492.662173" transform="rotate(-0, 128, 492.662173)">1.0</text>
     </g>
    </g>
    <g id="ytick_7">
     <g id="line2d_37">
      <g>
       <use xlink:href="#m741acfdf6d" x="135" y="346.754385" style="stroke: #000000; stroke-width: 0.8"/>
      </g>
     </g>
     <g id="text_37">
      <text style="font: 10px 'sans-serif'; text-anchor: end" x="128" y="350.553604" transform="rotate(-0, 128, 350.553604)">1.2</text>
     </g>
    </g>
    <g id="ytick_8">
     <g id="line2d_38">
      <g>
       <use xlink:href="#m741acfdf6d" x="135" y="204.645817" style="stroke: #000000; stroke-width: 0.8"/>
      </g>
     </g>
     <g id="text_38">
      <text style="font: 10px 'sans-serif'; text-anchor: end" x="128" y="208.445035" transform="rotate(-0, 128, 208.445035)">1.4</text>
     </g>
    </g>
   </g>
   <g id="LineCollection_1">
    <path d="M 180.757371 1188.666187 
L 180.757371 1188.666187 
" clip-path="url(#p5a02dd14cf)" style="fill: none; stroke: #333333; stroke-width: 1.5"/>
    <path d="M 206.463759 1191.874339 
L 206.463759 1191.874339 
" clip-path="url(#p5a02dd14cf)" style="fill: none; stroke: #333333; stroke-width: 1.5"/>
    <path d="M 232.170147 488.87006 
L 232.170147 488.87006 
" clip-path="url(#p5a02dd14cf)" style="fill: none; stroke: #333333; stroke-width: 1.5"/>
    <path d="M 257.876536 1196.786825 
L 257.876536 1196.786825 
" clip-path="url(#p5a02dd14cf)" style="fill: none; stroke: #333333; stroke-width: 1.5"/>
    <path d="M 283.582924 1094.596228 
L 283.582924 1094.596228 
" clip-path="url(#p5a02dd14cf)" style="fill: none; stroke: #333333; stroke-width: 1.5"/>
    <path d="M 309.289312 910.438918 
L 309.289312 910.438918 
" clip-path="url(#p5a02dd14cf)" style="fill: none; stroke: #333333; stroke-width: 1.5"/>
    <path d="M 334.9957 876.034078 
L 334.9957 876.034078 
" clip-path="url(#p5a02dd14cf)" style="fill: none; stroke: #333333; stroke-width: 1.5"/>
    <path d="M 360.702088 1198.56641 
L 360.702088 1198.56641 
" clip-path="url(#p5a02dd14cf)" style="fill: none; stroke: #333333; stroke-width: 1.5"/>
    <path d="M 386.408477 1151.874595 
L 386.408477 1151.874595 
" clip-path="url(#p5a02dd14cf)" style="fill: none; stroke: #333333; stroke-width: 1.5"/>
    <path d="M 412.114865 1184.574767 
L 412.114865 1184.574767 
" clip-path="url(#p5a02dd14cf)" style="fill: none; stroke: #333333; stroke-width: 1.5"/>
    <path d="M 437.821253 1198.044333 
L 437.821253 1198.044333 
" clip-path="url(#p5a02dd14cf)" style="fill: none; stroke: #333333; stroke-width: 1.5"/>
    <path d="M 463.527641 1160.783243 
L 463.527641 1160.783243 
" clip-path="url(#p5a02dd14cf)" style="fill: none; stroke: #333333; stroke-width: 1.5"/>
    <path d="M 489.234029 1152.219772 
L 489.234029 1152.219772 
" clip-path="url(#p5a02dd14cf)" style="fill: none; stroke: #333333; stroke-width: 1.5"/>
    <path d="M 514.940418 638.270043 
L 514.940418 460.262742 
" clip-path="url(#p5a02dd14cf)" style="fill: none; stroke: #333333; stroke-width: 1.5"/>
    <path d="M 540.646806 1178.388854 
L 540.646806 1178.388854 
" clip-path="url(#p5a02dd14cf)" style="fill: none; stroke: #333333; stroke-width: 1.5"/>
    <path d="M 566.353194 1167.681838 
L 566.353194 1167.681838 
" clip-path="url(#p5a02dd14cf)" style="fill: none; stroke: #333333; stroke-width: 1.5"/>
    <path d="M 592.059582 1198.963201 
L 592.059582 1198.963201 
" clip-path="url(#p5a02dd14cf)" style="fill: none; stroke: #333333; stroke-width: 1.5"/>
    <path d="M 617.765971 1164.088621 
L 617.765971 1164.088621 
" clip-path="url(#p5a02dd14cf)" style="fill: none; stroke: #333333; stroke-width: 1.5"/>
    <path d="M 643.472359 1210.581818 
L 643.472359 677.292274 
" clip-path="url(#p5a02dd14cf)" style="fill: none; stroke: #333333; stroke-width: 1.5"/>
    <path d="M 669.178747 1154.85787 
L 669.178747 1154.85787 
" clip-path="url(#p5a02dd14cf)" style="fill: none; stroke: #333333; stroke-width: 1.5"/>
    <path d="M 694.885135 718.420545 
L 694.885135 587.481959 
" clip-path="url(#p5a02dd14cf)" style="fill: none; stroke: #333333; stroke-width: 1.5"/>
    <path d="M 720.591523 1193.858664 
L 720.591523 1193.858664 
" clip-path="url(#p5a02dd14cf)" style="fill: none; stroke: #333333; stroke-width: 1.5"/>
    <path d="M 746.297912 1186.375351 
L 746.297912 1065.180137 
" clip-path="url(#p5a02dd14cf)" style="fill: none; stroke: #333333; stroke-width: 1.5"/>
    <path d="M 772.0043 1138.647167 
L 772.0043 1138.647167 
" clip-path="url(#p5a02dd14cf)" style="fill: none; stroke: #333333; stroke-width: 1.5"/>
    <path d="M 797.710688 1128.808301 
L 797.710688 1128.808301 
" clip-path="url(#p5a02dd14cf)" style="fill: none; stroke: #333333; stroke-width: 1.5"/>
    <path d="M 823.417076 1144.588654 
L 823.417076 1144.588654 
" clip-path="url(#p5a02dd14cf)" style="fill: none; stroke: #333333; stroke-width: 1.5"/>
    <path d="M 849.123464 1170.940842 
L 849.123464 996.198896 
" clip-path="url(#p5a02dd14cf)" style="fill: none; stroke: #333333; stroke-width: 1.5"/>
    <path d="M 874.829853 1123.381278 
L 874.829853 1040.741948 
" clip-path="url(#p5a02dd14cf)" style="fill: none; stroke: #333333; stroke-width: 1.5"/>
    <path d="M 900.536241 1180.505638 
L 900.536241 1101.291588 
" clip-path="url(#p5a02dd14cf)" style="fill: none; stroke: #333333; stroke-width: 1.5"/>
    <path d="M 926.242629 1127.553961 
L 926.242629 1127.553961 
" clip-path="url(#p5a02dd14cf)" style="fill: none; stroke: #333333; stroke-width: 1.5"/>
   </g>
   <g id="LineCollection_2">
    <path d="M 180.757371 488.862954 
L 180.757371 488.862954 
" clip-path="url(#p5a02dd14cf)" style="fill: none; stroke: #000000; stroke-width: 1.5"/>
    <path d="M 206.463759 488.862954 
L 206.463759 488.862954 
" clip-path="url(#p5a02dd14cf)" style="fill: none; stroke: #000000; stroke-width: 1.5"/>
    <path d="M 232.170147 488.862954 
L 232.170147 488.862954 
" clip-path="url(#p5a02dd14cf)" style="fill: none; stroke: #000000; stroke-width: 1.5"/>
    <path d="M 257.876536 488.862954 
L 257.876536 488.862954 
" clip-path="url(#p5a02dd14cf)" style="fill: none; stroke: #000000; stroke-width: 1.5"/>
    <path d="M 283.582924 488.862954 
L 283.582924 488.862954 
" clip-path="url(#p5a02dd14cf)" style="fill: none; stroke: #000000; stroke-width: 1.5"/>
    <path d="M 309.289312 488.862954 
L 309.289312 488.862954 
" clip-path="url(#p5a02dd14cf)" style="fill: none; stroke: #000000; stroke-width: 1.5"/>
    <path d="M 334.9957 488.862954 
L 334.9957 488.862954 
" clip-path="url(#p5a02dd14cf)" style="fill: none; stroke: #000000; stroke-width: 1.5"/>
    <path d="M 360.702088 488.862954 
L 360.702088 488.862954 
" clip-path="url(#p5a02dd14cf)" style="fill: none; stroke: #000000; stroke-width: 1.5"/>
    <path d="M 386.408477 488.862954 
L 386.408477 488.862954 
" clip-path="url(#p5a02dd14cf)" style="fill: none; stroke: #000000; stroke-width: 1.5"/>
    <path d="M 412.114865 488.862954 
L 412.114865 488.862954 
" clip-path="url(#p5a02dd14cf)" style="fill: none; stroke: #000000; stroke-width: 1.5"/>
    <path d="M 437.821253 488.862954 
L 437.821253 488.862954 
" clip-path="url(#p5a02dd14cf)" style="fill: none; stroke: #000000; stroke-width: 1.5"/>
    <path d="M 463.527641 488.862954 
L 463.527641 488.862954 
" clip-path="url(#p5a02dd14cf)" style="fill: none; stroke: #000000; stroke-width: 1.5"/>
    <path d="M 489.234029 488.862954 
L 489.234029 488.862954 
" clip-path="url(#p5a02dd14cf)" style="fill: none; stroke: #000000; stroke-width: 1.5"/>
    <path d="M 514.940418 577.866605 
L 514.940418 399.859303 
" clip-path="url(#p5a02dd14cf)" style="fill: none; stroke: #000000; stroke-width: 1.5"/>
    <path d="M 540.646806 488.862954 
L 540.646806 488.862954 
" clip-path="url(#p5a02dd14cf)" style="fill: none; stroke: #000000; stroke-width: 1.5"/>
    <path d="M 566.353194 488.862954 
L 566.353194 488.862954 
" clip-path="url(#p5a02dd14cf)" style="fill: none; stroke: #000000; stroke-width: 1.5"/>
    <path d="M 592.059582 488.862954 
L 592.059582 488.862954 
" clip-path="url(#p5a02dd14cf)" style="fill: none; stroke: #000000; stroke-width: 1.5"/>
    <path d="M 617.765971 488.862954 
L 617.765971 488.862954 
" clip-path="url(#p5a02dd14cf)" style="fill: none; stroke: #000000; stroke-width: 1.5"/>
    <path d="M 643.472359 755.507726 
L 643.472359 222.218182 
" clip-path="url(#p5a02dd14cf)" style="fill: none; stroke: #000000; stroke-width: 1.5"/>
    <path d="M 669.178747 488.862954 
L 669.178747 488.862954 
" clip-path="url(#p5a02dd14cf)" style="fill: none; stroke: #000000; stroke-width: 1.5"/>
    <path d="M 694.885135 554.332247 
L 694.885135 423.393661 
" clip-path="url(#p5a02dd14cf)" style="fill: none; stroke: #000000; stroke-width: 1.5"/>
    <path d="M 720.591523 488.862954 
L 720.591523 488.862954 
" clip-path="url(#p5a02dd14cf)" style="fill: none; stroke: #000000; stroke-width: 1.5"/>
    <path d="M 746.297912 549.460561 
L 746.297912 428.265347 
" clip-path="url(#p5a02dd14cf)" style="fill: none; stroke: #000000; stroke-width: 1.5"/>
    <path d="M 772.0043 488.862954 
L 772.0043 488.862954 
" clip-path="url(#p5a02dd14cf)" style="fill: none; stroke: #000000; stroke-width: 1.5"/>
    <path d="M 797.710688 488.862954 
L 797.710688 488.862954 
" clip-path="url(#p5a02dd14cf)" style="fill: none; stroke: #000000; stroke-width: 1.5"/>
    <path d="M 823.417076 488.862954 
L 823.417076 488.862954 
" clip-path="url(#p5a02dd14cf)" style="fill: none; stroke: #000000; stroke-width: 1.5"/>
    <path d="M 849.123464 576.233927 
L 849.123464 401.491981 
" clip-path="url(#p5a02dd14cf)" style="fill: none; stroke: #000000; stroke-width: 1.5"/>
    <path d="M 874.829853 530.182619 
L 874.829853 447.543289 
" clip-path="url(#p5a02dd14cf)" style="fill: none; stroke: #000000; stroke-width: 1.5"/>
    <path d="M 900.536241 528.469979 
L 900.536241 449.255929 
" clip-path="url(#p5a02dd14cf)" style="fill: none; stroke: #000000; stroke-width: 1.5"/>
    <path d="M 926.242629 488.862954 
L 926.242629 488.862954 
" clip-path="url(#p5a02dd14cf)" style="fill: none; stroke: #000000; stroke-width: 1.5"/>
   </g>
   <g id="patch_63">
    <path d="M 135 1260 
L 135 172.8 
" style="fill: none; stroke: #000000; stroke-width: 0.8; stroke-linejoin: miter; stroke-linecap: square"/>
   </g>
   <g id="patch_64">
    <path d="M 972 1260 
L 972 172.8 
" style="fill: none; stroke: #000000; stroke-width: 0.8; stroke-linejoin: miter; stroke-linecap: square"/>
   </g>
   <g id="patch_65">
    <path d="M 135 1260 
L 972 1260 
" style="fill: none; stroke: #000000; stroke-width: 0.8; stroke-linejoin: miter; stroke-linecap: square"/>
   </g>
   <g id="patch_66">
    <path d="M 135 172.8 
L 972 172.8 
" style="fill: none; stroke: #000000; stroke-width: 0.8; stroke-linejoin: miter; stroke-linecap: square"/>
   </g>
  </g>
 </g>
 <defs>
  <clipPath id="p5a02dd14cf">
   <rect x="135" y="172.8" width="837" height="1087.2"/>
  </clipPath>
 </defs>
</svg>
