<?xml version="1.0" encoding="utf-8" standalone="no"?>
<!DOCTYPE svg PUBLIC "-//W3C//DTD SVG 1.1//EN"
  "http://www.w3.org/Graphics/SVG/1.1/DTD/svg11.dtd">
<svg xmlns:xlink="http://www.w3.org/1999/xlink" width="1152pt" height="864pt" viewBox="0 0 1152 864" xmlns="http://www.w3.org/2000/svg" version="1.1">
 <metadata>
  <rdf:RDF xmlns:dc="http://purl.org/dc/elements/1.1/" xmlns:cc="http://creativecommons.org/ns#" xmlns:rdf="http://www.w3.org/1999/02/22-rdf-syntax-ns#">
   <cc:Work>
    <dc:type rdf:resource="http://purl.org/dc/dcmitype/StillImage"/>
    <dc:date>2022-09-23T09:55:00.195607</dc:date>
    <dc:format>image/svg+xml</dc:format>
    <dc:creator>
     <cc:Agent>
      <dc:title>Matplotlib v3.5.1, https://matplotlib.org/</dc:title>
     </cc:Agent>
    </dc:creator>
   </cc:Work>
  </rdf:RDF>
 </metadata>
 <defs>
  <style type="text/css">*{stroke-linejoin: round; stroke-linecap: butt}</style>
 </defs>
 <g id="figure_1">
  <g id="patch_1">
   <path d="M 0 864 
L 1152 864 
L 1152 0 
L 0 0 
L 0 864 
z
" style="fill: none"/>
  </g>
  <g id="axes_1">
   <g id="patch_2">
    <path d="M 144 756 
L 1036.8 756 
L 1036.8 103.68 
L 144 103.68 
z
" style="fill: #ffffff"/>
   </g>
   <g id="patch_3">
    <path d="M 154.478873 756 
L 188.011268 756 
L 188.011268 750.64487 
L 154.478873 750.64487 
z
" clip-path="url(#pba3f2e2b9c)" style="fill: #1f77b4"/>
   </g>
   <g id="patch_4">
    <path d="M 196.394366 756 
L 229.926761 756 
L 229.926761 756 
L 196.394366 756 
z
" clip-path="url(#pba3f2e2b9c)" style="fill: #1f77b4"/>
   </g>
   <g id="patch_5">
    <path d="M 238.309859 756 
L 271.842254 756 
L 271.842254 731.152199 
L 238.309859 731.152199 
z
" clip-path="url(#pba3f2e2b9c)" style="fill: #1f77b4"/>
   </g>
   <g id="patch_6">
    <path d="M 280.225352 756 
L 313.757746 756 
L 313.757746 375.578242 
L 280.225352 375.578242 
z
" clip-path="url(#pba3f2e2b9c)" style="fill: #1f77b4"/>
   </g>
   <g id="patch_7">
    <path d="M 322.140845 756 
L 355.673239 756 
L 355.673239 430.612131 
L 322.140845 430.612131 
z
" clip-path="url(#pba3f2e2b9c)" style="fill: #1f77b4"/>
   </g>
   <g id="patch_8">
    <path d="M 364.056338 756 
L 397.588732 756 
L 397.588732 464.038339 
L 364.056338 464.038339 
z
" clip-path="url(#pba3f2e2b9c)" style="fill: #1f77b4"/>
   </g>
   <g id="patch_9">
    <path d="M 405.971831 756 
L 439.504225 756 
L 439.504225 493.828982 
L 405.971831 493.828982 
z
" clip-path="url(#pba3f2e2b9c)" style="fill: #1f77b4"/>
   </g>
   <g id="patch_10">
    <path d="M 447.887324 756 
L 481.419718 756 
L 481.419718 474.286987 
L 447.887324 474.286987 
z
" clip-path="url(#pba3f2e2b9c)" style="fill: #1f77b4"/>
   </g>
   <g id="patch_11">
    <path d="M 489.802817 756 
L 523.335211 756 
L 523.335211 568.939217 
L 489.802817 568.939217 
z
" clip-path="url(#pba3f2e2b9c)" style="fill: #1f77b4"/>
   </g>
   <g id="patch_12">
    <path d="M 531.71831 756 
L 565.250704 756 
L 565.250704 593.204063 
L 531.71831 593.204063 
z
" clip-path="url(#pba3f2e2b9c)" style="fill: #1f77b4"/>
   </g>
   <g id="patch_13">
    <path d="M 573.633803 756 
L 607.166197 756 
L 607.166197 600.701244 
L 573.633803 600.701244 
z
" clip-path="url(#pba3f2e2b9c)" style="fill: #1f77b4"/>
   </g>
   <g id="patch_14">
    <path d="M 615.549296 756 
L 649.08169 756 
L 649.08169 605.407267 
L 615.549296 605.407267 
z
" clip-path="url(#pba3f2e2b9c)" style="fill: #1f77b4"/>
   </g>
   <g id="patch_15">
    <path d="M 657.464789 756 
L 690.997183 756 
L 690.997183 614.461893 
L 657.464789 614.461893 
z
" clip-path="url(#pba3f2e2b9c)" style="fill: #1f77b4"/>
   </g>
   <g id="patch_16">
    <path d="M 699.380282 756 
L 732.912676 756 
L 732.912676 648.485477 
L 699.380282 648.485477 
z
" clip-path="url(#pba3f2e2b9c)" style="fill: #1f77b4"/>
   </g>
   <g id="patch_17">
    <path d="M 741.295775 756 
L 774.828169 756 
L 774.828169 561.876555 
L 741.295775 561.876555 
z
" clip-path="url(#pba3f2e2b9c)" style="fill: #1f77b4"/>
   </g>
   <g id="patch_18">
    <path d="M 783.211268 756 
L 816.743662 756 
L 816.743662 590.347994 
L 783.211268 590.347994 
z
" clip-path="url(#pba3f2e2b9c)" style="fill: #1f77b4"/>
   </g>
   <g id="patch_19">
    <path d="M 825.126761 756 
L 858.659155 756 
L 858.659155 595.691607 
L 825.126761 595.691607 
z
" clip-path="url(#pba3f2e2b9c)" style="fill: #1f77b4"/>
   </g>
   <g id="patch_20">
    <path d="M 867.042254 756 
L 900.574648 756 
L 900.574648 727.010899 
L 867.042254 727.010899 
z
" clip-path="url(#pba3f2e2b9c)" style="fill: #1f77b4"/>
   </g>
   <g id="patch_21">
    <path d="M 908.957746 756 
L 942.490141 756 
L 942.490141 715.498084 
L 908.957746 715.498084 
z
" clip-path="url(#pba3f2e2b9c)" style="fill: #1f77b4"/>
   </g>
   <g id="patch_22">
    <path d="M 950.873239 756 
L 984.405634 756 
L 984.405634 733.654855 
L 950.873239 733.654855 
z
" clip-path="url(#pba3f2e2b9c)" style="fill: #1f77b4"/>
   </g>
   <g id="patch_23">
    <path d="M 992.788732 756 
L 1026.321127 756 
L 1026.321127 701.832716 
L 992.788732 701.832716 
z
" clip-path="url(#pba3f2e2b9c)" style="fill: #1f77b4"/>
   </g>
   <g id="patch_24">
    <path d="M 154.478873 750.64487 
L 188.011268 750.64487 
L 188.011268 734.579482 
L 154.478873 734.579482 
z
" clip-path="url(#pba3f2e2b9c)" style="fill: #aec7e8"/>
   </g>
   <g id="patch_25">
    <path d="M 196.394366 756 
L 229.926761 756 
L 229.926761 756 
L 196.394366 756 
z
" clip-path="url(#pba3f2e2b9c)" style="fill: #aec7e8"/>
   </g>
   <g id="patch_26">
    <path d="M 238.309859 756 
L 271.842254 756 
L 271.842254 756 
L 238.309859 756 
z
" clip-path="url(#pba3f2e2b9c)" style="fill: #aec7e8"/>
   </g>
   <g id="patch_27">
    <path d="M 280.225352 756 
L 313.757746 756 
L 313.757746 756 
L 280.225352 756 
z
" clip-path="url(#pba3f2e2b9c)" style="fill: #aec7e8"/>
   </g>
   <g id="patch_28">
    <path d="M 322.140845 756 
L 355.673239 756 
L 355.673239 756 
L 322.140845 756 
z
" clip-path="url(#pba3f2e2b9c)" style="fill: #aec7e8"/>
   </g>
   <g id="patch_29">
    <path d="M 364.056338 464.038339 
L 397.588732 464.038339 
L 397.588732 439.190538 
L 364.056338 439.190538 
z
" clip-path="url(#pba3f2e2b9c)" style="fill: #aec7e8"/>
   </g>
   <g id="patch_30">
    <path d="M 405.971831 493.828982 
L 439.504225 493.828982 
L 439.504225 457.091642 
L 405.971831 457.091642 
z
" clip-path="url(#pba3f2e2b9c)" style="fill: #aec7e8"/>
   </g>
   <g id="patch_31">
    <path d="M 447.887324 474.286987 
L 481.419718 474.286987 
L 481.419718 450.038272 
L 447.887324 450.038272 
z
" clip-path="url(#pba3f2e2b9c)" style="fill: #aec7e8"/>
   </g>
   <g id="patch_32">
    <path d="M 489.802817 568.939217 
L 523.335211 568.939217 
L 523.335211 521.695197 
L 489.802817 521.695197 
z
" clip-path="url(#pba3f2e2b9c)" style="fill: #aec7e8"/>
   </g>
   <g id="patch_33">
    <path d="M 531.71831 593.204063 
L 565.250704 593.204063 
L 565.250704 552.505079 
L 531.71831 552.505079 
z
" clip-path="url(#pba3f2e2b9c)" style="fill: #aec7e8"/>
   </g>
   <g id="patch_34">
    <path d="M 573.633803 600.701244 
L 607.166197 600.701244 
L 607.166197 548.934992 
L 573.633803 548.934992 
z
" clip-path="url(#pba3f2e2b9c)" style="fill: #aec7e8"/>
   </g>
   <g id="patch_35">
    <path d="M 615.549296 605.407267 
L 649.08169 605.407267 
L 649.08169 559.691616 
L 615.549296 559.691616 
z
" clip-path="url(#pba3f2e2b9c)" style="fill: #aec7e8"/>
   </g>
   <g id="patch_36">
    <path d="M 657.464789 756 
L 690.997183 756 
L 690.997183 756 
L 657.464789 756 
z
" clip-path="url(#pba3f2e2b9c)" style="fill: #aec7e8"/>
   </g>
   <g id="patch_37">
    <path d="M 699.380282 648.485477 
L 732.912676 648.485477 
L 732.912676 576.809128 
L 699.380282 576.809128 
z
" clip-path="url(#pba3f2e2b9c)" style="fill: #aec7e8"/>
   </g>
   <g id="patch_38">
    <path d="M 741.295775 561.876555 
L 774.828169 561.876555 
L 774.828169 526.934335 
L 741.295775 526.934335 
z
" clip-path="url(#pba3f2e2b9c)" style="fill: #aec7e8"/>
   </g>
   <g id="patch_39">
    <path d="M 783.211268 756 
L 816.743662 756 
L 816.743662 756 
L 783.211268 756 
z
" clip-path="url(#pba3f2e2b9c)" style="fill: #aec7e8"/>
   </g>
   <g id="patch_40">
    <path d="M 825.126761 595.691607 
L 858.659155 595.691607 
L 858.659155 589.01209 
L 825.126761 589.01209 
z
" clip-path="url(#pba3f2e2b9c)" style="fill: #aec7e8"/>
   </g>
   <g id="patch_41">
    <path d="M 867.042254 727.010899 
L 900.574648 727.010899 
L 900.574648 712.516348 
L 867.042254 712.516348 
z
" clip-path="url(#pba3f2e2b9c)" style="fill: #aec7e8"/>
   </g>
   <g id="patch_42">
    <path d="M 908.957746 715.498084 
L 942.490141 715.498084 
L 942.490141 688.476101 
L 908.957746 688.476101 
z
" clip-path="url(#pba3f2e2b9c)" style="fill: #aec7e8"/>
   </g>
   <g id="patch_43">
    <path d="M 950.873239 733.654855 
L 984.405634 733.654855 
L 984.405634 695.668109 
L 950.873239 695.668109 
z
" clip-path="url(#pba3f2e2b9c)" style="fill: #aec7e8"/>
   </g>
   <g id="patch_44">
    <path d="M 992.788732 701.832716 
L 1026.321127 701.832716 
L 1026.321127 697.222734 
L 992.788732 697.222734 
z
" clip-path="url(#pba3f2e2b9c)" style="fill: #aec7e8"/>
   </g>
   <g id="patch_45">
    <path d="M 154.478873 756 
L 188.011268 756 
L 188.011268 756 
L 154.478873 756 
z
" clip-path="url(#pba3f2e2b9c)" style="fill: #ff7f0e"/>
   </g>
   <g id="patch_46">
    <path d="M 196.394366 756 
L 229.926761 756 
L 229.926761 756 
L 196.394366 756 
z
" clip-path="url(#pba3f2e2b9c)" style="fill: #ff7f0e"/>
   </g>
   <g id="patch_47">
    <path d="M 238.309859 756 
L 271.842254 756 
L 271.842254 756 
L 238.309859 756 
z
" clip-path="url(#pba3f2e2b9c)" style="fill: #ff7f0e"/>
   </g>
   <g id="patch_48">
    <path d="M 280.225352 756 
L 313.757746 756 
L 313.757746 756 
L 280.225352 756 
z
" clip-path="url(#pba3f2e2b9c)" style="fill: #ff7f0e"/>
   </g>
   <g id="patch_49">
    <path d="M 322.140845 756 
L 355.673239 756 
L 355.673239 756 
L 322.140845 756 
z
" clip-path="url(#pba3f2e2b9c)" style="fill: #ff7f0e"/>
   </g>
   <g id="patch_50">
    <path d="M 364.056338 439.190538 
L 397.588732 439.190538 
L 397.588732 408.130787 
L 364.056338 408.130787 
z
" clip-path="url(#pba3f2e2b9c)" style="fill: #ff7f0e"/>
   </g>
   <g id="patch_51">
    <path d="M 405.971831 457.091642 
L 439.504225 457.091642 
L 439.504225 442.06273 
L 405.971831 442.06273 
z
" clip-path="url(#pba3f2e2b9c)" style="fill: #ff7f0e"/>
   </g>
   <g id="patch_52">
    <path d="M 447.887324 450.038272 
L 481.419718 450.038272 
L 481.419718 438.627112 
L 447.887324 438.627112 
z
" clip-path="url(#pba3f2e2b9c)" style="fill: #ff7f0e"/>
   </g>
   <g id="patch_53">
    <path d="M 489.802817 521.695197 
L 523.335211 521.695197 
L 523.335211 508.28811 
L 489.802817 508.28811 
z
" clip-path="url(#pba3f2e2b9c)" style="fill: #ff7f0e"/>
   </g>
   <g id="patch_54">
    <path d="M 531.71831 552.505079 
L 565.250704 552.505079 
L 565.250704 543.936871 
L 531.71831 543.936871 
z
" clip-path="url(#pba3f2e2b9c)" style="fill: #ff7f0e"/>
   </g>
   <g id="patch_55">
    <path d="M 573.633803 548.934992 
L 607.166197 548.934992 
L 607.166197 543.758367 
L 573.633803 543.758367 
z
" clip-path="url(#pba3f2e2b9c)" style="fill: #ff7f0e"/>
   </g>
   <g id="patch_56">
    <path d="M 615.549296 559.691616 
L 649.08169 559.691616 
L 649.08169 554.313304 
L 615.549296 554.313304 
z
" clip-path="url(#pba3f2e2b9c)" style="fill: #ff7f0e"/>
   </g>
   <g id="patch_57">
    <path d="M 657.464789 614.461893 
L 690.997183 614.461893 
L 690.997183 590.872209 
L 657.464789 590.872209 
z
" clip-path="url(#pba3f2e2b9c)" style="fill: #ff7f0e"/>
   </g>
   <g id="patch_58">
    <path d="M 699.380282 756 
L 732.912676 756 
L 732.912676 756 
L 699.380282 756 
z
" clip-path="url(#pba3f2e2b9c)" style="fill: #ff7f0e"/>
   </g>
   <g id="patch_59">
    <path d="M 741.295775 756 
L 774.828169 756 
L 774.828169 756 
L 741.295775 756 
z
" clip-path="url(#pba3f2e2b9c)" style="fill: #ff7f0e"/>
   </g>
   <g id="patch_60">
    <path d="M 783.211268 590.347994 
L 816.743662 590.347994 
L 816.743662 569.641493 
L 783.211268 569.641493 
z
" clip-path="url(#pba3f2e2b9c)" style="fill: #ff7f0e"/>
   </g>
   <g id="patch_61">
    <path d="M 825.126761 756 
L 858.659155 756 
L 858.659155 756 
L 825.126761 756 
z
" clip-path="url(#pba3f2e2b9c)" style="fill: #ff7f0e"/>
   </g>
   <g id="patch_62">
    <path d="M 867.042254 756 
L 900.574648 756 
L 900.574648 756 
L 867.042254 756 
z
" clip-path="url(#pba3f2e2b9c)" style="fill: #ff7f0e"/>
   </g>
   <g id="patch_63">
    <path d="M 908.957746 756 
L 942.490141 756 
L 942.490141 756 
L 908.957746 756 
z
" clip-path="url(#pba3f2e2b9c)" style="fill: #ff7f0e"/>
   </g>
   <g id="patch_64">
    <path d="M 950.873239 695.668109 
L 984.405634 695.668109 
L 984.405634 675.557479 
L 950.873239 675.557479 
z
" clip-path="url(#pba3f2e2b9c)" style="fill: #ff7f0e"/>
   </g>
   <g id="patch_65">
    <path d="M 992.788732 697.222734 
L 1026.321127 697.222734 
L 1026.321127 691.460257 
L 992.788732 691.460257 
z
" clip-path="url(#pba3f2e2b9c)" style="fill: #ff7f0e"/>
   </g>
   <g id="patch_66">
    <path d="M 154.478873 734.579482 
L 188.011268 734.579482 
L 188.011268 721.191658 
L 154.478873 721.191658 
z
" clip-path="url(#pba3f2e2b9c)" style="fill: #ffbb78"/>
   </g>
   <g id="patch_67">
    <path d="M 196.394366 756 
L 229.926761 756 
L 229.926761 748.604821 
L 196.394366 748.604821 
z
" clip-path="url(#pba3f2e2b9c)" style="fill: #ffbb78"/>
   </g>
   <g id="patch_68">
    <path d="M 238.309859 756 
L 271.842254 756 
L 271.842254 756 
L 238.309859 756 
z
" clip-path="url(#pba3f2e2b9c)" style="fill: #ffbb78"/>
   </g>
   <g id="patch_69">
    <path d="M 280.225352 756 
L 313.757746 756 
L 313.757746 756 
L 280.225352 756 
z
" clip-path="url(#pba3f2e2b9c)" style="fill: #ffbb78"/>
   </g>
   <g id="patch_70">
    <path d="M 322.140845 756 
L 355.673239 756 
L 355.673239 756 
L 322.140845 756 
z
" clip-path="url(#pba3f2e2b9c)" style="fill: #ffbb78"/>
   </g>
   <g id="patch_71">
    <path d="M 364.056338 408.130787 
L 397.588732 408.130787 
L 397.588732 352.223235 
L 364.056338 352.223235 
z
" clip-path="url(#pba3f2e2b9c)" style="fill: #ffbb78"/>
   </g>
   <g id="patch_72">
    <path d="M 405.971831 442.06273 
L 439.504225 442.06273 
L 439.504225 378.607325 
L 405.971831 378.607325 
z
" clip-path="url(#pba3f2e2b9c)" style="fill: #ffbb78"/>
   </g>
   <g id="patch_73">
    <path d="M 447.887324 438.627112 
L 481.419718 438.627112 
L 481.419718 389.416484 
L 447.887324 389.416484 
z
" clip-path="url(#pba3f2e2b9c)" style="fill: #ffbb78"/>
   </g>
   <g id="patch_74">
    <path d="M 489.802817 508.28811 
L 523.335211 508.28811 
L 523.335211 450.190734 
L 489.802817 450.190734 
z
" clip-path="url(#pba3f2e2b9c)" style="fill: #ffbb78"/>
   </g>
   <g id="patch_75">
    <path d="M 531.71831 543.936871 
L 565.250704 543.936871 
L 565.250704 490.385576 
L 531.71831 490.385576 
z
" clip-path="url(#pba3f2e2b9c)" style="fill: #ffbb78"/>
   </g>
   <g id="patch_76">
    <path d="M 573.633803 543.758367 
L 607.166197 543.758367 
L 607.166197 450.579114 
L 573.633803 450.579114 
z
" clip-path="url(#pba3f2e2b9c)" style="fill: #ffbb78"/>
   </g>
   <g id="patch_77">
    <path d="M 615.549296 554.313304 
L 649.08169 554.313304 
L 649.08169 481.706094 
L 615.549296 481.706094 
z
" clip-path="url(#pba3f2e2b9c)" style="fill: #ffbb78"/>
   </g>
   <g id="patch_78">
    <path d="M 657.464789 590.872209 
L 690.997183 590.872209 
L 690.997183 551.556068 
L 657.464789 551.556068 
z
" clip-path="url(#pba3f2e2b9c)" style="fill: #ffbb78"/>
   </g>
   <g id="patch_79">
    <path d="M 699.380282 576.809128 
L 732.912676 576.809128 
L 732.912676 445.402488 
L 699.380282 445.402488 
z
" clip-path="url(#pba3f2e2b9c)" style="fill: #ffbb78"/>
   </g>
   <g id="patch_80">
    <path d="M 741.295775 526.934335 
L 774.828169 526.934335 
L 774.828169 511.40446 
L 741.295775 511.40446 
z
" clip-path="url(#pba3f2e2b9c)" style="fill: #ffbb78"/>
   </g>
   <g id="patch_81">
    <path d="M 783.211268 569.641493 
L 816.743662 569.641493 
L 816.743662 548.934992 
L 783.211268 548.934992 
z
" clip-path="url(#pba3f2e2b9c)" style="fill: #ffbb78"/>
   </g>
   <g id="patch_82">
    <path d="M 825.126761 589.01209 
L 858.659155 589.01209 
L 858.659155 542.255476 
L 825.126761 542.255476 
z
" clip-path="url(#pba3f2e2b9c)" style="fill: #ffbb78"/>
   </g>
   <g id="patch_83">
    <path d="M 867.042254 712.516348 
L 900.574648 712.516348 
L 900.574648 625.549045 
L 867.042254 625.549045 
z
" clip-path="url(#pba3f2e2b9c)" style="fill: #ffbb78"/>
   </g>
   <g id="patch_84">
    <path d="M 908.957746 688.476101 
L 942.490141 688.476101 
L 942.490141 526.406319 
L 908.957746 526.406319 
z
" clip-path="url(#pba3f2e2b9c)" style="fill: #ffbb78"/>
   </g>
   <g id="patch_85">
    <path d="M 950.873239 675.557479 
L 984.405634 675.557479 
L 984.405634 630.86719 
L 950.873239 630.86719 
z
" clip-path="url(#pba3f2e2b9c)" style="fill: #ffbb78"/>
   </g>
   <g id="patch_86">
    <path d="M 992.788732 691.460257 
L 1026.321127 691.460257 
L 1026.321127 557.77079 
L 992.788732 557.77079 
z
" clip-path="url(#pba3f2e2b9c)" style="fill: #ffbb78"/>
   </g>
   <g id="patch_87">
    <path d="M 154.478873 721.191658 
L 188.011268 721.191658 
L 188.011268 713.158964 
L 154.478873 713.158964 
z
" clip-path="url(#pba3f2e2b9c)" style="fill: #2ca02c"/>
   </g>
   <g id="patch_88">
    <path d="M 196.394366 756 
L 229.926761 756 
L 229.926761 756 
L 196.394366 756 
z
" clip-path="url(#pba3f2e2b9c)" style="fill: #2ca02c"/>
   </g>
   <g id="patch_89">
    <path d="M 238.309859 756 
L 271.842254 756 
L 271.842254 756 
L 238.309859 756 
z
" clip-path="url(#pba3f2e2b9c)" style="fill: #2ca02c"/>
   </g>
   <g id="patch_90">
    <path d="M 280.225352 756 
L 313.757746 756 
L 313.757746 756 
L 280.225352 756 
z
" clip-path="url(#pba3f2e2b9c)" style="fill: #2ca02c"/>
   </g>
   <g id="patch_91">
    <path d="M 322.140845 756 
L 355.673239 756 
L 355.673239 756 
L 322.140845 756 
z
" clip-path="url(#pba3f2e2b9c)" style="fill: #2ca02c"/>
   </g>
   <g id="patch_92">
    <path d="M 364.056338 352.223235 
L 397.588732 352.223235 
L 397.588732 342.905309 
L 364.056338 342.905309 
z
" clip-path="url(#pba3f2e2b9c)" style="fill: #2ca02c"/>
   </g>
   <g id="patch_93">
    <path d="M 405.971831 378.607325 
L 439.504225 378.607325 
L 439.504225 343.539864 
L 405.971831 343.539864 
z
" clip-path="url(#pba3f2e2b9c)" style="fill: #2ca02c"/>
   </g>
   <g id="patch_94">
    <path d="M 447.887324 389.416484 
L 481.419718 389.416484 
L 481.419718 337.353067 
L 447.887324 337.353067 
z
" clip-path="url(#pba3f2e2b9c)" style="fill: #2ca02c"/>
   </g>
   <g id="patch_95">
    <path d="M 489.802817 450.190734 
L 523.335211 450.190734 
L 523.335211 393.370223 
L 489.802817 393.370223 
z
" clip-path="url(#pba3f2e2b9c)" style="fill: #2ca02c"/>
   </g>
   <g id="patch_96">
    <path d="M 531.71831 490.385576 
L 565.250704 490.385576 
L 565.250704 466.823006 
L 531.71831 466.823006 
z
" clip-path="url(#pba3f2e2b9c)" style="fill: #2ca02c"/>
   </g>
   <g id="patch_97">
    <path d="M 573.633803 450.579114 
L 607.166197 450.579114 
L 607.166197 424.695988 
L 573.633803 424.695988 
z
" clip-path="url(#pba3f2e2b9c)" style="fill: #2ca02c"/>
   </g>
   <g id="patch_98">
    <path d="M 615.549296 481.706094 
L 649.08169 481.706094 
L 649.08169 417.166351 
L 615.549296 417.166351 
z
" clip-path="url(#pba3f2e2b9c)" style="fill: #2ca02c"/>
   </g>
   <g id="patch_99">
    <path d="M 657.464789 551.556068 
L 690.997183 551.556068 
L 690.997183 410.017962 
L 657.464789 410.017962 
z
" clip-path="url(#pba3f2e2b9c)" style="fill: #2ca02c"/>
   </g>
   <g id="patch_100">
    <path d="M 699.380282 445.402488 
L 732.912676 445.402488 
L 732.912676 397.618256 
L 699.380282 397.618256 
z
" clip-path="url(#pba3f2e2b9c)" style="fill: #2ca02c"/>
   </g>
   <g id="patch_101">
    <path d="M 741.295775 511.40446 
L 774.828169 511.40446 
L 774.828169 503.639522 
L 741.295775 503.639522 
z
" clip-path="url(#pba3f2e2b9c)" style="fill: #2ca02c"/>
   </g>
   <g id="patch_102">
    <path d="M 783.211268 756 
L 816.743662 756 
L 816.743662 756 
L 783.211268 756 
z
" clip-path="url(#pba3f2e2b9c)" style="fill: #2ca02c"/>
   </g>
   <g id="patch_103">
    <path d="M 825.126761 542.255476 
L 858.659155 542.255476 
L 858.659155 498.838619 
L 825.126761 498.838619 
z
" clip-path="url(#pba3f2e2b9c)" style="fill: #2ca02c"/>
   </g>
   <g id="patch_104">
    <path d="M 867.042254 625.549045 
L 900.574648 625.549045 
L 900.574648 588.277344 
L 867.042254 588.277344 
z
" clip-path="url(#pba3f2e2b9c)" style="fill: #2ca02c"/>
   </g>
   <g id="patch_105">
    <path d="M 908.957746 526.406319 
L 942.490141 526.406319 
L 942.490141 485.904404 
L 908.957746 485.904404 
z
" clip-path="url(#pba3f2e2b9c)" style="fill: #2ca02c"/>
   </g>
   <g id="patch_106">
    <path d="M 950.873239 630.86719 
L 984.405634 630.86719 
L 984.405634 601.818501 
L 950.873239 601.818501 
z
" clip-path="url(#pba3f2e2b9c)" style="fill: #2ca02c"/>
   </g>
   <g id="patch_107">
    <path d="M 992.788732 557.77079 
L 1026.321127 557.77079 
L 1026.321127 532.415891 
L 992.788732 532.415891 
z
" clip-path="url(#pba3f2e2b9c)" style="fill: #2ca02c"/>
   </g>
   <g id="patch_108">
    <path d="M 154.478873 713.158964 
L 188.011268 713.158964 
L 188.011268 373.10824 
L 154.478873 373.10824 
z
" clip-path="url(#pba3f2e2b9c)" style="fill: #98df8a"/>
   </g>
   <g id="patch_109">
    <path d="M 196.394366 748.604821 
L 229.926761 748.604821 
L 229.926761 179.17605 
L 196.394366 179.17605 
z
" clip-path="url(#pba3f2e2b9c)" style="fill: #98df8a"/>
   </g>
   <g id="patch_110">
    <path d="M 238.309859 731.152199 
L 271.842254 731.152199 
L 271.842254 259.043981 
L 238.309859 259.043981 
z
" clip-path="url(#pba3f2e2b9c)" style="fill: #98df8a"/>
   </g>
   <g id="patch_111">
    <path d="M 280.225352 375.578242 
L 313.757746 375.578242 
L 313.757746 168.513234 
L 280.225352 168.513234 
z
" clip-path="url(#pba3f2e2b9c)" style="fill: #98df8a"/>
   </g>
   <g id="patch_112">
    <path d="M 322.140845 430.612131 
L 355.673239 430.612131 
L 355.673239 253.127838 
L 322.140845 253.127838 
z
" clip-path="url(#pba3f2e2b9c)" style="fill: #98df8a"/>
   </g>
   <g id="patch_113">
    <path d="M 364.056338 342.905309 
L 397.588732 342.905309 
L 397.588732 336.693359 
L 364.056338 336.693359 
z
" clip-path="url(#pba3f2e2b9c)" style="fill: #98df8a"/>
   </g>
   <g id="patch_114">
    <path d="M 405.971831 756 
L 439.504225 756 
L 439.504225 756 
L 405.971831 756 
z
" clip-path="url(#pba3f2e2b9c)" style="fill: #98df8a"/>
   </g>
   <g id="patch_115">
    <path d="M 447.887324 337.353067 
L 481.419718 337.353067 
L 481.419718 331.647487 
L 447.887324 331.647487 
z
" clip-path="url(#pba3f2e2b9c)" style="fill: #98df8a"/>
   </g>
   <g id="patch_116">
    <path d="M 489.802817 393.370223 
L 523.335211 393.370223 
L 523.335211 380.601569 
L 489.802817 380.601569 
z
" clip-path="url(#pba3f2e2b9c)" style="fill: #98df8a"/>
   </g>
   <g id="patch_117">
    <path d="M 531.71831 466.823006 
L 565.250704 466.823006 
L 565.250704 404.703504 
L 531.71831 404.703504 
z
" clip-path="url(#pba3f2e2b9c)" style="fill: #98df8a"/>
   </g>
   <g id="patch_118">
    <path d="M 573.633803 424.695988 
L 607.166197 424.695988 
L 607.166197 378.106361 
L 573.633803 378.106361 
z
" clip-path="url(#pba3f2e2b9c)" style="fill: #98df8a"/>
   </g>
   <g id="patch_119">
    <path d="M 615.549296 417.166351 
L 649.08169 417.166351 
L 649.08169 379.518168 
L 615.549296 379.518168 
z
" clip-path="url(#pba3f2e2b9c)" style="fill: #98df8a"/>
   </g>
   <g id="patch_120">
    <path d="M 657.464789 410.017962 
L 690.997183 410.017962 
L 690.997183 386.428277 
L 657.464789 386.428277 
z
" clip-path="url(#pba3f2e2b9c)" style="fill: #98df8a"/>
   </g>
   <g id="patch_121">
    <path d="M 699.380282 756 
L 732.912676 756 
L 732.912676 756 
L 699.380282 756 
z
" clip-path="url(#pba3f2e2b9c)" style="fill: #98df8a"/>
   </g>
   <g id="patch_122">
    <path d="M 741.295775 503.639522 
L 774.828169 503.639522 
L 774.828169 286.221264 
L 741.295775 286.221264 
z
" clip-path="url(#pba3f2e2b9c)" style="fill: #98df8a"/>
   </g>
   <g id="patch_123">
    <path d="M 783.211268 548.934992 
L 816.743662 548.934992 
L 816.743662 362.576485 
L 783.211268 362.576485 
z
" clip-path="url(#pba3f2e2b9c)" style="fill: #98df8a"/>
   </g>
   <g id="patch_124">
    <path d="M 825.126761 498.838619 
L 858.659155 498.838619 
L 858.659155 321.831435 
L 825.126761 321.831435 
z
" clip-path="url(#pba3f2e2b9c)" style="fill: #98df8a"/>
   </g>
   <g id="patch_125">
    <path d="M 867.042254 588.277344 
L 900.574648 588.277344 
L 900.574648 350.152585 
L 867.042254 350.152585 
z
" clip-path="url(#pba3f2e2b9c)" style="fill: #98df8a"/>
   </g>
   <g id="patch_126">
    <path d="M 908.957746 485.904404 
L 942.490141 485.904404 
L 942.490141 296.812639 
L 908.957746 296.812639 
z
" clip-path="url(#pba3f2e2b9c)" style="fill: #98df8a"/>
   </g>
   <g id="patch_127">
    <path d="M 950.873239 601.818501 
L 984.405634 601.818501 
L 984.405634 474.451176 
L 950.873239 474.451176 
z
" clip-path="url(#pba3f2e2b9c)" style="fill: #98df8a"/>
   </g>
   <g id="patch_128">
    <path d="M 992.788732 532.415891 
L 1026.321127 532.415891 
L 1026.321127 470.18114 
L 992.788732 470.18114 
z
" clip-path="url(#pba3f2e2b9c)" style="fill: #98df8a"/>
   </g>
   <g id="patch_129">
    <path d="M 154.478873 373.10824 
L 188.011268 373.10824 
L 188.011268 282.071038 
L 154.478873 282.071038 
z
" clip-path="url(#pba3f2e2b9c)" style="fill: #d62728"/>
   </g>
   <g id="patch_130">
    <path d="M 196.394366 179.17605 
L 229.926761 179.17605 
L 229.926761 149.595334 
L 196.394366 149.595334 
z
" clip-path="url(#pba3f2e2b9c)" style="fill: #d62728"/>
   </g>
   <g id="patch_131">
    <path d="M 238.309859 259.043981 
L 271.842254 259.043981 
L 271.842254 234.19618 
L 238.309859 234.19618 
z
" clip-path="url(#pba3f2e2b9c)" style="fill: #d62728"/>
   </g>
   <g id="patch_132">
    <path d="M 280.225352 168.513234 
L 313.757746 168.513234 
L 313.757746 158.882303 
L 280.225352 158.882303 
z
" clip-path="url(#pba3f2e2b9c)" style="fill: #d62728"/>
   </g>
   <g id="patch_133">
    <path d="M 322.140845 253.127838 
L 355.673239 253.127838 
L 355.673239 134.804977 
L 322.140845 134.804977 
z
" clip-path="url(#pba3f2e2b9c)" style="fill: #d62728"/>
   </g>
   <g id="patch_134">
    <path d="M 364.056338 336.693359 
L 397.588732 336.693359 
L 397.588732 330.481409 
L 364.056338 330.481409 
z
" clip-path="url(#pba3f2e2b9c)" style="fill: #d62728"/>
   </g>
   <g id="patch_135">
    <path d="M 405.971831 343.539864 
L 439.504225 343.539864 
L 439.504225 338.530226 
L 405.971831 338.530226 
z
" clip-path="url(#pba3f2e2b9c)" style="fill: #d62728"/>
   </g>
   <g id="patch_136">
    <path d="M 447.887324 331.647487 
L 481.419718 331.647487 
L 481.419718 330.934289 
L 447.887324 330.934289 
z
" clip-path="url(#pba3f2e2b9c)" style="fill: #d62728"/>
   </g>
   <g id="patch_137">
    <path d="M 489.802817 380.601569 
L 523.335211 380.601569 
L 523.335211 371.663511 
L 489.802817 371.663511 
z
" clip-path="url(#pba3f2e2b9c)" style="fill: #d62728"/>
   </g>
   <g id="patch_138">
    <path d="M 531.71831 404.703504 
L 565.250704 404.703504 
L 565.250704 396.135297 
L 531.71831 396.135297 
z
" clip-path="url(#pba3f2e2b9c)" style="fill: #d62728"/>
   </g>
   <g id="patch_139">
    <path d="M 573.633803 378.106361 
L 607.166197 378.106361 
L 607.166197 357.39986 
L 573.633803 357.39986 
z
" clip-path="url(#pba3f2e2b9c)" style="fill: #d62728"/>
   </g>
   <g id="patch_140">
    <path d="M 615.549296 379.518168 
L 649.08169 379.518168 
L 649.08169 374.139856 
L 615.549296 374.139856 
z
" clip-path="url(#pba3f2e2b9c)" style="fill: #d62728"/>
   </g>
   <g id="patch_141">
    <path d="M 657.464789 386.428277 
L 690.997183 386.428277 
L 690.997183 370.701821 
L 657.464789 370.701821 
z
" clip-path="url(#pba3f2e2b9c)" style="fill: #d62728"/>
   </g>
   <g id="patch_142">
    <path d="M 699.380282 397.618256 
L 732.912676 397.618256 
L 732.912676 385.672198 
L 699.380282 385.672198 
z
" clip-path="url(#pba3f2e2b9c)" style="fill: #d62728"/>
   </g>
   <g id="patch_143">
    <path d="M 741.295775 286.221264 
L 774.828169 286.221264 
L 774.828169 274.573857 
L 741.295775 274.573857 
z
" clip-path="url(#pba3f2e2b9c)" style="fill: #d62728"/>
   </g>
   <g id="patch_144">
    <path d="M 783.211268 756 
L 816.743662 756 
L 816.743662 756 
L 783.211268 756 
z
" clip-path="url(#pba3f2e2b9c)" style="fill: #d62728"/>
   </g>
   <g id="patch_145">
    <path d="M 825.126761 321.831435 
L 858.659155 321.831435 
L 858.659155 288.433853 
L 825.126761 288.433853 
z
" clip-path="url(#pba3f2e2b9c)" style="fill: #d62728"/>
   </g>
   <g id="patch_146">
    <path d="M 867.042254 350.152585 
L 900.574648 350.152585 
L 900.574648 317.022183 
L 867.042254 317.022183 
z
" clip-path="url(#pba3f2e2b9c)" style="fill: #d62728"/>
   </g>
   <g id="patch_147">
    <path d="M 908.957746 296.812639 
L 942.490141 296.812639 
L 942.490141 242.768672 
L 908.957746 242.768672 
z
" clip-path="url(#pba3f2e2b9c)" style="fill: #d62728"/>
   </g>
   <g id="patch_148">
    <path d="M 950.873239 474.451176 
L 984.405634 474.451176 
L 984.405634 431.995401 
L 950.873239 431.995401 
z
" clip-path="url(#pba3f2e2b9c)" style="fill: #d62728"/>
   </g>
   <g id="patch_149">
    <path d="M 992.788732 470.18114 
L 1026.321127 470.18114 
L 1026.321127 432.148791 
L 992.788732 432.148791 
z
" clip-path="url(#pba3f2e2b9c)" style="fill: #d62728"/>
   </g>
   <g id="patch_150">
    <path d="M 154.478873 282.071038 
L 188.011268 282.071038 
L 188.011268 268.683214 
L 154.478873 268.683214 
z
" clip-path="url(#pba3f2e2b9c)" style="fill: #ff9896"/>
   </g>
   <g id="patch_151">
    <path d="M 196.394366 756 
L 229.926761 756 
L 229.926761 756 
L 196.394366 756 
z
" clip-path="url(#pba3f2e2b9c)" style="fill: #ff9896"/>
   </g>
   <g id="patch_152">
    <path d="M 238.309859 756 
L 271.842254 756 
L 271.842254 756 
L 238.309859 756 
z
" clip-path="url(#pba3f2e2b9c)" style="fill: #ff9896"/>
   </g>
   <g id="patch_153">
    <path d="M 280.225352 756 
L 313.757746 756 
L 313.757746 756 
L 280.225352 756 
z
" clip-path="url(#pba3f2e2b9c)" style="fill: #ff9896"/>
   </g>
   <g id="patch_154">
    <path d="M 322.140845 756 
L 355.673239 756 
L 355.673239 756 
L 322.140845 756 
z
" clip-path="url(#pba3f2e2b9c)" style="fill: #ff9896"/>
   </g>
   <g id="patch_155">
    <path d="M 364.056338 330.481409 
L 397.588732 330.481409 
L 397.588732 327.375434 
L 364.056338 327.375434 
z
" clip-path="url(#pba3f2e2b9c)" style="fill: #ff9896"/>
   </g>
   <g id="patch_156">
    <path d="M 405.971831 338.530226 
L 439.504225 338.530226 
L 439.504225 333.520589 
L 405.971831 333.520589 
z
" clip-path="url(#pba3f2e2b9c)" style="fill: #ff9896"/>
   </g>
   <g id="patch_157">
    <path d="M 447.887324 330.934289 
L 481.419718 330.934289 
L 481.419718 323.089117 
L 447.887324 323.089117 
z
" clip-path="url(#pba3f2e2b9c)" style="fill: #ff9896"/>
   </g>
   <g id="patch_158">
    <path d="M 489.802817 371.663511 
L 523.335211 371.663511 
L 523.335211 343.572472 
L 489.802817 343.572472 
z
" clip-path="url(#pba3f2e2b9c)" style="fill: #ff9896"/>
   </g>
   <g id="patch_159">
    <path d="M 531.71831 396.135297 
L 565.250704 396.135297 
L 565.250704 359.720416 
L 531.71831 359.720416 
z
" clip-path="url(#pba3f2e2b9c)" style="fill: #ff9896"/>
   </g>
   <g id="patch_160">
    <path d="M 573.633803 357.39986 
L 607.166197 357.39986 
L 607.166197 341.869984 
L 573.633803 341.869984 
z
" clip-path="url(#pba3f2e2b9c)" style="fill: #ff9896"/>
   </g>
   <g id="patch_161">
    <path d="M 615.549296 374.139856 
L 649.08169 374.139856 
L 649.08169 344.55914 
L 615.549296 344.55914 
z
" clip-path="url(#pba3f2e2b9c)" style="fill: #ff9896"/>
   </g>
   <g id="patch_162">
    <path d="M 657.464789 370.701821 
L 690.997183 370.701821 
L 690.997183 362.838593 
L 657.464789 362.838593 
z
" clip-path="url(#pba3f2e2b9c)" style="fill: #ff9896"/>
   </g>
   <g id="patch_163">
    <path d="M 699.380282 756 
L 732.912676 756 
L 732.912676 756 
L 699.380282 756 
z
" clip-path="url(#pba3f2e2b9c)" style="fill: #ff9896"/>
   </g>
   <g id="patch_164">
    <path d="M 741.295775 756 
L 774.828169 756 
L 774.828169 756 
L 741.295775 756 
z
" clip-path="url(#pba3f2e2b9c)" style="fill: #ff9896"/>
   </g>
   <g id="patch_165">
    <path d="M 783.211268 756 
L 816.743662 756 
L 816.743662 756 
L 783.211268 756 
z
" clip-path="url(#pba3f2e2b9c)" style="fill: #ff9896"/>
   </g>
   <g id="patch_166">
    <path d="M 825.126761 288.433853 
L 858.659155 288.433853 
L 858.659155 285.094095 
L 825.126761 285.094095 
z
" clip-path="url(#pba3f2e2b9c)" style="fill: #ff9896"/>
   </g>
   <g id="patch_167">
    <path d="M 867.042254 317.022183 
L 900.574648 317.022183 
L 900.574648 288.033082 
L 867.042254 288.033082 
z
" clip-path="url(#pba3f2e2b9c)" style="fill: #ff9896"/>
   </g>
   <g id="patch_168">
    <path d="M 908.957746 756 
L 942.490141 756 
L 942.490141 756 
L 908.957746 756 
z
" clip-path="url(#pba3f2e2b9c)" style="fill: #ff9896"/>
   </g>
   <g id="patch_169">
    <path d="M 950.873239 431.995401 
L 984.405634 431.995401 
L 984.405634 400.712199 
L 950.873239 400.712199 
z
" clip-path="url(#pba3f2e2b9c)" style="fill: #ff9896"/>
   </g>
   <g id="patch_170">
    <path d="M 992.788732 432.148791 
L 1026.321127 432.148791 
L 1026.321127 386.048975 
L 992.788732 386.048975 
z
" clip-path="url(#pba3f2e2b9c)" style="fill: #ff9896"/>
   </g>
   <g id="patch_171">
    <path d="M 154.478873 268.683214 
L 188.011268 268.683214 
L 188.011268 196.388966 
L 154.478873 196.388966 
z
" clip-path="url(#pba3f2e2b9c)" style="fill: #9467bd"/>
   </g>
   <g id="patch_172">
    <path d="M 196.394366 149.595334 
L 229.926761 149.595334 
L 229.926761 142.200155 
L 196.394366 142.200155 
z
" clip-path="url(#pba3f2e2b9c)" style="fill: #9467bd"/>
   </g>
   <g id="patch_173">
    <path d="M 238.309859 756 
L 271.842254 756 
L 271.842254 756 
L 238.309859 756 
z
" clip-path="url(#pba3f2e2b9c)" style="fill: #9467bd"/>
   </g>
   <g id="patch_174">
    <path d="M 280.225352 756 
L 313.757746 756 
L 313.757746 756 
L 280.225352 756 
z
" clip-path="url(#pba3f2e2b9c)" style="fill: #9467bd"/>
   </g>
   <g id="patch_175">
    <path d="M 322.140845 756 
L 355.673239 756 
L 355.673239 756 
L 322.140845 756 
z
" clip-path="url(#pba3f2e2b9c)" style="fill: #9467bd"/>
   </g>
   <g id="patch_176">
    <path d="M 364.056338 756 
L 397.588732 756 
L 397.588732 756 
L 364.056338 756 
z
" clip-path="url(#pba3f2e2b9c)" style="fill: #9467bd"/>
   </g>
   <g id="patch_177">
    <path d="M 405.971831 333.520589 
L 439.504225 333.520589 
L 439.504225 318.491677 
L 405.971831 318.491677 
z
" clip-path="url(#pba3f2e2b9c)" style="fill: #9467bd"/>
   </g>
   <g id="patch_178">
    <path d="M 447.887324 323.089117 
L 481.419718 323.089117 
L 481.419718 315.243944 
L 447.887324 315.243944 
z
" clip-path="url(#pba3f2e2b9c)" style="fill: #9467bd"/>
   </g>
   <g id="patch_179">
    <path d="M 489.802817 343.572472 
L 523.335211 343.572472 
L 523.335211 305.904942 
L 489.802817 305.904942 
z
" clip-path="url(#pba3f2e2b9c)" style="fill: #9467bd"/>
   </g>
   <g id="patch_180">
    <path d="M 531.71831 359.720416 
L 565.250704 359.720416 
L 565.250704 336.157846 
L 531.71831 336.157846 
z
" clip-path="url(#pba3f2e2b9c)" style="fill: #9467bd"/>
   </g>
   <g id="patch_181">
    <path d="M 573.633803 341.869984 
L 607.166197 341.869984 
L 607.166197 305.633608 
L 573.633803 305.633608 
z
" clip-path="url(#pba3f2e2b9c)" style="fill: #9467bd"/>
   </g>
   <g id="patch_182">
    <path d="M 615.549296 344.55914 
L 649.08169 344.55914 
L 649.08169 314.978425 
L 615.549296 314.978425 
z
" clip-path="url(#pba3f2e2b9c)" style="fill: #9467bd"/>
   </g>
   <g id="patch_183">
    <path d="M 657.464789 362.838593 
L 690.997183 362.838593 
L 690.997183 347.112137 
L 657.464789 347.112137 
z
" clip-path="url(#pba3f2e2b9c)" style="fill: #9467bd"/>
   </g>
   <g id="patch_184">
    <path d="M 699.380282 385.672198 
L 732.912676 385.672198 
L 732.912676 325.941907 
L 699.380282 325.941907 
z
" clip-path="url(#pba3f2e2b9c)" style="fill: #9467bd"/>
   </g>
   <g id="patch_185">
    <path d="M 741.295775 756 
L 774.828169 756 
L 774.828169 756 
L 741.295775 756 
z
" clip-path="url(#pba3f2e2b9c)" style="fill: #9467bd"/>
   </g>
   <g id="patch_186">
    <path d="M 783.211268 362.576485 
L 816.743662 362.576485 
L 816.743662 321.163484 
L 783.211268 321.163484 
z
" clip-path="url(#pba3f2e2b9c)" style="fill: #9467bd"/>
   </g>
   <g id="patch_187">
    <path d="M 825.126761 285.094095 
L 858.659155 285.094095 
L 858.659155 265.055546 
L 825.126761 265.055546 
z
" clip-path="url(#pba3f2e2b9c)" style="fill: #9467bd"/>
   </g>
   <g id="patch_188">
    <path d="M 867.042254 288.033082 
L 900.574648 288.033082 
L 900.574648 213.48968 
L 867.042254 213.48968 
z
" clip-path="url(#pba3f2e2b9c)" style="fill: #9467bd"/>
   </g>
   <g id="patch_189">
    <path d="M 908.957746 242.768672 
L 942.490141 242.768672 
L 942.490141 229.28874 
L 908.957746 229.28874 
z
" clip-path="url(#pba3f2e2b9c)" style="fill: #9467bd"/>
   </g>
   <g id="patch_190">
    <path d="M 950.873239 400.712199 
L 984.405634 400.712199 
L 984.405634 264.406816 
L 950.873239 264.406816 
z
" clip-path="url(#pba3f2e2b9c)" style="fill: #9467bd"/>
   </g>
   <g id="patch_191">
    <path d="M 992.788732 386.048975 
L 1026.321127 386.048975 
L 1026.321127 271.95193 
L 992.788732 271.95193 
z
" clip-path="url(#pba3f2e2b9c)" style="fill: #9467bd"/>
   </g>
   <g id="patch_192">
    <path d="M 154.478873 196.388966 
L 188.011268 196.388966 
L 188.011268 177.646013 
L 154.478873 177.646013 
z
" clip-path="url(#pba3f2e2b9c)" style="fill: #c5b0d5"/>
   </g>
   <g id="patch_193">
    <path d="M 196.394366 756 
L 229.926761 756 
L 229.926761 756 
L 196.394366 756 
z
" clip-path="url(#pba3f2e2b9c)" style="fill: #c5b0d5"/>
   </g>
   <g id="patch_194">
    <path d="M 238.309859 756 
L 271.842254 756 
L 271.842254 756 
L 238.309859 756 
z
" clip-path="url(#pba3f2e2b9c)" style="fill: #c5b0d5"/>
   </g>
   <g id="patch_195">
    <path d="M 280.225352 756 
L 313.757746 756 
L 313.757746 756 
L 280.225352 756 
z
" clip-path="url(#pba3f2e2b9c)" style="fill: #c5b0d5"/>
   </g>
   <g id="patch_196">
    <path d="M 322.140845 756 
L 355.673239 756 
L 355.673239 756 
L 322.140845 756 
z
" clip-path="url(#pba3f2e2b9c)" style="fill: #c5b0d5"/>
   </g>
   <g id="patch_197">
    <path d="M 364.056338 327.375434 
L 397.588732 327.375434 
L 397.588732 259.043981 
L 364.056338 259.043981 
z
" clip-path="url(#pba3f2e2b9c)" style="fill: #c5b0d5"/>
   </g>
   <g id="patch_198">
    <path d="M 405.971831 318.491677 
L 439.504225 318.491677 
L 439.504225 265.055546 
L 405.971831 265.055546 
z
" clip-path="url(#pba3f2e2b9c)" style="fill: #c5b0d5"/>
   </g>
   <g id="patch_199">
    <path d="M 447.887324 315.243944 
L 481.419718 315.243944 
L 481.419718 259.614539 
L 447.887324 259.614539 
z
" clip-path="url(#pba3f2e2b9c)" style="fill: #c5b0d5"/>
   </g>
   <g id="patch_200">
    <path d="M 489.802817 305.904942 
L 523.335211 305.904942 
L 523.335211 242.061671 
L 489.802817 242.061671 
z
" clip-path="url(#pba3f2e2b9c)" style="fill: #c5b0d5"/>
   </g>
   <g id="patch_201">
    <path d="M 531.71831 336.157846 
L 565.250704 336.157846 
L 565.250704 280.464499 
L 531.71831 280.464499 
z
" clip-path="url(#pba3f2e2b9c)" style="fill: #c5b0d5"/>
   </g>
   <g id="patch_202">
    <path d="M 573.633803 305.633608 
L 607.166197 305.633608 
L 607.166197 227.98423 
L 573.633803 227.98423 
z
" clip-path="url(#pba3f2e2b9c)" style="fill: #c5b0d5"/>
   </g>
   <g id="patch_203">
    <path d="M 615.549296 314.978425 
L 649.08169 314.978425 
L 649.08169 245.06037 
L 615.549296 245.06037 
z
" clip-path="url(#pba3f2e2b9c)" style="fill: #c5b0d5"/>
   </g>
   <g id="patch_204">
    <path d="M 657.464789 347.112137 
L 690.997183 347.112137 
L 690.997183 292.06954 
L 657.464789 292.06954 
z
" clip-path="url(#pba3f2e2b9c)" style="fill: #c5b0d5"/>
   </g>
   <g id="patch_205">
    <path d="M 699.380282 325.941907 
L 732.912676 325.941907 
L 732.912676 266.211616 
L 699.380282 266.211616 
z
" clip-path="url(#pba3f2e2b9c)" style="fill: #c5b0d5"/>
   </g>
   <g id="patch_206">
    <path d="M 741.295775 274.573857 
L 774.828169 274.573857 
L 774.828169 243.514106 
L 741.295775 243.514106 
z
" clip-path="url(#pba3f2e2b9c)" style="fill: #c5b0d5"/>
   </g>
   <g id="patch_207">
    <path d="M 783.211268 321.163484 
L 816.743662 321.163484 
L 816.743662 259.043981 
L 783.211268 259.043981 
z
" clip-path="url(#pba3f2e2b9c)" style="fill: #c5b0d5"/>
   </g>
   <g id="patch_208">
    <path d="M 825.126761 265.055546 
L 858.659155 265.055546 
L 858.659155 245.016997 
L 825.126761 245.016997 
z
" clip-path="url(#pba3f2e2b9c)" style="fill: #c5b0d5"/>
   </g>
   <g id="patch_209">
    <path d="M 867.042254 213.48968 
L 900.574648 213.48968 
L 900.574648 182.429928 
L 867.042254 182.429928 
z
" clip-path="url(#pba3f2e2b9c)" style="fill: #c5b0d5"/>
   </g>
   <g id="patch_210">
    <path d="M 908.957746 229.28874 
L 942.490141 229.28874 
L 942.490141 202.266756 
L 908.957746 202.266756 
z
" clip-path="url(#pba3f2e2b9c)" style="fill: #c5b0d5"/>
   </g>
   <g id="patch_211">
    <path d="M 950.873239 264.406816 
L 984.405634 264.406816 
L 984.405634 206.30944 
L 950.873239 206.30944 
z
" clip-path="url(#pba3f2e2b9c)" style="fill: #c5b0d5"/>
   </g>
   <g id="patch_212">
    <path d="M 992.788732 271.95193 
L 1026.321127 271.95193 
L 1026.321127 232.767086 
L 992.788732 232.767086 
z
" clip-path="url(#pba3f2e2b9c)" style="fill: #c5b0d5"/>
   </g>
   <g id="patch_213">
    <path d="M 154.478873 177.646013 
L 188.011268 177.646013 
L 188.011268 145.515236 
L 154.478873 145.515236 
z
" clip-path="url(#pba3f2e2b9c)" style="fill: #8c564b"/>
   </g>
   <g id="patch_214">
    <path d="M 196.394366 142.200155 
L 229.926761 142.200155 
L 229.926761 134.804977 
L 196.394366 134.804977 
z
" clip-path="url(#pba3f2e2b9c)" style="fill: #8c564b"/>
   </g>
   <g id="patch_215">
    <path d="M 238.309859 234.19618 
L 271.842254 234.19618 
L 271.842254 209.348379 
L 238.309859 209.348379 
z
" clip-path="url(#pba3f2e2b9c)" style="fill: #8c564b"/>
   </g>
   <g id="patch_216">
    <path d="M 280.225352 756 
L 313.757746 756 
L 313.757746 756 
L 280.225352 756 
z
" clip-path="url(#pba3f2e2b9c)" style="fill: #8c564b"/>
   </g>
   <g id="patch_217">
    <path d="M 322.140845 756 
L 355.673239 756 
L 355.673239 756 
L 322.140845 756 
z
" clip-path="url(#pba3f2e2b9c)" style="fill: #8c564b"/>
   </g>
   <g id="patch_218">
    <path d="M 364.056338 259.043981 
L 397.588732 259.043981 
L 397.588732 162.758753 
L 364.056338 162.758753 
z
" clip-path="url(#pba3f2e2b9c)" style="fill: #8c564b"/>
   </g>
   <g id="patch_219">
    <path d="M 405.971831 265.055546 
L 439.504225 265.055546 
L 439.504225 173.212196 
L 405.971831 173.212196 
z
" clip-path="url(#pba3f2e2b9c)" style="fill: #8c564b"/>
   </g>
   <g id="patch_220">
    <path d="M 447.887324 259.614539 
L 481.419718 259.614539 
L 481.419718 169.751654 
L 447.887324 169.751654 
z
" clip-path="url(#pba3f2e2b9c)" style="fill: #8c564b"/>
   </g>
   <g id="patch_221">
    <path d="M 489.802817 242.061671 
L 523.335211 242.061671 
L 523.335211 167.365045 
L 489.802817 167.365045 
z
" clip-path="url(#pba3f2e2b9c)" style="fill: #8c564b"/>
   </g>
   <g id="patch_222">
    <path d="M 531.71831 280.464499 
L 565.250704 280.464499 
L 565.250704 160.509598 
L 531.71831 160.509598 
z
" clip-path="url(#pba3f2e2b9c)" style="fill: #8c564b"/>
   </g>
   <g id="patch_223">
    <path d="M 573.633803 227.98423 
L 607.166197 227.98423 
L 607.166197 165.864728 
L 573.633803 165.864728 
z
" clip-path="url(#pba3f2e2b9c)" style="fill: #8c564b"/>
   </g>
   <g id="patch_224">
    <path d="M 615.549296 245.06037 
L 649.08169 245.06037 
L 649.08169 180.520628 
L 615.549296 180.520628 
z
" clip-path="url(#pba3f2e2b9c)" style="fill: #8c564b"/>
   </g>
   <g id="patch_225">
    <path d="M 657.464789 292.06954 
L 690.997183 292.06954 
L 690.997183 181.984346 
L 657.464789 181.984346 
z
" clip-path="url(#pba3f2e2b9c)" style="fill: #8c564b"/>
   </g>
   <g id="patch_226">
    <path d="M 699.380282 266.211616 
L 732.912676 266.211616 
L 732.912676 134.804977 
L 699.380282 134.804977 
z
" clip-path="url(#pba3f2e2b9c)" style="fill: #8c564b"/>
   </g>
   <g id="patch_227">
    <path d="M 741.295775 243.514106 
L 774.828169 243.514106 
L 774.828169 150.334852 
L 741.295775 150.334852 
z
" clip-path="url(#pba3f2e2b9c)" style="fill: #8c564b"/>
   </g>
   <g id="patch_228">
    <path d="M 783.211268 259.043981 
L 816.743662 259.043981 
L 816.743662 196.924479 
L 783.211268 196.924479 
z
" clip-path="url(#pba3f2e2b9c)" style="fill: #8c564b"/>
   </g>
   <g id="patch_229">
    <path d="M 825.126761 245.016997 
L 858.659155 245.016997 
L 858.659155 184.901349 
L 825.126761 184.901349 
z
" clip-path="url(#pba3f2e2b9c)" style="fill: #8c564b"/>
   </g>
   <g id="patch_230">
    <path d="M 867.042254 182.429928 
L 900.574648 182.429928 
L 900.574648 147.228877 
L 867.042254 147.228877 
z
" clip-path="url(#pba3f2e2b9c)" style="fill: #8c564b"/>
   </g>
   <g id="patch_231">
    <path d="M 908.957746 202.266756 
L 942.490141 202.266756 
L 942.490141 134.742857 
L 908.957746 134.742857 
z
" clip-path="url(#pba3f2e2b9c)" style="fill: #8c564b"/>
   </g>
   <g id="patch_232">
    <path d="M 950.873239 206.30944 
L 984.405634 206.30944 
L 984.405634 150.446578 
L 950.873239 150.446578 
z
" clip-path="url(#pba3f2e2b9c)" style="fill: #8c564b"/>
   </g>
   <g id="patch_233">
    <path d="M 992.788732 232.767086 
L 1026.321127 232.767086 
L 1026.321127 164.769857 
L 992.788732 164.769857 
z
" clip-path="url(#pba3f2e2b9c)" style="fill: #8c564b"/>
   </g>
   <g id="patch_234">
    <path d="M 154.478873 756 
L 188.011268 756 
L 188.011268 756 
L 154.478873 756 
z
" clip-path="url(#pba3f2e2b9c)" style="fill: #c49c94"/>
   </g>
   <g id="patch_235">
    <path d="M 196.394366 756 
L 229.926761 756 
L 229.926761 756 
L 196.394366 756 
z
" clip-path="url(#pba3f2e2b9c)" style="fill: #c49c94"/>
   </g>
   <g id="patch_236">
    <path d="M 238.309859 209.348379 
L 271.842254 209.348379 
L 271.842254 134.804977 
L 238.309859 134.804977 
z
" clip-path="url(#pba3f2e2b9c)" style="fill: #c49c94"/>
   </g>
   <g id="patch_237">
    <path d="M 280.225352 158.882303 
L 313.757746 158.882303 
L 313.757746 134.804977 
L 280.225352 134.804977 
z
" clip-path="url(#pba3f2e2b9c)" style="fill: #c49c94"/>
   </g>
   <g id="patch_238">
    <path d="M 322.140845 756 
L 355.673239 756 
L 355.673239 756 
L 322.140845 756 
z
" clip-path="url(#pba3f2e2b9c)" style="fill: #c49c94"/>
   </g>
   <g id="patch_239">
    <path d="M 364.056338 756 
L 397.588732 756 
L 397.588732 756 
L 364.056338 756 
z
" clip-path="url(#pba3f2e2b9c)" style="fill: #c49c94"/>
   </g>
   <g id="patch_240">
    <path d="M 405.971831 756 
L 439.504225 756 
L 439.504225 756 
L 405.971831 756 
z
" clip-path="url(#pba3f2e2b9c)" style="fill: #c49c94"/>
   </g>
   <g id="patch_241">
    <path d="M 447.887324 169.751654 
L 481.419718 169.751654 
L 481.419718 151.208519 
L 447.887324 151.208519 
z
" clip-path="url(#pba3f2e2b9c)" style="fill: #c49c94"/>
   </g>
   <g id="patch_242">
    <path d="M 489.802817 167.365045 
L 523.335211 167.365045 
L 523.335211 161.61915 
L 489.802817 161.61915 
z
" clip-path="url(#pba3f2e2b9c)" style="fill: #c49c94"/>
   </g>
   <g id="patch_243">
    <path d="M 531.71831 160.509598 
L 565.250704 160.509598 
L 565.250704 158.367546 
L 531.71831 158.367546 
z
" clip-path="url(#pba3f2e2b9c)" style="fill: #c49c94"/>
   </g>
   <g id="patch_244">
    <path d="M 573.633803 756 
L 607.166197 756 
L 607.166197 756 
L 573.633803 756 
z
" clip-path="url(#pba3f2e2b9c)" style="fill: #c49c94"/>
   </g>
   <g id="patch_245">
    <path d="M 615.549296 180.520628 
L 649.08169 180.520628 
L 649.08169 172.45316 
L 615.549296 172.45316 
z
" clip-path="url(#pba3f2e2b9c)" style="fill: #c49c94"/>
   </g>
   <g id="patch_246">
    <path d="M 657.464789 756 
L 690.997183 756 
L 690.997183 756 
L 657.464789 756 
z
" clip-path="url(#pba3f2e2b9c)" style="fill: #c49c94"/>
   </g>
   <g id="patch_247">
    <path d="M 699.380282 756 
L 732.912676 756 
L 732.912676 756 
L 699.380282 756 
z
" clip-path="url(#pba3f2e2b9c)" style="fill: #c49c94"/>
   </g>
   <g id="patch_248">
    <path d="M 741.295775 150.334852 
L 774.828169 150.334852 
L 774.828169 138.687446 
L 741.295775 138.687446 
z
" clip-path="url(#pba3f2e2b9c)" style="fill: #c49c94"/>
   </g>
   <g id="patch_249">
    <path d="M 783.211268 196.924479 
L 816.743662 196.924479 
L 816.743662 134.804977 
L 783.211268 134.804977 
z
" clip-path="url(#pba3f2e2b9c)" style="fill: #c49c94"/>
   </g>
   <g id="patch_250">
    <path d="M 825.126761 184.901349 
L 858.659155 184.901349 
L 858.659155 141.484493 
L 825.126761 141.484493 
z
" clip-path="url(#pba3f2e2b9c)" style="fill: #c49c94"/>
   </g>
   <g id="patch_251">
    <path d="M 867.042254 756 
L 900.574648 756 
L 900.574648 756 
L 867.042254 756 
z
" clip-path="url(#pba3f2e2b9c)" style="fill: #c49c94"/>
   </g>
   <g id="patch_252">
    <path d="M 908.957746 756 
L 942.490141 756 
L 942.490141 756 
L 908.957746 756 
z
" clip-path="url(#pba3f2e2b9c)" style="fill: #c49c94"/>
   </g>
   <g id="patch_253">
    <path d="M 950.873239 756 
L 984.405634 756 
L 984.405634 756 
L 950.873239 756 
z
" clip-path="url(#pba3f2e2b9c)" style="fill: #c49c94"/>
   </g>
   <g id="patch_254">
    <path d="M 992.788732 756 
L 1026.321127 756 
L 1026.321127 756 
L 992.788732 756 
z
" clip-path="url(#pba3f2e2b9c)" style="fill: #c49c94"/>
   </g>
   <g id="patch_255">
    <path d="M 154.478873 145.515236 
L 188.011268 145.515236 
L 188.011268 140.160106 
L 154.478873 140.160106 
z
" clip-path="url(#pba3f2e2b9c)" style="fill: #e377c2"/>
   </g>
   <g id="patch_256">
    <path d="M 196.394366 756 
L 229.926761 756 
L 229.926761 756 
L 196.394366 756 
z
" clip-path="url(#pba3f2e2b9c)" style="fill: #e377c2"/>
   </g>
   <g id="patch_257">
    <path d="M 238.309859 756 
L 271.842254 756 
L 271.842254 756 
L 238.309859 756 
z
" clip-path="url(#pba3f2e2b9c)" style="fill: #e377c2"/>
   </g>
   <g id="patch_258">
    <path d="M 280.225352 756 
L 313.757746 756 
L 313.757746 756 
L 280.225352 756 
z
" clip-path="url(#pba3f2e2b9c)" style="fill: #e377c2"/>
   </g>
   <g id="patch_259">
    <path d="M 322.140845 756 
L 355.673239 756 
L 355.673239 756 
L 322.140845 756 
z
" clip-path="url(#pba3f2e2b9c)" style="fill: #e377c2"/>
   </g>
   <g id="patch_260">
    <path d="M 364.056338 162.758753 
L 397.588732 162.758753 
L 397.588732 144.122902 
L 364.056338 144.122902 
z
" clip-path="url(#pba3f2e2b9c)" style="fill: #e377c2"/>
   </g>
   <g id="patch_261">
    <path d="M 405.971831 173.212196 
L 439.504225 173.212196 
L 439.504225 158.183284 
L 405.971831 158.183284 
z
" clip-path="url(#pba3f2e2b9c)" style="fill: #e377c2"/>
   </g>
   <g id="patch_262">
    <path d="M 447.887324 151.208519 
L 481.419718 151.208519 
L 481.419718 144.076544 
L 447.887324 144.076544 
z
" clip-path="url(#pba3f2e2b9c)" style="fill: #e377c2"/>
   </g>
   <g id="patch_263">
    <path d="M 489.802817 161.61915 
L 523.335211 161.61915 
L 523.335211 151.404227 
L 489.802817 151.404227 
z
" clip-path="url(#pba3f2e2b9c)" style="fill: #e377c2"/>
   </g>
   <g id="patch_264">
    <path d="M 531.71831 158.367546 
L 565.250704 158.367546 
L 565.250704 149.799339 
L 531.71831 149.799339 
z
" clip-path="url(#pba3f2e2b9c)" style="fill: #e377c2"/>
   </g>
   <g id="patch_265">
    <path d="M 573.633803 165.864728 
L 607.166197 165.864728 
L 607.166197 160.688103 
L 573.633803 160.688103 
z
" clip-path="url(#pba3f2e2b9c)" style="fill: #e377c2"/>
   </g>
   <g id="patch_266">
    <path d="M 615.549296 172.45316 
L 649.08169 172.45316 
L 649.08169 150.939912 
L 615.549296 150.939912 
z
" clip-path="url(#pba3f2e2b9c)" style="fill: #e377c2"/>
   </g>
   <g id="patch_267">
    <path d="M 657.464789 181.984346 
L 690.997183 181.984346 
L 690.997183 158.394661 
L 657.464789 158.394661 
z
" clip-path="url(#pba3f2e2b9c)" style="fill: #e377c2"/>
   </g>
   <g id="patch_268">
    <path d="M 699.380282 756 
L 732.912676 756 
L 732.912676 756 
L 699.380282 756 
z
" clip-path="url(#pba3f2e2b9c)" style="fill: #e377c2"/>
   </g>
   <g id="patch_269">
    <path d="M 741.295775 756 
L 774.828169 756 
L 774.828169 756 
L 741.295775 756 
z
" clip-path="url(#pba3f2e2b9c)" style="fill: #e377c2"/>
   </g>
   <g id="patch_270">
    <path d="M 783.211268 756 
L 816.743662 756 
L 816.743662 756 
L 783.211268 756 
z
" clip-path="url(#pba3f2e2b9c)" style="fill: #e377c2"/>
   </g>
   <g id="patch_271">
    <path d="M 825.126761 756 
L 858.659155 756 
L 858.659155 756 
L 825.126761 756 
z
" clip-path="url(#pba3f2e2b9c)" style="fill: #e377c2"/>
   </g>
   <g id="patch_272">
    <path d="M 867.042254 147.228877 
L 900.574648 147.228877 
L 900.574648 143.087577 
L 867.042254 143.087577 
z
" clip-path="url(#pba3f2e2b9c)" style="fill: #e377c2"/>
   </g>
   <g id="patch_273">
    <path d="M 908.957746 756 
L 942.490141 756 
L 942.490141 756 
L 908.957746 756 
z
" clip-path="url(#pba3f2e2b9c)" style="fill: #e377c2"/>
   </g>
   <g id="patch_274">
    <path d="M 950.873239 150.446578 
L 984.405634 150.446578 
L 984.405634 145.977549 
L 950.873239 145.977549 
z
" clip-path="url(#pba3f2e2b9c)" style="fill: #e377c2"/>
   </g>
   <g id="patch_275">
    <path d="M 992.788732 164.769857 
L 1026.321127 164.769857 
L 1026.321127 157.854885 
L 992.788732 157.854885 
z
" clip-path="url(#pba3f2e2b9c)" style="fill: #e377c2"/>
   </g>
   <g id="patch_276">
    <path d="M 154.478873 140.160106 
L 188.011268 140.160106 
L 188.011268 134.804977 
L 154.478873 134.804977 
z
" clip-path="url(#pba3f2e2b9c)" style="fill: #f7b6d2"/>
   </g>
   <g id="patch_277">
    <path d="M 196.394366 756 
L 229.926761 756 
L 229.926761 756 
L 196.394366 756 
z
" clip-path="url(#pba3f2e2b9c)" style="fill: #f7b6d2"/>
   </g>
   <g id="patch_278">
    <path d="M 238.309859 756 
L 271.842254 756 
L 271.842254 756 
L 238.309859 756 
z
" clip-path="url(#pba3f2e2b9c)" style="fill: #f7b6d2"/>
   </g>
   <g id="patch_279">
    <path d="M 280.225352 756 
L 313.757746 756 
L 313.757746 756 
L 280.225352 756 
z
" clip-path="url(#pba3f2e2b9c)" style="fill: #f7b6d2"/>
   </g>
   <g id="patch_280">
    <path d="M 322.140845 756 
L 355.673239 756 
L 355.673239 756 
L 322.140845 756 
z
" clip-path="url(#pba3f2e2b9c)" style="fill: #f7b6d2"/>
   </g>
   <g id="patch_281">
    <path d="M 364.056338 144.122902 
L 397.588732 144.122902 
L 397.588732 134.804977 
L 364.056338 134.804977 
z
" clip-path="url(#pba3f2e2b9c)" style="fill: #f7b6d2"/>
   </g>
   <g id="patch_282">
    <path d="M 405.971831 158.183284 
L 439.504225 158.183284 
L 439.504225 136.474856 
L 405.971831 136.474856 
z
" clip-path="url(#pba3f2e2b9c)" style="fill: #f7b6d2"/>
   </g>
   <g id="patch_283">
    <path d="M 447.887324 144.076544 
L 481.419718 144.076544 
L 481.419718 136.944569 
L 447.887324 136.944569 
z
" clip-path="url(#pba3f2e2b9c)" style="fill: #f7b6d2"/>
   </g>
   <g id="patch_284">
    <path d="M 489.802817 151.404227 
L 523.335211 151.404227 
L 523.335211 140.550871 
L 489.802817 140.550871 
z
" clip-path="url(#pba3f2e2b9c)" style="fill: #f7b6d2"/>
   </g>
   <g id="patch_285">
    <path d="M 531.71831 149.799339 
L 565.250704 149.799339 
L 565.250704 139.08908 
L 531.71831 139.08908 
z
" clip-path="url(#pba3f2e2b9c)" style="fill: #f7b6d2"/>
   </g>
   <g id="patch_286">
    <path d="M 573.633803 160.688103 
L 607.166197 160.688103 
L 607.166197 134.804977 
L 573.633803 134.804977 
z
" clip-path="url(#pba3f2e2b9c)" style="fill: #f7b6d2"/>
   </g>
   <g id="patch_287">
    <path d="M 615.549296 150.939912 
L 649.08169 150.939912 
L 649.08169 140.183289 
L 615.549296 140.183289 
z
" clip-path="url(#pba3f2e2b9c)" style="fill: #f7b6d2"/>
   </g>
   <g id="patch_288">
    <path d="M 657.464789 158.394661 
L 690.997183 158.394661 
L 690.997183 134.804977 
L 657.464789 134.804977 
z
" clip-path="url(#pba3f2e2b9c)" style="fill: #f7b6d2"/>
   </g>
   <g id="patch_289">
    <path d="M 699.380282 756 
L 732.912676 756 
L 732.912676 756 
L 699.380282 756 
z
" clip-path="url(#pba3f2e2b9c)" style="fill: #f7b6d2"/>
   </g>
   <g id="patch_290">
    <path d="M 741.295775 138.687446 
L 774.828169 138.687446 
L 774.828169 134.804977 
L 741.295775 134.804977 
z
" clip-path="url(#pba3f2e2b9c)" style="fill: #f7b6d2"/>
   </g>
   <g id="patch_291">
    <path d="M 783.211268 756 
L 816.743662 756 
L 816.743662 756 
L 783.211268 756 
z
" clip-path="url(#pba3f2e2b9c)" style="fill: #f7b6d2"/>
   </g>
   <g id="patch_292">
    <path d="M 825.126761 141.484493 
L 858.659155 141.484493 
L 858.659155 134.804977 
L 825.126761 134.804977 
z
" clip-path="url(#pba3f2e2b9c)" style="fill: #f7b6d2"/>
   </g>
   <g id="patch_293">
    <path d="M 867.042254 143.087577 
L 900.574648 143.087577 
L 900.574648 134.804977 
L 867.042254 134.804977 
z
" clip-path="url(#pba3f2e2b9c)" style="fill: #f7b6d2"/>
   </g>
   <g id="patch_294">
    <path d="M 908.957746 756 
L 942.490141 756 
L 942.490141 756 
L 908.957746 756 
z
" clip-path="url(#pba3f2e2b9c)" style="fill: #f7b6d2"/>
   </g>
   <g id="patch_295">
    <path d="M 950.873239 145.977549 
L 984.405634 145.977549 
L 984.405634 137.039491 
L 950.873239 137.039491 
z
" clip-path="url(#pba3f2e2b9c)" style="fill: #f7b6d2"/>
   </g>
   <g id="patch_296">
    <path d="M 992.788732 157.854885 
L 1026.321127 157.854885 
L 1026.321127 140.567454 
L 992.788732 140.567454 
z
" clip-path="url(#pba3f2e2b9c)" style="fill: #f7b6d2"/>
   </g>
   <g id="patch_297">
    <path d="M 154.478873 756 
L 188.011268 756 
L 188.011268 756 
L 154.478873 756 
z
" clip-path="url(#pba3f2e2b9c)" style="fill: #7f7f7f"/>
   </g>
   <g id="patch_298">
    <path d="M 196.394366 756 
L 229.926761 756 
L 229.926761 756 
L 196.394366 756 
z
" clip-path="url(#pba3f2e2b9c)" style="fill: #7f7f7f"/>
   </g>
   <g id="patch_299">
    <path d="M 238.309859 756 
L 271.842254 756 
L 271.842254 756 
L 238.309859 756 
z
" clip-path="url(#pba3f2e2b9c)" style="fill: #7f7f7f"/>
   </g>
   <g id="patch_300">
    <path d="M 280.225352 756 
L 313.757746 756 
L 313.757746 756 
L 280.225352 756 
z
" clip-path="url(#pba3f2e2b9c)" style="fill: #7f7f7f"/>
   </g>
   <g id="patch_301">
    <path d="M 322.140845 756 
L 355.673239 756 
L 355.673239 756 
L 322.140845 756 
z
" clip-path="url(#pba3f2e2b9c)" style="fill: #7f7f7f"/>
   </g>
   <g id="patch_302">
    <path d="M 364.056338 756 
L 397.588732 756 
L 397.588732 756 
L 364.056338 756 
z
" clip-path="url(#pba3f2e2b9c)" style="fill: #7f7f7f"/>
   </g>
   <g id="patch_303">
    <path d="M 405.971831 136.474856 
L 439.504225 136.474856 
L 439.504225 134.804977 
L 405.971831 134.804977 
z
" clip-path="url(#pba3f2e2b9c)" style="fill: #7f7f7f"/>
   </g>
   <g id="patch_304">
    <path d="M 447.887324 136.944569 
L 481.419718 136.944569 
L 481.419718 134.804977 
L 447.887324 134.804977 
z
" clip-path="url(#pba3f2e2b9c)" style="fill: #7f7f7f"/>
   </g>
   <g id="patch_305">
    <path d="M 489.802817 140.550871 
L 523.335211 140.550871 
L 523.335211 134.804977 
L 489.802817 134.804977 
z
" clip-path="url(#pba3f2e2b9c)" style="fill: #7f7f7f"/>
   </g>
   <g id="patch_306">
    <path d="M 531.71831 139.08908 
L 565.250704 139.08908 
L 565.250704 134.804977 
L 531.71831 134.804977 
z
" clip-path="url(#pba3f2e2b9c)" style="fill: #7f7f7f"/>
   </g>
   <g id="patch_307">
    <path d="M 573.633803 756 
L 607.166197 756 
L 607.166197 756 
L 573.633803 756 
z
" clip-path="url(#pba3f2e2b9c)" style="fill: #7f7f7f"/>
   </g>
   <g id="patch_308">
    <path d="M 615.549296 140.183289 
L 649.08169 140.183289 
L 649.08169 134.804977 
L 615.549296 134.804977 
z
" clip-path="url(#pba3f2e2b9c)" style="fill: #7f7f7f"/>
   </g>
   <g id="patch_309">
    <path d="M 657.464789 756 
L 690.997183 756 
L 690.997183 756 
L 657.464789 756 
z
" clip-path="url(#pba3f2e2b9c)" style="fill: #7f7f7f"/>
   </g>
   <g id="patch_310">
    <path d="M 699.380282 756 
L 732.912676 756 
L 732.912676 756 
L 699.380282 756 
z
" clip-path="url(#pba3f2e2b9c)" style="fill: #7f7f7f"/>
   </g>
   <g id="patch_311">
    <path d="M 741.295775 756 
L 774.828169 756 
L 774.828169 756 
L 741.295775 756 
z
" clip-path="url(#pba3f2e2b9c)" style="fill: #7f7f7f"/>
   </g>
   <g id="patch_312">
    <path d="M 783.211268 756 
L 816.743662 756 
L 816.743662 756 
L 783.211268 756 
z
" clip-path="url(#pba3f2e2b9c)" style="fill: #7f7f7f"/>
   </g>
   <g id="patch_313">
    <path d="M 825.126761 756 
L 858.659155 756 
L 858.659155 756 
L 825.126761 756 
z
" clip-path="url(#pba3f2e2b9c)" style="fill: #7f7f7f"/>
   </g>
   <g id="patch_314">
    <path d="M 867.042254 756 
L 900.574648 756 
L 900.574648 756 
L 867.042254 756 
z
" clip-path="url(#pba3f2e2b9c)" style="fill: #7f7f7f"/>
   </g>
   <g id="patch_315">
    <path d="M 908.957746 756 
L 942.490141 756 
L 942.490141 756 
L 908.957746 756 
z
" clip-path="url(#pba3f2e2b9c)" style="fill: #7f7f7f"/>
   </g>
   <g id="patch_316">
    <path d="M 950.873239 137.039491 
L 984.405634 137.039491 
L 984.405634 134.804977 
L 950.873239 134.804977 
z
" clip-path="url(#pba3f2e2b9c)" style="fill: #7f7f7f"/>
   </g>
   <g id="patch_317">
    <path d="M 992.788732 140.567454 
L 1026.321127 140.567454 
L 1026.321127 134.804977 
L 992.788732 134.804977 
z
" clip-path="url(#pba3f2e2b9c)" style="fill: #7f7f7f"/>
   </g>
   <g id="matplotlib.axis_1">
    <g id="xtick_1">
     <g id="line2d_1">
      <defs>
       <path id="mb98b83112b" d="M 0 0 
L 0 3.5 
" style="stroke: #000000; stroke-width: 0.8"/>
      </defs>
      <g>
       <use xlink:href="#mb98b83112b" x="171.24507" y="756" style="stroke: #000000; stroke-width: 0.8"/>
      </g>
     </g>
     <g id="text_1">
      <text style="font: 10px 'sans-serif'" transform="translate(174.004445 803.728125)rotate(-90)">Ethiopia</text>
     </g>
    </g>
    <g id="xtick_2">
     <g id="line2d_2">
      <g>
       <use xlink:href="#mb98b83112b" x="213.160563" y="756" style="stroke: #000000; stroke-width: 0.8"/>
      </g>
     </g>
     <g id="text_2">
      <text style="font: 10px 'sans-serif'" transform="translate(215.919938 793.595312)rotate(-90)">Kenya</text>
     </g>
    </g>
    <g id="xtick_3">
     <g id="line2d_3">
      <g>
       <use xlink:href="#mb98b83112b" x="255.076056" y="756" style="stroke: #000000; stroke-width: 0.8"/>
      </g>
     </g>
     <g id="text_3">
      <text style="font: 10px 'sans-serif'" transform="translate(257.835431 789.871875)rotate(-90)">Niger</text>
     </g>
    </g>
    <g id="xtick_4">
     <g id="line2d_4">
      <g>
       <use xlink:href="#mb98b83112b" x="296.991549" y="756" style="stroke: #000000; stroke-width: 0.8"/>
      </g>
     </g>
     <g id="text_4">
      <text style="font: 10px 'sans-serif'" transform="translate(299.750924 834.442188)rotate(-90)">Libyan Sahara</text>
     </g>
    </g>
    <g id="xtick_5">
     <g id="line2d_5">
      <g>
       <use xlink:href="#mb98b83112b" x="338.907042" y="756" style="stroke: #000000; stroke-width: 0.8"/>
      </g>
     </g>
     <g id="text_5">
      <text style="font: 10px 'sans-serif'" transform="translate(341.666417 783.3125)rotate(-90)">Mali</text>
     </g>
    </g>
    <g id="xtick_6">
     <g id="line2d_6">
      <g>
       <use xlink:href="#mb98b83112b" x="380.822535" y="756" style="stroke: #000000; stroke-width: 0.8"/>
      </g>
     </g>
     <g id="text_6">
      <text style="font: 10px 'sans-serif'" transform="translate(383.58191 804.989063)rotate(-90)">Slovakia</text>
     </g>
    </g>
    <g id="xtick_7">
     <g id="line2d_7">
      <g>
       <use xlink:href="#mb98b83112b" x="422.738028" y="756" style="stroke: #000000; stroke-width: 0.8"/>
      </g>
     </g>
     <g id="text_7">
      <text style="font: 10px 'sans-serif'" transform="translate(425.497403 796.848438)rotate(-90)">Balkan</text>
     </g>
    </g>
    <g id="xtick_8">
     <g id="line2d_8">
      <g>
       <use xlink:href="#mb98b83112b" x="464.653521" y="756" style="stroke: #000000; stroke-width: 0.8"/>
      </g>
     </g>
     <g id="text_8">
      <text style="font: 10px 'sans-serif'" transform="translate(467.412896 842.35)rotate(-90)">Western Europe</text>
     </g>
    </g>
    <g id="xtick_9">
     <g id="line2d_9">
      <g>
       <use xlink:href="#mb98b83112b" x="506.569014" y="756" style="stroke: #000000; stroke-width: 0.8"/>
      </g>
     </g>
     <g id="text_9">
      <text style="font: 10px 'sans-serif'" transform="translate(509.328389 805.820312)rotate(-90)">Lebanon</text>
     </g>
    </g>
    <g id="xtick_10">
     <g id="line2d_10">
      <g>
       <use xlink:href="#mb98b83112b" x="548.484507" y="756" style="stroke: #000000; stroke-width: 0.8"/>
      </g>
     </g>
     <g id="text_10">
      <text style="font: 10px 'sans-serif'" transform="translate(551.243882 794.81875)rotate(-90)">Jordan</text>
     </g>
    </g>
    <g id="xtick_11">
     <g id="line2d_11">
      <g>
       <use xlink:href="#mb98b83112b" x="590.4" y="756" style="stroke: #000000; stroke-width: 0.8"/>
      </g>
     </g>
     <g id="text_11">
      <text style="font: 10px 'sans-serif'" transform="translate(593.159375 817.128125)rotate(-90)">Palestinian</text>
     </g>
    </g>
    <g id="xtick_12">
     <g id="line2d_12">
      <g>
       <use xlink:href="#mb98b83112b" x="632.315493" y="756" style="stroke: #000000; stroke-width: 0.8"/>
      </g>
     </g>
     <g id="text_12">
      <text style="font: 10px 'sans-serif'" transform="translate(635.074868 788.284375)rotate(-90)">Syria</text>
     </g>
    </g>
    <g id="xtick_13">
     <g id="line2d_13">
      <g>
       <use xlink:href="#mb98b83112b" x="674.230986" y="756" style="stroke: #000000; stroke-width: 0.8"/>
      </g>
     </g>
     <g id="text_13">
      <text style="font: 10px 'sans-serif'" transform="translate(676.990361 797.907812)rotate(-90)">Cyprus</text>
     </g>
    </g>
    <g id="xtick_14">
     <g id="line2d_14">
      <g>
       <use xlink:href="#mb98b83112b" x="716.146479" y="756" style="stroke: #000000; stroke-width: 0.8"/>
      </g>
     </g>
     <g id="text_14">
      <text style="font: 10px 'sans-serif'" transform="translate(718.905854 782.5375)rotate(-90)">Iraq</text>
     </g>
    </g>
    <g id="xtick_15">
     <g id="line2d_15">
      <g>
       <use xlink:href="#mb98b83112b" x="758.061972" y="756" style="stroke: #000000; stroke-width: 0.8"/>
      </g>
     </g>
     <g id="text_15">
      <text style="font: 10px 'sans-serif'" transform="translate(760.821347 797.164062)rotate(-90)">Tunisia</text>
     </g>
    </g>
    <g id="xtick_16">
     <g id="line2d_16">
      <g>
       <use xlink:href="#mb98b83112b" x="799.977465" y="756" style="stroke: #000000; stroke-width: 0.8"/>
      </g>
     </g>
     <g id="text_16">
      <text style="font: 10px 'sans-serif'" transform="translate(802.73684 789.745312)rotate(-90)">Libya</text>
     </g>
    </g>
    <g id="xtick_17">
     <g id="line2d_17">
      <g>
       <use xlink:href="#mb98b83112b" x="841.892958" y="756" style="stroke: #000000; stroke-width: 0.8"/>
      </g>
     </g>
     <g id="text_17">
      <text style="font: 10px 'sans-serif'" transform="translate(844.652333 804.867188)rotate(-90)">Morocco</text>
     </g>
    </g>
    <g id="xtick_18">
     <g id="line2d_18">
      <g>
       <use xlink:href="#mb98b83112b" x="883.808451" y="756" style="stroke: #000000; stroke-width: 0.8"/>
      </g>
     </g>
     <g id="text_18">
      <text style="font: 10px 'sans-serif'" transform="translate(886.567826 796.167187)rotate(-90)">Yemen</text>
     </g>
    </g>
    <g id="xtick_19">
     <g id="line2d_19">
      <g>
       <use xlink:href="#mb98b83112b" x="925.723944" y="756" style="stroke: #000000; stroke-width: 0.8"/>
      </g>
     </g>
     <g id="text_19">
      <text style="font: 10px 'sans-serif'" transform="translate(928.483319 869.504688)rotate(-90)">Yemen, current study</text>
     </g>
    </g>
    <g id="xtick_20">
     <g id="line2d_20">
      <g>
       <use xlink:href="#mb98b83112b" x="967.639437" y="756" style="stroke: #000000; stroke-width: 0.8"/>
      </g>
     </g>
     <g id="text_20">
      <text style="font: 10px 'sans-serif'" transform="translate(970.398812 791.854687)rotate(-90)">Egypt</text>
     </g>
    </g>
    <g id="xtick_21">
     <g id="line2d_21">
      <g>
       <use xlink:href="#mb98b83112b" x="1009.55493" y="756" style="stroke: #000000; stroke-width: 0.8"/>
      </g>
     </g>
     <g id="text_21">
      <text style="font: 10px 'sans-serif'" transform="translate(1012.314305 826.453125)rotate(-90)">Saudi Arabia</text>
     </g>
    </g>
    <g id="text_22">
     <text style="font: 10px 'sans-serif'; text-anchor: middle" x="590.4" y="881.103125" transform="rotate(-0, 590.4, 881.103125)">Country</text>
    </g>
   </g>
   <g id="matplotlib.axis_2">
    <g id="ytick_1">
     <g id="line2d_22">
      <defs>
       <path id="m30689bdd04" d="M 0 0 
L -3.5 0 
" style="stroke: #000000; stroke-width: 0.8"/>
      </defs>
      <g>
       <use xlink:href="#m30689bdd04" x="144" y="756" style="stroke: #000000; stroke-width: 0.8"/>
      </g>
     </g>
     <g id="text_23">
      <text style="font: 10px 'sans-serif'; text-anchor: end" x="137" y="759.799219" transform="rotate(-0, 137, 759.799219)">0.0</text>
     </g>
    </g>
    <g id="ytick_2">
     <g id="line2d_23">
      <g>
       <use xlink:href="#m30689bdd04" x="144" y="631.760995" style="stroke: #000000; stroke-width: 0.8"/>
      </g>
     </g>
     <g id="text_24">
      <text style="font: 10px 'sans-serif'; text-anchor: end" x="137" y="635.560214" transform="rotate(-0, 137, 635.560214)">0.2</text>
     </g>
    </g>
    <g id="ytick_3">
     <g id="line2d_24">
      <g>
       <use xlink:href="#m30689bdd04" x="144" y="507.521991" style="stroke: #000000; stroke-width: 0.8"/>
      </g>
     </g>
     <g id="text_25">
      <text style="font: 10px 'sans-serif'; text-anchor: end" x="137" y="511.321209" transform="rotate(-0, 137, 511.321209)">0.4</text>
     </g>
    </g>
    <g id="ytick_4">
     <g id="line2d_25">
      <g>
       <use xlink:href="#m30689bdd04" x="144" y="383.282986" style="stroke: #000000; stroke-width: 0.8"/>
      </g>
     </g>
     <g id="text_26">
      <text style="font: 10px 'sans-serif'; text-anchor: end" x="137" y="387.082205" transform="rotate(-0, 137, 387.082205)">0.6</text>
     </g>
    </g>
    <g id="ytick_5">
     <g id="line2d_26">
      <g>
       <use xlink:href="#m30689bdd04" x="144" y="259.043981" style="stroke: #000000; stroke-width: 0.8"/>
      </g>
     </g>
     <g id="text_27">
      <text style="font: 10px 'sans-serif'; text-anchor: end" x="137" y="262.8432" transform="rotate(-0, 137, 262.8432)">0.8</text>
     </g>
    </g>
    <g id="ytick_6">
     <g id="line2d_27">
      <g>
       <use xlink:href="#m30689bdd04" x="144" y="134.804977" style="stroke: #000000; stroke-width: 0.8"/>
      </g>
     </g>
     <g id="text_28">
      <text style="font: 10px 'sans-serif'; text-anchor: end" x="137" y="138.604195" transform="rotate(-0, 137, 138.604195)">1.0</text>
     </g>
    </g>
   </g>
   <g id="patch_318">
    <path d="M 144 756 
L 144 103.68 
" style="fill: none; stroke: #000000; stroke-width: 0.8; stroke-linejoin: miter; stroke-linecap: square"/>
   </g>
   <g id="patch_319">
    <path d="M 1036.8 756 
L 1036.8 103.68 
" style="fill: none; stroke: #000000; stroke-width: 0.8; stroke-linejoin: miter; stroke-linecap: square"/>
   </g>
   <g id="patch_320">
    <path d="M 144 756 
L 1036.8 756 
" style="fill: none; stroke: #000000; stroke-width: 0.8; stroke-linejoin: miter; stroke-linecap: square"/>
   </g>
   <g id="patch_321">
    <path d="M 144 103.68 
L 1036.8 103.68 
" style="fill: none; stroke: #000000; stroke-width: 0.8; stroke-linejoin: miter; stroke-linecap: square"/>
   </g>
   <g id="legend_1">
    <g id="patch_322">
     <path d="M 151 541.425937 
L 205.114062 541.425937 
Q 207.114062 541.425937 207.114062 539.425937 
L 207.114062 320.254062 
Q 207.114062 318.254062 205.114062 318.254062 
L 151 318.254062 
Q 149 318.254062 149 320.254062 
L 149 539.425937 
Q 149 541.425937 151 541.425937 
z
" style="fill: #ffffff; opacity: 0.8; stroke: #cccccc; stroke-linejoin: miter"/>
    </g>
    <g id="patch_323">
     <path d="M 153 329.8525 
L 173 329.8525 
L 173 322.8525 
L 153 322.8525 
z
" style="fill: #7f7f7f"/>
    </g>
    <g id="text_29">
     <text style="font: 10px 'sans-serif'; text-anchor: start" x="181" y="329.8525" transform="rotate(-0, 181, 329.8525)">Misc</text>
    </g>
    <g id="patch_324">
     <path d="M 153 344.530625 
L 173 344.530625 
L 173 337.530625 
L 153 337.530625 
z
" style="fill: #f7b6d2"/>
    </g>
    <g id="text_30">
     <text style="font: 10px 'sans-serif'; text-anchor: start" x="181" y="344.530625" transform="rotate(-0, 181, 344.530625)">X</text>
    </g>
    <g id="patch_325">
     <path d="M 153 359.20875 
L 173 359.20875 
L 173 352.20875 
L 153 352.20875 
z
" style="fill: #e377c2"/>
    </g>
    <g id="text_31">
     <text style="font: 10px 'sans-serif'; text-anchor: start" x="181" y="359.20875" transform="rotate(-0, 181, 359.20875)">W</text>
    </g>
    <g id="patch_326">
     <path d="M 153 373.886875 
L 173 373.886875 
L 173 366.886875 
L 153 366.886875 
z
" style="fill: #c49c94"/>
    </g>
    <g id="text_32">
     <text style="font: 10px 'sans-serif'; text-anchor: start" x="181" y="373.886875" transform="rotate(-0, 181, 373.886875)">V</text>
    </g>
    <g id="patch_327">
     <path d="M 153 388.565 
L 173 388.565 
L 173 381.565 
L 153 381.565 
z
" style="fill: #8c564b"/>
    </g>
    <g id="text_33">
     <text style="font: 10px 'sans-serif'; text-anchor: start" x="181" y="388.565" transform="rotate(-0, 181, 388.565)">U</text>
    </g>
    <g id="patch_328">
     <path d="M 153 403.243125 
L 173 403.243125 
L 173 396.243125 
L 153 396.243125 
z
" style="fill: #c5b0d5"/>
    </g>
    <g id="text_34">
     <text style="font: 10px 'sans-serif'; text-anchor: start" x="181" y="403.243125" transform="rotate(-0, 181, 403.243125)">T</text>
    </g>
    <g id="patch_329">
     <path d="M 153 417.92125 
L 173 417.92125 
L 173 410.92125 
L 153 410.92125 
z
" style="fill: #9467bd"/>
    </g>
    <g id="text_35">
     <text style="font: 10px 'sans-serif'; text-anchor: start" x="181" y="417.92125" transform="rotate(-0, 181, 417.92125)">R</text>
    </g>
    <g id="patch_330">
     <path d="M 153 432.599375 
L 173 432.599375 
L 173 425.599375 
L 153 425.599375 
z
" style="fill: #ff9896"/>
    </g>
    <g id="text_36">
     <text style="font: 10px 'sans-serif'; text-anchor: start" x="181" y="432.599375" transform="rotate(-0, 181, 432.599375)">N</text>
    </g>
    <g id="patch_331">
     <path d="M 153 447.2775 
L 173 447.2775 
L 173 440.2775 
L 153 440.2775 
z
" style="fill: #d62728"/>
    </g>
    <g id="text_37">
     <text style="font: 10px 'sans-serif'; text-anchor: start" x="181" y="447.2775" transform="rotate(-0, 181, 447.2775)">M</text>
    </g>
    <g id="patch_332">
     <path d="M 153 461.955625 
L 173 461.955625 
L 173 454.955625 
L 153 454.955625 
z
" style="fill: #98df8a"/>
    </g>
    <g id="text_38">
     <text style="font: 10px 'sans-serif'; text-anchor: start" x="181" y="461.955625" transform="rotate(-0, 181, 461.955625)">L</text>
    </g>
    <g id="patch_333">
     <path d="M 153 476.63375 
L 173 476.63375 
L 173 469.63375 
L 153 469.63375 
z
" style="fill: #2ca02c"/>
    </g>
    <g id="text_39">
     <text style="font: 10px 'sans-serif'; text-anchor: start" x="181" y="476.63375" transform="rotate(-0, 181, 476.63375)">K</text>
    </g>
    <g id="patch_334">
     <path d="M 153 491.311875 
L 173 491.311875 
L 173 484.311875 
L 153 484.311875 
z
" style="fill: #ffbb78"/>
    </g>
    <g id="text_40">
     <text style="font: 10px 'sans-serif'; text-anchor: start" x="181" y="491.311875" transform="rotate(-0, 181, 491.311875)">J</text>
    </g>
    <g id="patch_335">
     <path d="M 153 505.99 
L 173 505.99 
L 173 498.99 
L 153 498.99 
z
" style="fill: #ff7f0e"/>
    </g>
    <g id="text_41">
     <text style="font: 10px 'sans-serif'; text-anchor: start" x="181" y="505.99" transform="rotate(-0, 181, 505.99)">I</text>
    </g>
    <g id="patch_336">
     <path d="M 153 520.668125 
L 173 520.668125 
L 173 513.668125 
L 153 513.668125 
z
" style="fill: #aec7e8"/>
    </g>
    <g id="text_42">
     <text style="font: 10px 'sans-serif'; text-anchor: start" x="181" y="520.668125" transform="rotate(-0, 181, 520.668125)">HV</text>
    </g>
    <g id="patch_337">
     <path d="M 153 535.34625 
L 173 535.34625 
L 173 528.34625 
L 153 528.34625 
z
" style="fill: #1f77b4"/>
    </g>
    <g id="text_43">
     <text style="font: 10px 'sans-serif'; text-anchor: start" x="181" y="535.34625" transform="rotate(-0, 181, 535.34625)">H</text>
    </g>
   </g>
  </g>
 </g>
 <defs>
  <clipPath id="pba3f2e2b9c">
   <rect x="144" y="103.68" width="892.8" height="652.32"/>
  </clipPath>
 </defs>
</svg>
